#N canvas 742 442 469 395 10;
#X obj 104 102 cnv 15 160 60 empty empty empty 20 12 0 14 -4032 -66577
0;
#X obj 195 115 vsl 15 40 0 1.5 0 0 empty empty empty 0 -9 0 10 -262144
-1 -1 1950 1;
#X floatatom 100 215 5 0 0 0 - - -, f 5;
#X msg 389 194 0;
#X msg 313 194 0.75;
#X obj 29 232 *~;
#X obj 296 35 loadbang;
#X msg 314 72 0.75;
#X obj 40 80 adc~;
#X obj 28 341 outlet~;
#X obj 104 269 env~ 8162;
#X obj 217 115 vsl 15 40 10 100 0 0 empty empty Niveau 15 35 0 10 -262144
-1 -1 2084 1;
#X floatatom 120 316 5 0 0 0 - - -, f 5;
#X text 105 106 ENTREE AUDIO;
#X text 158 143 gain;
#X connect 1 0 2 0;
#X connect 2 0 5 1;
#X connect 3 0 1 0;
#X connect 4 0 1 0;
#X connect 5 0 9 0;
#X connect 5 0 10 0;
#X connect 6 0 7 0;
#X connect 7 0 1 0;
#X connect 8 0 5 0;
#X connect 10 0 12 0;
#X connect 10 0 11 0;
#X coords 0 -1 1 1 165 65 2 100 100;
