#N canvas 742 442 469 395 10;
#X obj 104 102 cnv 15 160 60 empty empty empty 20 12 0 14 -4032 -66577
0;
#X obj 241 112 vsl 15 40 0 1 0 0 empty empty empty 0 -9 0 10 -262144
-1 -1 2925 1;
#X floatatom 131 224 5 0 0 0 - - -, f 5;
#X obj 141 142 tgl 15 0 empty empty empty 17 7 0 10 -262144 -1 -1 0
1;
#X text 105 142 muet;
#X text 184 143 volume;
#X msg 389 194 0;
#X obj 119 177 sel 1;
#X msg 313 194 0.75;
#X obj 82 253 *~;
#X obj 296 35 loadbang;
#X msg 314 72 0.75;
#X text 110 104 SORTIE AUDIO;
#X obj 38 64 inlet~;
#X obj 65 325 dac~;
#X connect 1 0 2 0;
#X connect 2 0 9 1;
#X connect 3 0 7 0;
#X connect 6 0 1 0;
#X connect 7 0 6 0;
#X connect 7 1 8 0;
#X connect 8 0 1 0;
#X connect 9 0 14 0;
#X connect 9 0 14 1;
#X connect 10 0 11 0;
#X connect 11 0 1 0;
#X connect 13 0 9 0;
#X coords 0 -1 1 1 165 65 2 100 100;
