#N canvas 766 169 559 424 10;
#X obj 101 104 cnv 15 118 55 empty empty REGLER_TEMPO 14 38 0 14 -249726
-66577 0;
#X obj 96 35 inlet;
#X obj 56 308 s tempoValue;
#X obj 138 35 inlet;
#X obj 253 226 s tempoGo;
#X obj 174 227 s tempoStop;
#X text 103 105 valeur;
#X obj 193 106 tgl 15 0 empty empty play/stop -29 23 0 10 -262144 -1
-1 0 255;
#X obj 207 176 sel 0;
#X obj 56 238 / 60;
#X obj 56 262 pow -1;
#X obj 56 284 * 1000;
#X obj 56 88 / 255;
#X obj 56 115 * 160;
#X obj 56 142 + 40;
#X connect 1 0 12 0;
#X connect 3 0 7 0;
#X connect 7 0 8 0;
#X connect 8 0 5 0;
#X connect 8 1 4 0;
#X connect 9 0 10 0;
#X connect 10 0 11 0;
#X connect 11 0 2 0;
#X connect 12 0 13 0;
#X connect 13 0 14 0;
#X connect 14 0 9 0;
#X coords 0 -1 1 1 120 60 1 100 100;
