#N canvas 202 199 559 424 10;
#X obj 101 103 cnv 15 128 50 empty empty REGLER_TEMPO 11 25 0 14 -249726
-66577 0;
#X obj 56 -34 inlet;
#X obj 56 308 s tempoValue;
#X obj 147 -36 inlet;
#X obj 212 122 tgl 15 0 empty empty empty -29 23 0 10 -262144 -1 -1
0 255;
#X obj 207 176 sel 0;
#X obj 56 238 / 60;
#X obj 56 262 pow -1;
#X obj 56 284 * 1000;
#X obj 56 88 / 255;
#X obj 56 115 * 160;
#X obj 56 142 + 40;
#X obj 164 -3 tgl 15 0 empty empty empty 17 7 0 10 -262144 -1 -1 0
255;
#X obj 191 66 bng 15 250 50 0 empty empty empty 17 7 0 10 -262144 -1
-1;
#X obj 269 67 print;
#X obj 190 24 sel 255;
#X obj 174 227 s tempoStopIn;
#X obj 265 228 s tempoGoIn;
#X obj 191 282 r tempoStopOut;
#X obj 294 282 r tempoGoOut;
#X obj 249 344 tgl 15 0 empty empty empty 17 7 0 10 -262144 -1 -1 0
1;
#X msg 294 307 1;
#X msg 191 307 0;
#X obj 247 390 outlet;
#X obj 247 366 * 255;
#X obj 101 103 cnv 12 46 12 empty empty tempo 2 6 0 12 -249508 -1 0
;
#X obj 159 103 cnv 12 70 12 empty empty play/stop 4 6 0 12 -204786
-1 0;
#X obj 101 143 cnv 12 30 12 empty empty bang 4 6 0 12 -204786 -1 0
;
#X connect 1 0 9 0;
#X connect 3 0 12 0;
#X connect 4 0 5 0;
#X connect 5 0 16 0;
#X connect 5 1 17 0;
#X connect 6 0 7 0;
#X connect 7 0 8 0;
#X connect 8 0 2 0;
#X connect 9 0 10 0;
#X connect 10 0 11 0;
#X connect 11 0 6 0;
#X connect 12 0 15 0;
#X connect 13 0 4 0;
#X connect 15 0 13 0;
#X connect 15 1 14 0;
#X connect 18 0 22 0;
#X connect 19 0 21 0;
#X connect 20 0 24 0;
#X connect 21 0 20 0;
#X connect 22 0 20 0;
#X connect 24 0 23 0;
#X coords 0 -1 1 1 130 60 2 100 100;
