#N canvas 1728 330 776 687 10;
#X obj -68 -25 / 60;
#X obj 195 392 cnv 15 400 300 empty empty empty 20 12 0 14 -233017
-66577 0;
#X text 238 446 metronome;
#X obj 316 428 i 0;
#X obj 390 695 dac~;
#N canvas 313 577 431 337 clickHigh~ 0;
#X obj 211 64 inlet bng;
#X obj 211 86 bng 15 250 50 0 empty empty empty 17 7 0 10 -262144 -1
-1;
#X obj 241 116 del 30;
#X msg 241 138 0;
#X obj 129 177 osc~ 4000;
#X obj 129 219 *~ 0;
#X obj 129 261 outlet~;
#X text 120 20 just generate click sound;
#X obj 211 178 f;
#X msg 211 138 0.1;
#X connect 0 0 1 0;
#X connect 1 0 9 0;
#X connect 1 0 2 0;
#X connect 2 0 3 0;
#X connect 3 0 8 0;
#X connect 4 0 5 0;
#X connect 5 0 6 0;
#X connect 8 0 5 1;
#X connect 9 0 8 0;
#X restore 288 639 pd clickHigh~;
#N canvas 307 594 431 337 clickLow~ 0;
#X obj 211 64 inlet bng;
#X obj 211 86 bng 15 250 50 0 empty empty empty 17 7 0 10 -262144 -1
-1;
#X msg 241 138 0;
#X obj 129 219 *~ 0;
#X obj 129 261 outlet~;
#X text 120 20 just generate click sound;
#X obj 211 178 f;
#X msg 211 138 0.1;
#X obj 129 177 osc~ 3200;
#X obj 241 116 del 15;
#X connect 0 0 1 0;
#X connect 1 0 7 0;
#X connect 1 0 9 0;
#X connect 2 0 6 0;
#X connect 3 0 4 0;
#X connect 6 0 3 1;
#X connect 7 0 6 0;
#X connect 8 0 3 0;
#X connect 9 0 2 0;
#X restore 422 638 pd clickLow~;
#X obj 316 456 sel 1;
#X msg 64 2 stop;
#X obj -237 -142 r tempoValue;
#X floatatom -237 -90 5 0 0 0 - - -;
#X obj -68 1 * 4;
#X obj -68 27 pow -1;
#X obj -64 54 * 1000;
#X obj -64 133 metro;
#X floatatom 33 110 5 0 0 0 - - -;
#X obj -64 210 i 0;
#X obj -64 241 + 1;
#X msg -8 267 0;
#X floatatom -64 272 5 0 0 0 - - -;
#X obj -64 174 bng 15 250 50 0 empty empty empty 17 7 0 10 -262144
-1 -1;
#X obj -80 404 bng 15 250 50 0 empty empty empty 17 7 0 10 -262144
-1 -1;
#X obj -64 101 t b i b;
#X text 7 172 4times the tempo Used for sequencer;
#X obj -218 625 s tempo_bar;
#X obj -32 441 s tempo_click;
#X obj -80 465 i 0;
#X obj -80 496 + 1;
#X floatatom -80 550 5 0 0 0 - - -;
#X obj -80 595 sel 4;
#X msg -22 507 0;
#X text -32 408 normal tempo;
#X text -22 588 bar;
#X obj 315 562 i 0;
#X obj 227 484 t b i;
#X obj 311 602 sel 1;
#X obj -64 309 sel 4;
#X obj -80 377 sel 1;
#X obj -17 135 s init_tempo;
#X obj -7 231 r init_tempo;
#X obj -22 472 r init_tempo;
#X obj -300 375 sel 1 3;
#X obj -272 427 bng 15 250 50 0 empty empty empty 17 7 0 10 -262144
-1 -1;
#X obj -280 489 i 0;
#X obj -276 521 + 1;
#X floatatom -274 577 5 0 0 0 - - -;
#X msg -222 531 0;
#X obj -222 496 r init_tempo;
#X obj -282 620 sel 8;
#X obj -212 595 - 1;
#X obj -210 -30 / 4;
#X obj -237 -1 / 1000;
#X obj -237 30 pow -1;
#X obj -237 56 * 60;
#X floatatom -237 81 5 0 0 0 - - -;
#X text -220 373 2 times the tempo;
#X obj 66 441 outlet;
#X obj -69 -99 cnv 15 228 64 empty empty TEMPO 20 10 0 14 -249726 -66577
0;
#X obj -65 -77 hsl 128 15 40 200 0 0 empty empty empty -2 -8 0 10 -203904
-1 -1 4445 1;
#X floatatom -68 -57 10 0 0 0 - - -;
#X obj -2 -58 bng 15 250 50 0 empty tempo_click empty 17 7 0 10 -159808
-1 -1;
#X floatatom 26 -24 5 0 0 0 - tempo_bar -;
#X floatatom 78 -23 5 0 0 0 - - -;
#X obj 85 -62 tgl 25 0 empty empty metronome -56 13 0 10 -262144 -1
-1 0 1;
#X obj 3 -97 bng 15 250 50 0 empty empty go 17 7 0 10 -262144 -1 -1
;
#X obj 46 -97 bng 15 250 50 0 empty empty stop 17 7 0 10 -262144 -1
-1;
#X obj -237 -63 t f f;
#X obj 143 -80 tgl 15 0 empty empty autoplay -47 7 0 10 -262144 -1
-1 0 1;
#X obj -214 -122 ../save/save-int-separate tempoValue;
#X obj 204 -148 ../save/save-int-separate TempoAutoPlay;
#X obj 138 -24 sel 1;
#X obj 165 5 del 100;
#X obj 7 -142 r tempoGoIn;
#X obj 98 -143 r tempoStopIn;
#X obj 64 50 s tempoStopOut;
#X obj -159 -25 s tempoGoOut;
#X obj 165 41 s tempoStopIn;
#X connect 0 0 11 0;
#X connect 3 0 7 0;
#X connect 5 0 4 1;
#X connect 5 0 4 0;
#X connect 6 0 4 1;
#X connect 6 0 4 0;
#X connect 7 0 33 0;
#X connect 8 0 14 0;
#X connect 8 0 74 0;
#X connect 9 0 10 0;
#X connect 10 0 66 0;
#X connect 11 0 12 0;
#X connect 12 0 13 0;
#X connect 13 0 15 0;
#X connect 13 0 22 0;
#X connect 14 0 20 0;
#X connect 16 0 17 0;
#X connect 17 0 19 0;
#X connect 18 0 16 1;
#X connect 19 0 36 0;
#X connect 19 0 37 0;
#X connect 19 0 41 0;
#X connect 20 0 16 0;
#X connect 21 0 25 0;
#X connect 21 0 26 0;
#X connect 21 0 56 0;
#X connect 22 0 14 0;
#X connect 22 1 14 1;
#X connect 22 2 38 0;
#X connect 26 0 27 0;
#X connect 27 0 28 0;
#X connect 28 0 29 0;
#X connect 28 0 34 0;
#X connect 29 0 30 0;
#X connect 29 1 26 1;
#X connect 30 0 26 1;
#X connect 33 0 35 0;
#X connect 34 0 3 0;
#X connect 34 1 33 1;
#X connect 35 0 5 0;
#X connect 35 1 6 0;
#X connect 36 0 18 0;
#X connect 36 1 16 1;
#X connect 37 0 21 0;
#X connect 39 0 18 0;
#X connect 40 0 30 0;
#X connect 41 0 42 0;
#X connect 41 1 42 0;
#X connect 42 0 43 0;
#X connect 43 0 44 0;
#X connect 44 0 45 0;
#X connect 45 0 48 0;
#X connect 45 0 49 0;
#X connect 46 0 43 1;
#X connect 47 0 46 0;
#X connect 48 0 46 0;
#X connect 48 1 43 1;
#X connect 49 0 24 0;
#X connect 50 0 22 0;
#X connect 51 0 52 0;
#X connect 52 0 53 0;
#X connect 53 0 54 0;
#X connect 54 0 58 0;
#X connect 58 0 59 0;
#X connect 58 0 68 0;
#X connect 59 0 0 0;
#X connect 59 0 75 0;
#X connect 63 0 3 1;
#X connect 64 0 58 0;
#X connect 65 0 8 0;
#X connect 66 0 51 0;
#X connect 66 1 50 0;
#X connect 67 0 69 0;
#X connect 67 0 70 0;
#X connect 68 0 58 0;
#X connect 69 0 67 0;
#X connect 70 1 71 0;
#X connect 71 0 76 0;
#X connect 72 0 64 0;
#X connect 73 0 65 0;
#X coords 0 -1 1 1 230 68 2 -70 -100;
