#N canvas 35 87 624 643 10;
#X floatatom -55 26 5 0 0 0 - - -, f 5;
#X floatatom -55 -55 10 0 0 0 - - -, f 10;
#X obj -55 -24 / 60;
#X obj -53 -86 hsl 128 15 80 200 0 0 empty empty empty -2 -8 0 10 -203904
-1 -1 0 1;
#X obj -55 46 phasor~;
#X obj 83 -97 bng 15 250 50 0 empty empty go 17 7 0 10 -262144 -1 -1
;
#X obj -54 72 snapshot~;
#X obj 42 45 metro 2;
#X floatatom -54 99 5 0 0 0 - - -, f 5;
#X floatatom 40 -55 5 0 0 0 - - -, f 5;
#X obj -55 1 / 8;
#X obj -55 136 * 8;
#X obj -57 163 i 0;
#X obj -20 196 change;
#X obj 19 -55 bng 15 250 50 0 empty empty empty 17 7 0 10 -159808 -1
-1;
#X obj -41 367 outlet;
#X obj 112 417 outlet;
#X obj 414 386 outlet~;
#X obj 144 -10 cnv 15 400 300 empty empty empty 20 12 0 14 -233017
-66577 0;
#X text 265 26 metronome;
#X obj 153 -60 tgl 25 0 empty empty empty 17 7 0 10 -262144 -1 -1 0
1;
#X obj 343 8 i 0;
#X obj 417 275 dac~;
#X text 111 -77 metronome;
#X obj -65 205 + 1;
#N canvas 313 577 431 337 clickHigh~ 0;
#X obj 211 64 inlet bng;
#X obj 211 86 bng 15 250 50 0 empty empty empty 17 7 0 10 -262144 -1
-1;
#X obj 241 116 del 30;
#X msg 241 138 0;
#X obj 129 177 osc~ 4000;
#X obj 129 219 *~ 0;
#X obj 129 261 outlet~;
#X text 120 20 just generate click sound;
#X obj 211 178 f;
#X msg 211 138 0.1;
#X connect 0 0 1 0;
#X connect 1 0 9 0;
#X connect 1 0 2 0;
#X connect 2 0 3 0;
#X connect 3 0 8 0;
#X connect 4 0 5 0;
#X connect 5 0 6 0;
#X connect 8 0 5 1;
#X connect 9 0 8 0;
#X restore 315 219 pd clickHigh~;
#N canvas 307 594 431 337 clickLow~ 0;
#X obj 211 64 inlet bng;
#X obj 211 86 bng 15 250 50 0 empty empty empty 17 7 0 10 -262144 -1
-1;
#X msg 241 138 0;
#X obj 129 219 *~ 0;
#X obj 129 261 outlet~;
#X text 120 20 just generate click sound;
#X obj 211 178 f;
#X msg 211 138 0.1;
#X obj 129 177 osc~ 3200;
#X obj 241 116 del 15;
#X connect 0 0 1 0;
#X connect 1 0 7 0;
#X connect 1 0 9 0;
#X connect 2 0 6 0;
#X connect 3 0 4 0;
#X connect 6 0 3 1;
#X connect 7 0 6 0;
#X connect 8 0 3 0;
#X connect 9 0 2 0;
#X restore 449 218 pd clickLow~;
#X obj 343 36 sel 1;
#X obj 342 70 i 0;
#X obj -55 393 s tempo_click;
#X obj 343 93 + 1;
#X obj 344 122 % 8;
#X obj 338 182 sel 0;
#X obj 81 442 s tempo_bar;
#X obj 74 361 i 0;
#X obj 75 384 + 1;
#X obj 76 413 % 8;
#X obj 56 162 i 0;
#X obj 74 192 change;
#X obj 46 238 + 1;
#X floatatom 96 -55 5 0 0 0 - - -, f 5;
#X obj 56 130 * 16;
#X obj 122 -97 bng 15 250 50 0 empty empty stop 17 7 0 10 -262144 -1
-1;
#X msg 64 2 stop;
#X obj 282 -90 r tempoValue;
#X floatatom 282 -38 5 0 0 0 - - -, f 5;
#X obj 336 -42 bng 15 250 50 0 empty empty empty 17 7 0 10 -262144
-1 -1;
#X connect 0 0 4 0;
#X connect 1 0 2 0;
#X connect 1 0 5 0;
#X connect 2 0 10 0;
#X connect 3 0 1 0;
#X connect 4 0 6 0;
#X connect 4 0 17 0;
#X connect 5 0 7 0;
#X connect 6 0 8 0;
#X connect 7 0 6 0;
#X connect 8 0 11 0;
#X connect 8 0 41 0;
#X connect 9 0 28 1;
#X connect 10 0 0 0;
#X connect 11 0 12 0;
#X connect 12 0 13 0;
#X connect 12 0 24 0;
#X connect 13 0 14 0;
#X connect 13 0 15 0;
#X connect 13 0 29 0;
#X connect 14 0 21 0;
#X connect 20 0 21 1;
#X connect 21 0 27 0;
#X connect 24 0 9 0;
#X connect 25 0 22 1;
#X connect 25 0 22 0;
#X connect 26 0 22 1;
#X connect 26 0 22 0;
#X connect 27 0 28 0;
#X connect 28 0 30 0;
#X connect 30 0 31 0;
#X connect 31 0 32 0;
#X connect 32 0 25 0;
#X connect 32 1 26 0;
#X connect 34 0 35 0;
#X connect 35 0 36 0;
#X connect 36 0 33 0;
#X connect 36 0 40 0;
#X connect 37 0 38 0;
#X connect 37 0 39 0;
#X connect 38 0 34 0;
#X connect 39 0 34 1;
#X connect 41 0 37 0;
#X connect 42 0 43 0;
#X connect 43 0 7 0;
#X connect 44 0 45 0;
#X connect 44 0 46 0;
#X coords 0 -1 1 1 250 68 2 -70 -100;
