#N canvas 199 38 1440 756 10;
#X obj 31 31 cnv 15 130 498 empty empty AUDIO 16 16 0 23 -133232 -66577
0;
#X obj 298 -30 r~ input_audio1;
#X obj 35 58 cnv 15 123 20 empty empty MICROPHONE 3 9 0 20 -133232
-66577 0;
#N canvas 555 183 693 455 volume-effect 0;
#X obj 111 103 vsl 50 95 0 200 0 0 empty empty volume 5 12 0 10 -86735
-262144 -262144 2500 0;
#X obj 28 228 s \$0-volume;
#X obj 172 148 vsl 36 50 0 120 0 0 empty empty delay 3 14 0 10 -86735
-262144 -262144 0 0;
#X obj 170 130 cnv 12 48 12 empty empty Effets 4 6 0 12 -33289 -262144
0;
#X obj 279 199 s \$0-effect1;
#X obj 102 103 vsl 8 95 0 127 0 0 empty empty empty 0 -9 0 10 -228856
-159808 -1 0 1;
#X obj -77 63 r \$0-vumetre;
#X obj 115 241 / 255;
#X obj 80 276 * 200;
#X obj 198 247 / 255;
#X obj 163 282 * 120;
#X obj -5 15 ../save/save-int-separate \$1-mic_volume;
#X obj 290 47 ../save/save-int-separate \$1-mic-effect1;
#X obj 173 203 ../extra/analog_receive \$1-mic-effect1;
#X obj 118 203 ../extra/analog_receive \$1-mic-volume;
#X connect 0 0 1 0;
#X connect 0 0 11 0;
#X connect 2 0 4 0;
#X connect 2 0 12 0;
#X connect 6 0 5 0;
#X connect 7 0 8 0;
#X connect 8 0 0 0;
#X connect 9 0 10 0;
#X connect 10 0 2 0;
#X connect 11 0 0 0;
#X connect 12 0 2 0;
#X connect 13 0 9 0;
#X connect 14 0 7 0;
#X coords 0 -1 1 1 120 120 2 100 100;
#X restore 37 409 pd volume-effect;
#X obj 77 217 vu 15 120 empty empty -1 -8 0 10 -66577 -1 1 0;
#X obj 334 63 env~ 4096;
#X obj 336 153 dbtopow;
#X floatatom 305 197 5 0 0 0 - - -;
#X obj 335 110 - 90;
#N canvas 620 117 665 368 drywet 0;
#X obj -26 158 +~;
#X obj -11 112 *~ 2;
#X obj 67 83 / 100;
#X obj -11 -16 inlet~;
#X obj -124 226 outlet~;
#X obj 67 18 r \$0-volume;
#X obj 164 18 r \$0-effect1;
#X obj 164 45 / 100;
#X obj 164 72 *~ 1;
#X obj 15 222 s~ to_master-mic;
#X obj 165 217 s~ to_effect1-mic;
#X connect 0 0 9 0;
#X connect 1 0 0 1;
#X connect 2 0 1 1;
#X connect 3 0 1 0;
#X connect 3 0 8 0;
#X connect 3 0 4 0;
#X connect 5 0 2 0;
#X connect 6 0 7 0;
#X connect 7 0 8 1;
#X connect 8 0 10 0;
#X restore 431 78 pd drywet;
#X connect 1 0 5 0;
#X connect 1 0 9 0;
#X connect 5 0 8 0;
#X connect 8 0 6 0;
#X connect 8 0 7 0;
#X connect 8 0 4 0;
#X coords 0 -1 1 1 132 500 2 30 30;
