#N canvas 320 49 804 657 10;
#X obj 191 9 cnv 15 130 498 empty empty EFFETS 18 22 0 28 -238739 -33289
0;
#X obj 219 64 cnv 12 90 12 empty empty Delay 4 6 0 12 -33289 -262144
0;
#X obj 194 64 cnv 12 25 25 empty empty 1 6 10 0 20 -33289 -262144 0
;
#X obj 219 292 cnv 12 90 12 empty empty Transpose 4 6 0 12 -33289 -262144
0;
#X obj 194 292 cnv 12 25 25 empty empty 2 6 10 0 20 -33289 -262144
0;
#X obj 7 233 s~ to_master-effet;
#N canvas 607 168 721 564 delay 1;
#X obj 260 322 delread~ delayMain;
#X floatatom 256 222 5 0 4000 1 ms - -;
#X obj 48 411 *~ 0.4;
#X obj 152 391 / 100;
#X obj 256 78 r tempoGoOut;
#X floatatom 256 102 5 0 0 0 - - -;
#X obj 256 148 / 60;
#X obj 256 173 pow -1;
#X obj 256 198 * 1000;
#X floatatom 152 350 5 0 0 0 feedback #0-delay-feedback -;
#X floatatom 211 157 5 0 4 0 dividing #0-delay-dividing -;
#X obj 256 124 * 1;
#X obj 33 459 +~;
#X floatatom 113 220 5 0 0 1 dry/wet #0-delay-drywet -;
#X obj 113 286 s \$0-drywetdelay;
#X obj 113 259 / 100;
#X obj 164 23 r \$0-drywetdelay;
#X obj 164 49 * -1;
#X obj 164 73 + 1;
#X obj 211 222 t b f;
#X obj 33 495 outlet~;
#X obj 312 255 s \$0-delay-ms;
#X obj 259 279 / 3;
#X obj 209 191 + 1;
#X obj 380 42 ../save/save-int-separate effet-delay-feedback;
#X obj 380 16 r \$0-delay-feedback;
#X obj 380 70 s \$0-delay-feedbackin;
#X obj 33 65 *~ 0.05;
#X obj 103 105 *~ 0.9;
#X obj 103 451 delwrite~ delayMain 200;
#N canvas 662 222 450 300 audio1 1;
#X obj 147 233 outlet~;
#X obj 50 42 r~ to_effect1-son1;
#X obj 183 44 r~ to_effect1-loop1;
#X obj 184 64 r~ to_effect1-loop2;
#X obj 183 85 r~ to_effect1-loop3;
#X obj 317 44 r~ to_effect1-looper;
#X obj 323 109 r~ to_effect1-mic;
#X connect 1 0 0 0;
#X connect 2 0 0 0;
#X connect 3 0 0 0;
#X connect 4 0 0 0;
#X connect 5 0 0 0;
#X connect 6 0 0 0;
#X restore 55 24 pd audio1;
#X connect 0 0 2 0;
#X connect 1 0 21 0;
#X connect 1 0 22 0;
#X connect 2 0 12 1;
#X connect 2 0 29 0;
#X connect 3 0 2 1;
#X connect 4 0 5 0;
#X connect 5 0 11 0;
#X connect 6 0 7 0;
#X connect 7 0 8 0;
#X connect 8 0 1 0;
#X connect 9 0 3 0;
#X connect 10 0 23 0;
#X connect 11 0 6 0;
#X connect 12 0 20 0;
#X connect 13 0 15 0;
#X connect 15 0 14 0;
#X connect 16 0 17 0;
#X connect 17 0 18 0;
#X connect 19 0 22 0;
#X connect 19 1 22 1;
#X connect 22 0 0 0;
#X connect 23 0 19 0;
#X connect 24 0 26 0;
#X connect 25 0 24 0;
#X connect 27 0 12 0;
#X connect 28 0 29 0;
#X connect 30 0 27 0;
#X connect 30 0 28 0;
#X restore 73 103 pd delay;
#X floatatom 253 77 5 0 0 1 ms #0-delay-ms truc;
#X obj 199 252 hradio 15 1 0 7 \$0-delay-dividing empty empty 0 -8
0 10 -128992 -262144 -1 0;
#X obj 207 464 nbx 4 26 -1e+37 1e+37 0 0 empty empty empty 0 -8 0 10
-162280 -262144 -1 0 256;
#X obj 206 108 ../extra/analog_receive delay-feed;
#X obj 362 112 * 0.39;
#X obj 206 342 vsl 35 100 -127 127 0 0 empty empty empty 0 -9 0 10
-228856 -1 -1 4950 0;
#X text 247 338 aigu;
#X text 245 426 grave;
#X obj 206 321 ../extra/analog_receive transpose;
#X obj 217 534 s transpose;
#X obj 356 371 * 1;
#X obj 353 408 - 127;
#X obj 206 132 vsl 35 100 0 100 0 0 \$0-delay-feedback empty empty
0 -9 0 10 -228856 -1 -1 4356 0;
#X text 246 138 duree;
#X text 250 154 de;
#X text 242 173 l'echo;
#X obj 383 295 loadbang;
#X msg 385 324 0;
#X obj 378 199 ../save/save-int-separate delay-feedback;
#X connect 6 0 5 0;
#X connect 9 0 16 0;
#X connect 10 0 11 0;
#X connect 11 0 19 0;
#X connect 12 0 9 0;
#X connect 15 0 17 0;
#X connect 17 0 18 0;
#X connect 18 0 12 0;
#X connect 19 0 25 0;
#X connect 23 0 24 0;
#X connect 24 0 12 0;
#X connect 25 0 19 0;
#X coords 0 -1 100 1 132 500 2 190 8;
