#N canvas 494 87 794 683 10;
#X obj 90 -217 loadbang;
#X obj 90 -195 t b b b b;
#X obj 177 -138 symbol \$1;
#X msg 84 -62 rewind;
#X msg 24 -62 bang;
#X obj 104 -12 textfile;
#X obj 93 48 i 0;
#X obj 67 299 symbol \$1;
#X msg 289 307 clear;
#X obj 106 398 textfile;
#X obj 128 -114 pack s;
#X obj -33 319 pack s;
#X obj -83 -93 inlet;
#X obj -149 279 outlet;
#X obj 121 121 tgl 13 0 empty empty empty 17 7 0 10 -228856 -1 -1 0
1;
#X obj 104 11 unpack f f f f f f f f;
#X obj 119 48 i 0;
#X obj 146 48 i 0;
#X obj 171 48 i 0;
#X obj 198 48 i 0;
#X obj 224 48 i 0;
#X obj 249 48 i 0;
#X obj 274 48 i 0;
#X obj 134 121 tgl 13 0 empty empty empty 17 7 0 10 -228856 -1 -1 0
1;
#X obj 147 121 tgl 13 0 empty empty empty 17 7 0 10 -228856 -1 -1 0
1;
#X obj 160 121 tgl 13 0 empty empty empty 17 7 0 10 -228856 -1 -1 0
1;
#X obj 173 121 tgl 13 0 empty empty empty 17 7 0 10 -228856 -1 -1 0
1;
#X obj 186 121 tgl 13 0 empty empty empty 17 7 0 10 -228856 -1 -1 0
1;
#X obj 199 121 tgl 13 0 empty empty empty 17 7 0 10 -228856 -1 -1 0
1;
#X obj 212 121 tgl 13 0 empty empty empty 17 7 0 10 -228856 -1 -1 0
1;
#X obj 118 242 t b b l b;
#X obj 24 161 t b f;
#X obj 61 161 t b f;
#X obj 98 161 t b f;
#X obj 135 161 t b f;
#X obj 172 161 t b f;
#X obj 209 161 t b f;
#X obj 246 161 t b f;
#X obj 283 161 t b f;
#X msg 137 -61 read ../preset/toogle8-\$1.txt;
#X msg 2 351 write ../preset/toogle8-\$1.txt;
#X obj 190 310 prepend add;
#X obj 113 207 pack 0 0 0 0 0 0 0 0;
#X obj 348 -17 pack 0 0 0 0 0 0 0 0;
#X obj 346 -59 bng 15 250 50 0 empty empty empty 17 7 0 10 -262144
-1 -1;
#X obj 342 -162 inlet;
#X connect 0 0 1 0;
#X connect 1 0 4 0;
#X connect 1 1 3 0;
#X connect 1 2 10 0;
#X connect 1 3 2 0;
#X connect 2 0 10 0;
#X connect 3 0 5 0;
#X connect 4 0 5 0;
#X connect 5 0 15 0;
#X connect 6 0 14 0;
#X connect 7 0 11 0;
#X connect 8 0 9 0;
#X connect 10 0 39 0;
#X connect 11 0 40 0;
#X connect 12 0 15 0;
#X connect 14 0 31 0;
#X connect 15 0 6 0;
#X connect 15 1 16 0;
#X connect 15 2 17 0;
#X connect 15 3 18 0;
#X connect 15 4 19 0;
#X connect 15 5 20 0;
#X connect 15 6 21 0;
#X connect 15 7 22 0;
#X connect 16 0 23 0;
#X connect 17 0 24 0;
#X connect 18 0 25 0;
#X connect 19 0 26 0;
#X connect 20 0 27 0;
#X connect 21 0 28 0;
#X connect 22 0 29 0;
#X connect 23 0 32 0;
#X connect 24 0 33 0;
#X connect 25 0 34 0;
#X connect 26 0 35 0;
#X connect 27 0 36 0;
#X connect 28 0 37 0;
#X connect 29 0 38 0;
#X connect 30 0 11 0;
#X connect 30 1 7 0;
#X connect 30 2 41 0;
#X connect 30 3 8 0;
#X connect 31 1 42 0;
#X connect 32 0 42 0;
#X connect 32 1 42 1;
#X connect 33 0 42 0;
#X connect 33 1 42 2;
#X connect 34 0 42 0;
#X connect 34 1 42 3;
#X connect 35 0 42 0;
#X connect 35 1 42 4;
#X connect 36 0 42 0;
#X connect 36 1 42 5;
#X connect 37 0 42 0;
#X connect 37 1 42 6;
#X connect 38 0 42 0;
#X connect 38 1 42 7;
#X connect 39 0 5 0;
#X connect 40 0 9 0;
#X connect 41 0 9 0;
#X connect 42 0 30 0;
#X connect 42 0 13 0;
#X connect 43 0 15 0;
#X connect 44 0 43 0;
#X connect 45 0 44 0;
#X coords 0 -1 1 1 105 15 2 120 120;
