#N canvas 119 22 1440 756 10;
#X obj 172 279 cnv 15 280 250 empty empty empty 20 12 0 14 -262130
-66577 0;
#X msg 278 296 stop;
#X msg 197 314 start;
#X msg 230 413 1;
#X obj 295 438 s \$0_is_loop_recorded;
#X obj 304 487 s \$0_is_loop_playing;
#X obj 331 464 s \$0_contrainst;
#X obj 230 367 t b a;
#X obj 31 31 cnv 15 130 498 empty empty PEDALE 14 14 0 28 -170864 -66577
0;
#X text 377 298 TEMPO;
#X obj 669 -49 cnv 15 200 650 empty empty empty 20 12 0 14 -233017
-66577 0;
#X obj 765 313 * 44.1;
#X obj 669 348 pack 0 f;
#X floatatom 778 341 10 0 0 0 - - -;
#X floatatom 700 285 5 0 0 0 - - -;
#X obj 669 158 mod \$1;
#X obj 669 106 f;
#X obj 703 107 + 1;
#X obj 669 63 bng 15 250 50 0 empty empty empty 17 7 0 10 -262144 -1
-1;
#X floatatom 669 135 5 0 0 0 - - -;
#X obj 669 181 select 0;
#X obj 669 208 bng 35 250 50 0 empty empty empty 17 7 0 10 -262144
-1 -1;
#X obj 875 12 cnv 15 100 120 empty empty empty 20 12 0 14 -233017 -66577
0;
#X text 893 79 Kill;
#X obj 872 27 r \$0_is_loop_playing;
#X obj 765 286 r \$0_timer;
#X obj 767 108 r \$0_loop_size;
#X msg 697 375 stop;
#X obj 669 261 i 0;
#X obj 669 310 select 1 0;
#X obj 872 80 bng 15 250 50 0 empty empty empty 17 7 0 10 -262144 -1
-1;
#X text 734 6 PLAY LOOP;
#X obj 251 268 sel 1;
#X obj 356 331 bng 15 250 50 0 empty empty empty 17 7 0 10 -262144
-1 -1;
#X obj 413 331 bng 15 250 50 0 empty empty empty 17 7 0 10 -262144
-1 -1;
#X obj 668 24 r tempo_click;
#X obj 257 415 tabwrite~ \$0-simple_looper1;
#X obj 669 403 tabplay~ \$0-simple_looper1;
#X obj 44 283 tgl 15 0 empty \$0_contrainst enregistrement 17 7 0 10
-99865 -1 -1 1 1;
#X floatatom 79 306 5 0 0 0 Taille #0_loop_size -;
#X obj 561 252 i 0;
#X text 460 269 smth is already recorded;
#X text 308 278 write 1st loop;
#X obj 452 284 cnv 15 210 320 empty empty write_other_loop 20 12 0
14 -204800 -66577 0;
#X msg 479 430 start;
#X obj 561 282 sel 1;
#X msg 520 430 stop;
#N canvas 1 56 450 250 (subpatch) 0;
#X array \$0-simple_looper1 600000 float 2;
#X coords 0 250 1 249 200 140 0;
#X restore 803 -72 graph;
#X msg 545 471 0;
#X obj 545 506 s \$0-force-stop;
#X obj 520 406 del;
#X obj 535 383 r \$0_timer;
#X obj 2 -91 r \$0-force-stop;
#X obj 33 141 bng 40 250 50 0 empty empty empty 17 7 0 10 -258113 -1
-1;
#X msg -129 280 -1;
#X obj -128 303 s \$0_is_loop_playing;
#X obj 562 313 bng 15 250 50 0 empty empty empty 17 7 0 10 -262144
-1 -1;
#X obj 32 -22 bng 15 250 50 0 empty empty empty 17 7 0 10 -262144 -1
-1;
#X obj 715 236 r \$0_is_loop_playing;
#X obj 872 55 sel -1;
#X obj 772 25 r reset_tempo;
#X obj -113 -61 s~ \$0-input;
#X obj 291 369 r~ \$0-input;
#X obj 540 526 r~ \$0-input;
#X obj 65 332 vsl 15 30 0 120 0 0 \$0-loopDry empty direct -9 38 0
10 -262144 -1 -1 0 1;
#X obj -113 -89 r~ input_audio1;
#X obj 502 582 tabwrite~ \$0-simple_looper1;
#X obj 540 550 +~;
#N canvas 332 134 570 598 toTempo 0;
#X obj 96 301 timer;
#X obj 133 326 s \$0_timer;
#X floatatom 69 414 5 0 0 0 - - -;
#X obj 42 785 /;
#X obj 123 462 log;
#X obj 123 551 i;
#X obj 123 501 / 0.693147;
#X floatatom 123 528 5 0 0 0 - - -;
#X floatatom 123 582 5 0 0 0 - - -;
#X obj 114 668 pow;
#X msg 102 640 2;
#X floatatom 114 693 5 0 0 0 - - -;
#X obj 115 741 s \$0_loop_size;
#X obj 102 607 t b f;
#X text 75 821 ici la véritable valeur du tempo;
#X obj 81 865 s tempoValue;
#X floatatom 97 359 5 0 0 0 - - -;
#X obj 42 348 t f f;
#X obj 69 385 / 400;
#X obj 42 915 s tempoGoIn;
#X obj 116 840 bng 15 250 50 0 empty empty empty 17 7 0 10 -262144
-1 -1;
#X obj 96 227 inlet;
#X obj 123 249 inlet;
#X obj 42 828 t b b f;
#X obj 62 890 s reset_tempo;
#X connect 0 0 1 0;
#X connect 0 0 16 0;
#X connect 0 0 17 0;
#X connect 2 0 4 0;
#X connect 3 0 23 0;
#X connect 4 0 6 0;
#X connect 5 0 8 0;
#X connect 6 0 7 0;
#X connect 7 0 5 0;
#X connect 8 0 13 0;
#X connect 9 0 11 0;
#X connect 10 0 9 0;
#X connect 11 0 3 1;
#X connect 11 0 12 0;
#X connect 13 0 10 0;
#X connect 13 1 9 1;
#X connect 17 0 3 0;
#X connect 17 1 18 0;
#X connect 18 0 2 0;
#X connect 21 0 0 0;
#X connect 22 0 0 1;
#X connect 23 0 19 0;
#X connect 23 1 20 0;
#X connect 23 1 24 0;
#X connect 23 2 15 0;
#X restore 356 351 pd toTempo;
#N canvas 727 208 450 300 kill 0;
#X obj 335 -169 s \$0_is_loop_deleted;
#X msg 313 -205 0;
#X obj 308 -140 s \$0_contrainst;
#X obj 0 -169 pack \$0;
#X msg 0 -145 \; \$1-simple_looper1 read empty.txt;
#X obj 215 -138 s tempoStopIn;
#X obj 100 -255 inlet;
#X connect 1 0 0 0;
#X connect 1 0 2 0;
#X connect 3 0 4 0;
#X connect 6 0 1 0;
#X connect 6 0 5 0;
#X connect 6 0 3 0;
#X restore 872 112 pd kill;
#N canvas 620 117 665 368 drywet 0;
#X obj -26 158 +~;
#X obj -11 112 *~ 2;
#X obj 67 83 / 100;
#X obj -11 -16 inlet~;
#X obj -124 226 outlet~;
#X obj 67 18 r \$0-volume;
#X obj 164 18 r \$0-effect1;
#X obj 164 45 / 100;
#X obj 164 72 *~ 1;
#X obj 319 48 / 100;
#X obj 319 75 *~ 1;
#X obj 319 21 r \$0-effect2;
#X obj 479 48 / 100;
#X obj 479 75 *~ 1;
#X obj 479 21 r \$0-effect3;
#X obj 165 217 s~ to_effect1-looper;
#X obj 320 218 s~ to_effect2-looper;
#X obj 481 217 s~ to_effect3-looper;
#X obj 15 222 s~ to_master-looper;
#X connect 0 0 18 0;
#X connect 1 0 0 1;
#X connect 1 0 4 0;
#X connect 2 0 1 1;
#X connect 3 0 1 0;
#X connect 3 0 8 0;
#X connect 3 0 10 0;
#X connect 3 0 13 0;
#X connect 5 0 2 0;
#X connect 6 0 7 0;
#X connect 7 0 8 1;
#X connect 8 0 15 0;
#X connect 9 0 10 1;
#X connect 10 0 16 0;
#X connect 11 0 9 0;
#X connect 12 0 13 1;
#X connect 13 0 17 0;
#X connect 14 0 12 0;
#X restore 669 431 pd drywet;
#N canvas 591 144 412 323 switch-1st-time 0;
#X obj -3205 20 t b f;
#X obj -3205 89 i 0;
#X obj -3205 164 i 0;
#X obj -3205 113 sel 0;
#X obj -3205 139 bng 15 250 50 0 empty empty empty 17 7 0 10 -262144
-1 -1;
#X obj -3190 62 r \$0_contrainst;
#X obj -3115 160 i 0;
#X obj -3115 137 bng 15 250 50 0 empty empty empty 17 7 0 10 -262144
-1 -1;
#X obj -3205 190 outlet;
#X obj -3115 189 outlet;
#X obj -3206 -11 inlet;
#X text -3265 136 1st time;
#X text -3090 134 other time;
#X connect 0 0 1 0;
#X connect 0 1 2 1;
#X connect 0 1 6 1;
#X connect 1 0 3 0;
#X connect 2 0 8 0;
#X connect 3 0 4 0;
#X connect 3 1 7 0;
#X connect 4 0 2 0;
#X connect 5 0 1 1;
#X connect 6 0 9 0;
#X connect 7 0 6 0;
#X connect 10 0 0 0;
#X restore 378 209 pd switch-1st-time;
#X obj 378 180 r \$0-fromRec;
#X obj 32 88 tgl 40 0 \$0-fromRec empty rec 12 20 0 10 -1 -262144 -262144
0 1;
#X obj 40 61 cnv 15 40 16 empty empty DE 6 6 0 20 -170864 -66577 0
;
#X obj 70 61 cnv 15 80 16 empty empty BOUCLE 6 6 0 20 -170864 -66577
0;
#X obj 46 256 hsl 100 15 0 1 0 0 empty empty empty -2 -8 0 10 -75163
-262144 -1 0 1;
#N canvas 791 317 450 300 Vslider 0;
#X floatatom 38 33 5 0 0 0 - - -;
#X obj 83 39 r \$0_loop_size;
#X obj 64 67 /;
#X obj 35 11 inlet;
#X obj 59 129 s \$0-vslider;
#X connect 0 0 2 0;
#X connect 1 0 2 1;
#X connect 2 0 4 0;
#X connect 3 0 0 0;
#X restore 586 186 pd Vslider;
#X obj -64 203 r \$0-vslider;
#X obj 77 88 cnv 12 82 12 empty empty Enregistrer 4 6 0 12 -33289 -262144
0;
#X obj 75 141 cnv 12 82 12 empty empty Effacer 4 6 0 12 -33289 -262144
0;
#N canvas 555 183 693 455 volume-effect 0;
#X obj 104 115 vsl 50 100 0 200 0 0 empty empty volume 5 12 0 10 -86735
-262144 -262144 7400 1;
#X obj 104 233 s \$0-volume;
#X obj 165 165 vsl 14 50 0 120 0 0 empty empty 1 5 14 0 10 -86735 -262144
-262144 0 1;
#X obj 164 148 cnv 12 48 12 empty empty Effets 4 6 0 12 -33289 -262144
0;
#X obj 181 165 vsl 14 50 0 120 0 0 empty empty 2 5 14 0 10 -86735 -262144
-262144 4200 1;
#X obj 197 165 vsl 14 50 0 120 0 0 empty empty 3 5 14 0 10 -86735 -262144
-262144 0 1;
#X obj 165 254 s \$0-effect1;
#X obj 181 276 s \$0-effect2;
#X obj 197 298 s \$0-effect3;
#X obj -8 20 ../save/save-int-separate \$1-looper_volume;
#X obj 239 47 ../save/save-int-separate \$1-looper-effect1;
#X obj 240 86 ../save/save-int-separate \$1-looper-effect2;
#X obj 240 111 ../save/save-int-separate \$1-looper-effect3;
#X connect 0 0 1 0;
#X connect 0 0 9 0;
#X connect 2 0 6 0;
#X connect 2 0 10 0;
#X connect 4 0 7 0;
#X connect 4 0 11 0;
#X connect 5 0 8 0;
#X connect 5 0 12 0;
#X connect 9 0 0 0;
#X connect 10 0 2 0;
#X connect 11 0 4 0;
#X connect 12 0 5 0;
#X coords 0 -1 1 1 120 120 2 100 100;
#X restore 37 409 pd volume-effect;
#X msg 772 72 0;
#X obj 77 102 ../extra/digital_receive looperrec;
#X obj 245 119 s \$0-rec;
#X obj 269 -99 r \$0-rec;
#X obj 75 154 ../extra/digital_receive looperdel;
#X obj 202 201 s \$0-del;
#X obj -92 91 r \$0-del;
#X obj 269 -69 sel 1;
#X connect 1 0 7 0;
#X connect 1 0 34 0;
#X connect 2 0 33 0;
#X connect 2 0 36 0;
#X connect 3 0 4 0;
#X connect 3 0 5 0;
#X connect 3 0 6 0;
#X connect 7 0 3 0;
#X connect 7 1 36 0;
#X connect 11 0 12 1;
#X connect 11 0 13 0;
#X connect 12 0 37 0;
#X connect 15 0 20 0;
#X connect 15 0 77 0;
#X connect 16 0 17 0;
#X connect 16 0 19 0;
#X connect 17 0 16 1;
#X connect 18 0 16 0;
#X connect 19 0 15 0;
#X connect 20 0 21 0;
#X connect 21 0 28 0;
#X connect 21 0 40 0;
#X connect 24 0 59 0;
#X connect 25 0 11 0;
#X connect 26 0 15 1;
#X connect 27 0 37 0;
#X connect 28 0 14 0;
#X connect 28 0 29 0;
#X connect 29 0 12 0;
#X connect 29 1 27 0;
#X connect 30 0 27 0;
#X connect 30 0 69 0;
#X connect 32 0 2 0;
#X connect 32 1 1 0;
#X connect 33 0 68 0;
#X connect 34 0 68 1;
#X connect 35 0 18 0;
#X connect 37 0 70 0;
#X connect 40 0 45 0;
#X connect 44 0 66 0;
#X connect 45 0 44 0;
#X connect 45 0 56 0;
#X connect 46 0 48 0;
#X connect 46 0 66 0;
#X connect 48 0 49 0;
#X connect 50 0 46 0;
#X connect 51 0 50 1;
#X connect 52 0 73 0;
#X connect 53 0 54 0;
#X connect 54 0 55 0;
#X connect 56 0 50 0;
#X connect 57 0 73 0;
#X connect 58 0 28 1;
#X connect 59 0 30 0;
#X connect 60 0 82 0;
#X connect 62 0 36 0;
#X connect 63 0 67 0;
#X connect 65 0 61 0;
#X connect 67 0 66 0;
#X connect 70 0 67 1;
#X connect 71 0 32 0;
#X connect 71 1 40 1;
#X connect 72 0 71 0;
#X connect 78 0 76 0;
#X connect 82 0 16 1;
#X connect 83 0 84 0;
#X connect 85 0 89 0;
#X connect 86 0 87 0;
#X connect 88 0 53 0;
#X connect 89 0 57 0;
#X coords 0 -1 1 1 132 500 2 30 30;
