#N canvas 463 67 1112 728 12;
#X obj 6 529 hip~ 5;
#X obj 7 476 *~;
#X obj 7 378 +~;
#X obj 6 330 samphold~;
#X obj 7 354 *~;
#X obj 172 409 -~ 0.5;
#X obj 172 433 *~ 0.5;
#X obj 172 456 cos~;
#N canvas 738 380 769 271 table 0;
#X obj 45 2 adc~ 1;
#X obj 45 69 hip~ 5;
#X msg 60 91 bang;
#X text 101 91 <-- record;
#X obj 45 118 tabwrite~ \$1-loop;
#N canvas 0 50 450 300 (subpatch) 0;
#X array \$1-loop 270000 float 0;
#X coords 0 300 1 299 200 130 0;
#X restore -144 60 graph;
#X connect 1 0 4 0;
#X connect 2 0 4 0;
#X restore -102 426 pd table;
#X obj 6 505 +~;
#X obj 7 402 *~ 44100;
#X obj 6 305 r chunk-size;
#X obj 6 428 +~ 1;
#X obj 258 485 *~;
#X obj 258 387 +~;
#X obj 257 339 samphold~;
#X obj 258 363 *~;
#X obj 423 418 -~ 0.5;
#X obj 423 442 *~ 0.5;
#X obj 423 465 cos~;
#X obj 258 411 *~ 44100;
#X obj 257 314 r chunk-size;
#X obj 257 437 +~ 1;
#X text 192 271 TIME COMPRESSION/EXPANSION BY LOOPED SAMPLING;
#X obj 6 737 *~ 1;
#X obj 460 531 r tempoGoOut;
#X obj 355 531 r tempoStopOut;
#X obj -249 31 cnv 15 130 498 empty empty BOUCLE 14 23 0 28 -244370
-66577 0;
#X obj -197 101 cnv 12 65 12 empty empty Lecture 4 6 0 12 -33289 -262144
0;
#X obj -720 -70 r loop_num-\$1-out;
#X obj -631 703 readsf~;
#X obj -662 513 t b s;
#X msg -673 665 start;
#X obj 7 452 tabread4~ \$1-loop;
#X obj 258 461 tabread4~ \$1-loop;
#X msg -626 664 open \$1;
#X obj -540 694 print loop;
#X obj -760 553 s isTempoPlayingIn;
#X obj -763 593 r isTempoPlayingOut;
#X obj -763 620 sel 0;
#X obj 42 355 r~ \$1-phase;
#X obj 94 331 r~ \$1-phase;
#X obj 345 340 r~ \$1-phase2;
#X obj 293 364 r~ \$1-phase2;
#X obj 423 394 r~ \$1-phase2;
#X obj 172 385 r~ \$1-phase;
#X obj -247 106 tgl 42 0 \$0-read_loopOUT \$0-read_loopIN go! 14 20
0 10 -1 -262144 -262144 0 1;
#X obj -11 236 r~ tempoPhaser;
#X obj 149 268 *~ 1;
#X obj 173 226 tgl 15 0 empty \$0-read_loopOUT empty 17 7 0 10 -262144
-1 -1 0 1;
#X obj -123 -53 bng 15 250 50 0 empty empty empty 17 7 0 10 -262144
-1 -1;
#X obj -104 -99 sel 0;
#X obj 196 526 r \$0-read_loopOUT;
#X obj 281 679 &&;
#X obj 281 707 sel 1;
#X msg 281 734 1;
#X msg 319 733 0;
#X msg 355 556 0;
#X msg 460 558 1;
#X obj 354 598 t b f;
#X obj 214 599 t b f;
#X obj -720 -42 + 1;
#X obj -767 38 - 1;
#X obj -545 428 soundfiler;
#X obj -546 337 pack s \$1;
#X msg -546 306 ../samples/loop/\$2/\$1.wav;
#X msg -545 402 read \$1 \$2-loop;
#X obj -628 359 t l l;
#X obj -629 410 unpack s f;
#X obj -767 67 s loop_num-\$1-in;
#X obj -767 14 ../save/save-int-separate \$1-read_loop_num;
#X obj 354 643 i 1;
#X obj 216 647 i 0;
#X obj -158 -153 route bang float;
#X floatatom 55 82 4 0 100 0 - - -;
#X obj 55 125 s chunk-size;
#X floatatom 270 -47 0 0 0 0 - - -;
#X obj 281 0 r chunk-size;
#X obj 281 25 t b f;
#X obj 269 105 phasor~;
#X obj 356 124 +~ 0.5;
#X obj 357 150 wrap~;
#X text 303 -36 <-- transposition \, halftones/10;
#X obj 55 102 * 0.001;
#X floatatom 277 82 5 0 0 0 - - -;
#X obj 394 24 t b f;
#X obj 394 -1 r precession;
#X obj 269 57 expr (pow(2 \, $f1/120)-$f3)/$f2;
#X obj 269 131 s~ \$1-phase;
#X obj 357 175 s~ \$1-phase2;
#X text 90 82 msec;
#X msg 134 59 1;
#X obj 134 84 s \$0-read_loopIN;
#X obj 271 -85 r transpose;
#X text 64 -28 fake loadbang;
#X obj 43 -5 r \$1-load;
#X obj 55 28 bang;
#X obj 115 -6 loadbang;
#X obj 6 -146 * 0.0352;
#X obj 6 -114 i 0;
#X obj 6 -51 s loop_num-\$1-in;
#X obj -197 116 ../extra/digital_receive loop-\$1;
#X obj -158 -179 r \$0-play;
#X obj -327 193 s \$0-play;
#X obj -242 223 vradio 23 1 0 8 loop_num-\$1-out loop_num-\$1-in empty
0 -8 0 10 -66577 -262144 -1 4;
#X obj -214 225 cnv 15 35 18 empty empty 1 12 9 0 14 -66577 -262144
0;
#X obj -214 249 cnv 15 35 18 empty empty 2 12 9 0 14 -66577 -262144
0;
#X obj -214 273 cnv 15 35 18 empty empty 3 12 9 0 14 -66577 -262144
0;
#X obj -214 296 cnv 15 35 18 empty empty 4 12 9 0 14 -66577 -262144
0;
#X obj -214 319 cnv 15 35 18 empty empty 5 12 9 0 14 -66577 -262144
0;
#X obj -214 342 cnv 15 35 18 empty empty 6 12 9 0 14 -66577 -262144
0;
#X obj -214 365 cnv 15 35 18 empty empty 7 12 9 0 14 -66577 -262144
0;
#X obj -214 387 cnv 15 35 18 empty empty 8 12 9 0 14 -66577 -262144
0;
#X obj -161 192 ../extra/analog_receive \$1-numLoop;
#X obj 6 -179 r \$0-loopNum;
#X obj -369 262 s \$0-loopNum;
#X obj -245 193 cnv 12 80 14 empty empty Numero 4 6 0 12 -33289 -262144
0;
#N canvas 546 259 693 455 volume-effect 0;
#X obj 111 103 vsl 50 95 0 200 0 0 empty empty volume 5 12 0 10 -86735
-262144 -262144 6300 0;
#X obj 14 250 s \$0-volume;
#X obj 172 148 vsl 36 50 0 120 0 0 empty empty delay 3 14 0 10 -86735
-262144 -262144 0 0;
#X obj 170 130 cnv 12 48 12 empty empty Effets 4 6 0 12 -33289 -262144
0;
#X obj 272 201 s \$0-effect1;
#X obj -5 15 ../save/save-int-separate \$1-loop_volume;
#X obj 291 47 ../save/save-int-separate \$1-loop-effect1;
#X obj 102 103 vsl 8 95 0 127 0 0 empty empty empty 0 -9 0 10 -228856
-159808 -1 0 1;
#X obj -77 63 r \$0-vumetre;
#X obj 121 245 / 255;
#X obj 120 282 * 200;
#X obj 184 243 / 255;
#X obj 184 280 * 120;
#X obj 114 203 ../extra/analog_receive \$1-loop-volume;
#X obj 172 203 ../extra/analog_receive \$1-loop-effect1;
#X connect 0 0 1 0;
#X connect 0 0 5 0;
#X connect 2 0 4 0;
#X connect 2 0 6 0;
#X connect 5 0 0 0;
#X connect 6 0 2 0;
#X connect 8 0 7 0;
#X connect 9 0 10 0;
#X connect 10 0 0 0;
#X connect 11 0 12 0;
#X connect 12 0 2 0;
#X connect 13 0 9 0;
#X connect 14 0 11 0;
#X coords 0 -1 1 1 120 120 2 100 100;
#X restore -247 410 pd volume-effect;
#N canvas 621 262 531 322 ouput-effect 0;
#X obj -71 151 r \$0-volume;
#X obj -71 175 / 100;
#X obj -92 202 *~ 1;
#X obj 63 151 r \$0-effect1;
#X obj 63 178 / 100;
#X obj 63 205 *~ 1;
#X obj -71 24 inlet~;
#X obj 218 181 / 100;
#X obj 218 208 *~ 1;
#X obj 218 154 r \$0-effect2;
#X obj 378 181 / 100;
#X obj 378 208 *~ 1;
#X obj 378 154 r \$0-effect3;
#X obj -92 251 s~ to_master-loop\$1;
#X obj 63 254 s~ to_effect1-loop\$1;
#X obj 218 255 s~ to_effect2-loop\$1;
#X obj 379 254 s~ to_effect3-loop\$1;
#X connect 0 0 1 0;
#X connect 1 0 2 1;
#X connect 2 0 13 0;
#X connect 3 0 4 0;
#X connect 4 0 5 1;
#X connect 5 0 14 0;
#X connect 6 0 2 0;
#X connect 6 0 5 0;
#X connect 6 0 8 0;
#X connect 6 0 11 0;
#X connect 7 0 8 1;
#X connect 8 0 15 0;
#X connect 9 0 7 0;
#X connect 10 0 11 1;
#X connect 11 0 16 0;
#X connect 12 0 10 0;
#X restore 7 776 pd ouput-effect;
#X msg 55 60 40;
#X obj -552 94 r \$0-read_loopOUT;
#X obj -550 152 sel 1;
#X obj 145 813 s \$0-vumetre;
#X obj -240 72 cnv 15 100 20 empty \$0-name batterie 4 10 0 20 -244370
-66577 0;
#X obj 144 773 env~ 2048;
#X msg -555 665 stop;
#X obj -555 631 r tempoGoOutBang;
#X obj -442 -170 loadbang;
#X obj -442 -139 i \$1;
#X obj -442 -105 sel 1 2 3;
#X msg -458 -73 batterie;
#X msg -383 -74 accords;
#X msg -316 -74 melodies;
#X obj -431 -40 symbol;
#X msg -434 -5 label \$1;
#X obj -431 32 s \$0-name;
#X obj -547 264 pack 1 \$1;
#X obj -197 134 ../extra/digital_send loop-\$1;
#X obj -99 108 r \$0-read_loopOUT;
#X obj 4 -84 change;
#X obj -432 620 r \$0-read_loopOUT;
#X obj -432 650 sel 0;
#X connect 0 0 24 0;
#X connect 1 0 9 0;
#X connect 2 0 10 0;
#X connect 3 0 4 0;
#X connect 4 0 2 0;
#X connect 5 0 6 0;
#X connect 6 0 7 0;
#X connect 7 0 1 1;
#X connect 9 0 0 0;
#X connect 10 0 12 0;
#X connect 11 0 3 0;
#X connect 12 0 33 0;
#X connect 13 0 9 1;
#X connect 14 0 20 0;
#X connect 15 0 16 0;
#X connect 16 0 14 0;
#X connect 17 0 18 0;
#X connect 18 0 19 0;
#X connect 19 0 13 1;
#X connect 20 0 22 0;
#X connect 21 0 15 0;
#X connect 22 0 34 0;
#X connect 24 0 118 0;
#X connect 24 0 124 0;
#X connect 25 0 58 0;
#X connect 26 0 57 0;
#X connect 29 0 61 0;
#X connect 30 0 118 0;
#X connect 31 0 37 0;
#X connect 31 1 35 0;
#X connect 32 0 30 0;
#X connect 33 0 1 0;
#X connect 34 0 13 0;
#X connect 35 0 30 0;
#X connect 35 0 36 0;
#X connect 38 0 39 0;
#X connect 39 0 32 0;
#X connect 40 0 4 1;
#X connect 41 0 3 1;
#X connect 42 0 15 1;
#X connect 43 0 16 1;
#X connect 44 0 17 0;
#X connect 45 0 5 0;
#X connect 47 0 48 0;
#X connect 48 0 2 1;
#X connect 48 0 14 1;
#X connect 49 0 48 1;
#X connect 50 0 46 0;
#X connect 51 1 50 0;
#X connect 52 0 60 0;
#X connect 52 0 71 1;
#X connect 53 0 54 0;
#X connect 54 0 55 0;
#X connect 54 1 56 0;
#X connect 55 0 24 1;
#X connect 56 0 24 1;
#X connect 57 0 59 0;
#X connect 57 0 72 1;
#X connect 58 0 59 0;
#X connect 58 0 72 1;
#X connect 59 0 71 0;
#X connect 59 1 53 1;
#X connect 60 0 72 0;
#X connect 60 1 53 1;
#X connect 61 0 136 0;
#X connect 61 0 70 0;
#X connect 62 0 69 0;
#X connect 64 0 67 0;
#X connect 65 0 64 0;
#X connect 66 0 63 0;
#X connect 67 0 68 0;
#X connect 67 1 66 0;
#X connect 68 0 31 0;
#X connect 70 0 62 0;
#X connect 71 0 53 0;
#X connect 72 0 53 0;
#X connect 73 0 50 0;
#X connect 73 1 51 0;
#X connect 74 0 83 0;
#X connect 76 0 87 0;
#X connect 77 0 78 0;
#X connect 78 0 87 0;
#X connect 78 1 87 1;
#X connect 79 0 80 0;
#X connect 79 0 88 0;
#X connect 80 0 81 0;
#X connect 81 0 89 0;
#X connect 83 0 75 0;
#X connect 85 0 87 0;
#X connect 85 1 87 2;
#X connect 86 0 85 0;
#X connect 87 0 79 0;
#X connect 87 0 84 0;
#X connect 91 0 92 0;
#X connect 93 0 76 0;
#X connect 95 0 96 0;
#X connect 96 0 119 0;
#X connect 96 0 91 0;
#X connect 97 0 96 0;
#X connect 98 0 99 0;
#X connect 99 0 139 0;
#X connect 101 0 103 0;
#X connect 102 0 73 0;
#X connect 113 0 115 0;
#X connect 114 0 98 0;
#X connect 119 0 74 0;
#X connect 120 0 121 0;
#X connect 121 0 136 0;
#X connect 124 0 122 0;
#X connect 125 0 30 0;
#X connect 126 0 125 0;
#X connect 127 0 128 0;
#X connect 128 0 129 0;
#X connect 129 0 130 0;
#X connect 129 1 131 0;
#X connect 129 2 132 0;
#X connect 130 0 133 0;
#X connect 131 0 133 0;
#X connect 132 0 133 0;
#X connect 133 0 134 0;
#X connect 134 0 135 0;
#X connect 136 0 65 0;
#X connect 138 0 137 0;
#X connect 139 0 100 0;
#X connect 140 0 141 0;
#X connect 141 0 125 0;
#X coords 0 -1 1 1 132 500 2 -250 30;
