#N canvas 210 40 1141 785 12;
#X obj 6 529 hip~ 5;
#X obj 7 476 *~;
#X obj 7 378 +~;
#X obj 6 330 samphold~;
#X obj 7 354 *~;
#X obj 172 409 -~ 0.5;
#X obj 172 433 *~ 0.5;
#X obj 172 456 cos~;
#N canvas 738 380 769 271 table 0;
#X obj 45 2 adc~ 1;
#X obj 45 69 hip~ 5;
#X msg 60 91 bang;
#X text 101 91 <-- record;
#X obj 45 152 print;
#X obj 45 118 tabwrite~ \$1-loop;
#N canvas 0 50 450 300 (subpatch) 0;
#X array \$1-loop 270000 float 0;
#X coords 0 300 1 299 200 130 0;
#X restore -144 60 graph;
#X connect 1 0 5 0;
#X connect 2 0 5 0;
#X restore -153 402 pd table;
#X obj 6 505 +~;
#X obj 7 402 *~ 44100;
#X obj 6 305 r chunk-size;
#X obj 6 428 +~ 1;
#X obj 258 485 *~;
#X obj 258 387 +~;
#X obj 257 339 samphold~;
#X obj 258 363 *~;
#X obj 423 418 -~ 0.5;
#X obj 423 442 *~ 0.5;
#X obj 423 465 cos~;
#X obj 258 411 *~ 44100;
#X obj 257 314 r chunk-size;
#X obj 257 437 +~ 1;
#X text 192 271 TIME COMPRESSION/EXPANSION BY LOOPED SAMPLING;
#X obj 6 737 *~ 1;
#X obj 460 531 r tempoGoOut;
#X obj 355 531 r tempoStopOut;
#X obj -99 33 cnv 15 139 135 empty empty LIRE_UNE_BOUCLE 18 23 0 14
-161610 -262144 0;
#X obj -100 160 cnv 12 40 12 empty empty son 10 5 0 12 -4160 -1 0;
#X obj -100 33 cnv 12 70 12 empty empty play/stop 4 6 0 12 -204786
-1 0;
#X obj -89 88 hradio 14 1 0 8 loop_bank-\$1-out loop_bank-\$1-in banque_de_loop
0 -6 0 10 -33289 -262144 -262144 0;
#X obj -89 117 hradio 14 1 0 8 loop_num-\$1-out loop_num-\$1-in numero_du_loop
0 -6 0 10 -33289 -262144 -262144 4;
#X obj -465 -76 r loop_bank-\$1-out;
#X obj -720 -70 r loop_num-\$1-out;
#X obj -631 703 readsf~;
#X obj -662 513 t b s;
#X msg -673 665 start;
#X obj 7 452 tabread4~ \$1-loop;
#X obj 258 461 tabread4~ \$1-loop;
#X msg -626 664 open \$1;
#X obj -540 694 print loop;
#X obj -760 553 s isTempoPlayingIn;
#X obj -763 593 r isTempoPlayingOut;
#X obj -763 620 sel 0;
#X obj 42 355 r~ \$1-phase;
#X obj 94 331 r~ \$1-phase;
#X obj 345 340 r~ \$1-phase2;
#X obj 293 364 r~ \$1-phase2;
#X obj 423 394 r~ \$1-phase2;
#X obj 172 385 r~ \$1-phase;
#X obj -54 160 hsl 90 12 1 180 0 0 empty empty volume 8 6 0 10 -252744
-1 -1 7657 1;
#X obj -97 51 tgl 12 0 \$0-read_loopOUT \$0-read_loopIN empty 17 7
0 10 -1 -262144 -1 1 1;
#X obj -11 236 r~ tempoPhaser;
#X obj 149 268 *~ 1;
#X obj 173 226 tgl 15 0 empty \$0-read_loopOUT empty 17 7 0 10 -262144
-1 -1 1 1;
#X obj -158 -179 inlet;
#X obj -123 -53 bng 15 250 50 0 empty empty empty 17 7 0 10 -262144
-1 -1;
#X obj -104 -99 sel 0;
#X obj 196 526 r \$0-read_loopOUT;
#X obj 281 679 &&;
#X obj 281 707 sel 1;
#X msg 281 734 1;
#X msg 319 733 0;
#X msg 355 556 0;
#X msg 460 558 1;
#X obj 354 598 t b f;
#X obj 214 599 t b f;
#X obj -720 -42 + 1;
#X obj -767 38 - 1;
#X obj -465 -49 + 1;
#X obj -463 37 - 1;
#X obj -545 428 soundfiler;
#X obj -546 337 pack s \$1;
#X obj -547 264 pack 1 1;
#X msg -546 306 ../samples/loop/\$2/\$1.wav;
#X msg -545 402 read \$1 \$2-loop;
#X obj -628 359 t l l;
#X obj -697 398 unpack s f;
#X obj -526 168 t b f;
#X obj -767 67 s loop_num-\$1-in;
#X obj -767 14 ../save/save-int-separate \$1-read_loop_num;
#X obj -463 15 ../save/save-int-separate \$1-1read_loop_bank;
#X obj -463 61 s loop_bank-\$1-in;
#X obj 354 643 i 1;
#X obj 216 647 i 0;
#X obj -158 -153 route bang float;
#X floatatom 55 82 4 0 100 0 - - -;
#X obj 55 125 s chunk-size;
#X floatatom 270 -47 0 0 0 0 - - -;
#X obj 281 0 r chunk-size;
#X obj 281 25 t b f;
#X obj 269 105 phasor~;
#X obj 356 124 +~ 0.5;
#X obj 357 150 wrap~;
#X text 303 -36 <-- transposition \, halftones/10;
#X obj 55 102 * 0.001;
#X floatatom 277 82 5 0 0 0 - - -;
#X obj 394 24 t b f;
#X obj 394 -1 r precession;
#X obj 269 57 expr (pow(2 \, $f1/120)-$f3)/$f2;
#X msg 55 60 41;
#X obj 269 131 s~ \$1-phase;
#X obj 357 175 s~ \$1-phase2;
#X text 90 82 msec;
#X msg 134 59 1;
#X obj 134 84 s \$0-read_loopIN;
#X obj 271 -85 r transpose;
#X obj 7 778 *~ 1;
#X obj 7 813 outlet~;
#X obj -51 190 ../save/save-int-separate \$1-1read_loop_volume;
#X obj -74 265 s \$0-volume;
#X obj 53 663 r \$0-volume;
#X obj 52 695 / 100;
#X text 64 -28 fake loadbang;
#X obj 43 -5 r \$1-load;
#X obj 55 28 bang;
#X obj 115 -6 loadbang;
#X obj 6 -179 inlet;
#X obj 6 -146 * 0.0352;
#X obj 6 -114 i 0;
#X obj 4 -81 s loop_num-\$1-in;
#X connect 0 0 24 0;
#X connect 1 0 9 0;
#X connect 2 0 10 0;
#X connect 3 0 4 0;
#X connect 4 0 2 0;
#X connect 5 0 6 0;
#X connect 6 0 7 0;
#X connect 7 0 1 1;
#X connect 9 0 0 0;
#X connect 10 0 12 0;
#X connect 11 0 3 0;
#X connect 12 0 37 0;
#X connect 13 0 9 1;
#X connect 14 0 20 0;
#X connect 15 0 16 0;
#X connect 16 0 14 0;
#X connect 17 0 18 0;
#X connect 18 0 19 0;
#X connect 19 0 13 1;
#X connect 20 0 22 0;
#X connect 21 0 15 0;
#X connect 22 0 38 0;
#X connect 24 0 107 0;
#X connect 25 0 64 0;
#X connect 26 0 63 0;
#X connect 32 0 69 0;
#X connect 33 0 67 0;
#X connect 34 0 107 0;
#X connect 35 0 41 0;
#X connect 35 1 39 0;
#X connect 36 0 34 0;
#X connect 37 0 1 0;
#X connect 38 0 13 0;
#X connect 39 0 34 0;
#X connect 39 0 40 0;
#X connect 42 0 43 0;
#X connect 43 0 36 0;
#X connect 44 0 4 1;
#X connect 45 0 3 1;
#X connect 46 0 15 1;
#X connect 47 0 16 1;
#X connect 48 0 17 0;
#X connect 49 0 5 0;
#X connect 50 0 109 0;
#X connect 50 0 110 0;
#X connect 52 0 53 0;
#X connect 53 0 2 1;
#X connect 53 0 14 1;
#X connect 54 0 53 1;
#X connect 55 0 85 0;
#X connect 56 0 51 0;
#X connect 57 1 56 0;
#X connect 58 0 66 0;
#X connect 58 0 83 1;
#X connect 59 0 60 0;
#X connect 60 0 61 0;
#X connect 60 1 62 0;
#X connect 61 0 24 1;
#X connect 62 0 24 1;
#X connect 63 0 65 0;
#X connect 63 0 84 1;
#X connect 64 0 65 0;
#X connect 64 0 84 1;
#X connect 65 0 83 0;
#X connect 65 1 59 1;
#X connect 66 0 84 0;
#X connect 66 1 59 1;
#X connect 67 0 73 0;
#X connect 67 0 80 0;
#X connect 68 0 79 0;
#X connect 69 0 78 0;
#X connect 69 0 81 0;
#X connect 70 0 82 0;
#X connect 72 0 76 0;
#X connect 73 0 74 0;
#X connect 74 0 72 0;
#X connect 75 0 71 0;
#X connect 76 0 77 0;
#X connect 76 1 75 0;
#X connect 77 0 35 0;
#X connect 78 0 73 0;
#X connect 78 1 73 1;
#X connect 80 0 68 0;
#X connect 81 0 70 0;
#X connect 83 0 59 0;
#X connect 84 0 59 0;
#X connect 85 0 56 0;
#X connect 85 1 57 0;
#X connect 86 0 95 0;
#X connect 88 0 99 0;
#X connect 89 0 90 0;
#X connect 90 0 99 0;
#X connect 90 1 99 1;
#X connect 91 0 92 0;
#X connect 91 0 101 0;
#X connect 92 0 93 0;
#X connect 93 0 102 0;
#X connect 95 0 87 0;
#X connect 97 0 99 0;
#X connect 97 1 99 2;
#X connect 98 0 97 0;
#X connect 99 0 91 0;
#X connect 99 0 96 0;
#X connect 100 0 86 0;
#X connect 104 0 105 0;
#X connect 106 0 88 0;
#X connect 107 0 108 0;
#X connect 109 0 50 0;
#X connect 111 0 112 0;
#X connect 112 0 107 1;
#X connect 114 0 115 0;
#X connect 115 0 100 0;
#X connect 115 0 104 0;
#X connect 116 0 115 0;
#X connect 117 0 118 0;
#X connect 118 0 119 0;
#X connect 119 0 120 0;
#X coords 0 -1 1 1 141 145 2 -100 30;
