#N canvas 301 77 804 657 10;
#X obj 191 14 cnv 15 130 180 empty empty LIRE_8_BOUCLES 18 22 0 14
-161610 -262144 0;
#X obj 196 67 bng 11 250 50 0 \$0-read8loop1 \$0-read8loop1IN 1 4 6
0 9 -99865 -4032 -262144;
#X obj 210 44 hradio 12 1 0 8 empty tempo_2bar empty 0 -8 0 10 -4032
-1 -1 6;
#X obj 192 168 hradio 14 1 0 8 looper_seq_bank-\$1-out looper_seq_bank-\$1-in
banque_de_loop 0 -6 0 10 -33289 -262144 -262144 1;
#X floatatom 276 152 2 0 0 0 - - vide;
#X obj 463 -95 + 1;
#X obj 463 -47 - 1;
#X obj 424 328 outlet~;
#X obj 191 183 cnv 12 40 12 empty empty son 10 5 0 12 -4160 -1 0;
#N canvas 701 137 797 429 seq1 0;
#X obj -440 90 sel 0 1 2 3 4 5 6 7;
#X obj -351 156 i 0;
#X obj -314 156 i 0;
#X obj -275 156 i 0;
#X obj -239 156 i 0;
#X obj -202 156 i 0;
#X obj -161 156 i 0;
#X obj -123 156 i 0;
#X obj -84 156 i 0;
#X obj -212 41 inlet;
#X obj -433 38 inlet;
#X obj -164 41 inlet;
#X obj -124 41 inlet;
#X obj -76 41 inlet;
#X obj -37 41 inlet;
#X obj 11 41 inlet;
#X obj 52 41 inlet;
#X obj 100 41 inlet;
#X obj -351 234 sel 0;
#X obj -314 234 sel 0;
#X obj -276 234 sel 0;
#X obj -239 234 sel 0;
#X obj -201 234 sel 0;
#X obj -161 234 sel 0;
#X obj -122 234 sel 0;
#X obj -84 234 sel 0;
#X obj -177 356 i 0;
#X obj -150 502 s \$0-changeLoop;
#X obj -93 357 r \$0-read_8loopOUT;
#X obj -383 50 moses;
#X obj -177 392 + 1;
#X obj -177 417 * 1;
#X obj 682 87 r \$0-read_8loopOUT;
#X obj -177 449 sel 0;
#X obj -150 476 - 1;
#X obj -233 507 outlet;
#X text -92 378 cheap way to mute;
#X obj -378 510 sel 1 2 3 4 5 6 7 8;
#X obj -378 561 s \$0-read8loop1IN;
#X obj -368 583 s \$0-read8loop2IN;
#X obj -353 605 s \$0-read8loop3IN;
#X obj -337 627 s \$0-read8loop4IN;
#X obj -322 657 s \$0-read8loop5IN;
#X obj -306 683 s \$0-read8loop6IN;
#X obj -289 707 s \$0-read8loop7IN;
#X obj -261 734 s \$0-read8loop8IN;
#X connect 0 0 1 0;
#X connect 0 1 2 0;
#X connect 0 2 3 0;
#X connect 0 3 4 0;
#X connect 0 4 5 0;
#X connect 0 5 6 0;
#X connect 0 6 7 0;
#X connect 0 7 8 0;
#X connect 1 0 18 0;
#X connect 2 0 19 0;
#X connect 3 0 20 0;
#X connect 4 0 21 0;
#X connect 5 0 22 0;
#X connect 6 0 23 0;
#X connect 7 0 24 0;
#X connect 8 0 25 0;
#X connect 9 0 1 1;
#X connect 10 0 0 0;
#X connect 11 0 2 1;
#X connect 12 0 3 1;
#X connect 13 0 4 1;
#X connect 14 0 5 1;
#X connect 15 0 6 1;
#X connect 16 0 7 1;
#X connect 17 0 8 1;
#X connect 18 1 26 0;
#X connect 19 1 26 0;
#X connect 20 1 26 0;
#X connect 21 1 26 0;
#X connect 22 1 26 0;
#X connect 23 1 26 0;
#X connect 24 1 26 0;
#X connect 25 1 26 0;
#X connect 26 0 30 0;
#X connect 28 0 31 1;
#X connect 30 0 31 0;
#X connect 31 0 33 0;
#X connect 33 1 34 0;
#X connect 34 0 27 0;
#X connect 34 0 35 0;
#X connect 34 0 37 0;
#X connect 37 0 38 0;
#X connect 37 1 39 0;
#X connect 37 2 40 0;
#X connect 37 3 41 0;
#X connect 37 4 42 0;
#X connect 37 5 43 0;
#X connect 37 6 44 0;
#X connect 37 7 45 0;
#X coords 0 -1 1 1 150 30 1 100 100;
#X restore 136 259 pd seq1;
#N canvas 216 91 774 380 loadFile 0;
#X obj 340 3 inlet;
#X obj 344 187 soundfiler;
#X obj 343 96 pack s \$1;
#X msg 343 65 ../samples/loop/\$2/\$1.wav;
#X msg 344 161 read \$1 \$2-8loop;
#X connect 0 0 3 0;
#X connect 2 0 4 0;
#X connect 3 0 2 0;
#X connect 4 0 1 0;
#X restore 460 162 pd loadFile;
#N canvas 120 66 1197 752 playsound 0;
#X obj 104 68 hip~ 5;
#X obj 105 15 *~;
#X obj 105 -83 +~;
#X obj 104 -131 samphold~;
#X obj 105 -107 *~;
#X obj 270 -52 -~ 0.5;
#X obj 270 -28 *~ 0.5;
#X obj 270 -5 cos~;
#X obj 104 44 +~;
#X obj 105 -59 *~ 44100;
#X obj 104 -156 r chunk-size;
#X obj 104 -33 +~ 1;
#X obj 356 24 *~;
#X obj 356 -74 +~;
#X obj 355 -122 samphold~;
#X obj 356 -98 *~;
#X obj 521 -43 -~ 0.5;
#X obj 521 -19 *~ 0.5;
#X obj 521 4 cos~;
#X obj 356 -50 *~ 44100;
#X obj 355 -147 r chunk-size;
#X obj 355 -24 +~ 1;
#X obj 105 317 outlet~;
#X obj 104 276 *~ 1;
#X obj 558 70 r tempoGoOut;
#X obj 453 70 r tempoStopOut;
#X obj 140 -106 r~ \$1-phase;
#X obj 192 -130 r~ \$1-phase;
#X obj 443 -121 r~ \$1-phase2;
#X obj 391 -97 r~ \$1-phase2;
#X obj 521 -67 r~ \$1-phase2;
#X obj 270 -76 r~ \$1-phase;
#X obj 247 -193 *~ 1;
#X obj 271 -235 tgl 15 0 empty \$0-read_loopOUT empty 17 7 0 10 -262144
-1 -1 0 1;
#X obj 379 218 &&;
#X obj 379 246 sel 1;
#X msg 379 273 1;
#X msg 417 272 0;
#X msg 453 95 0;
#X msg 558 97 1;
#X obj 452 137 t b f;
#X obj 312 138 t b f;
#X obj 452 182 i 1;
#X obj 314 186 i 0;
#X floatatom 477 -231 4 0 100 0 - - -;
#X obj 477 -188 s chunk-size;
#X obj 703 -313 r chunk-size;
#X obj 703 -288 t b f;
#X obj 691 -208 phasor~;
#X obj 778 -189 +~ 0.5;
#X obj 779 -163 wrap~;
#X text 725 -349 <-- transposition \, halftones/10;
#X obj 477 -211 * 0.001;
#X floatatom 699 -231 5 0 0 0 - - -;
#X obj 816 -289 t b f;
#X obj 816 -314 r precession;
#X obj 477 -275 loadbang;
#X obj 691 -256 expr (pow(2 \, $f1/120)-$f3)/$f2;
#X msg 477 -253 41;
#X obj 691 -182 s~ \$1-phase;
#X obj 779 -138 s~ \$1-phase2;
#X text 512 -231 msec;
#X msg 556 -254 1;
#X obj 556 -229 s \$0-read_8loopIN;
#X obj 669 -354 inlet;
#X obj 139 -285 inlet~;
#X obj 105 -9 tabread4~ \$1-8loop;
#X obj 356 0 tabread4~ \$1-8loop;
#X obj 661 69 r \$0-read_8loopOUT;
#X obj 312 71 r \$0-mute;
#X obj 659 425 s \$0-mute;
#X obj 659 391 tgl 15 0 empty empty empty 17 7 0 10 -262144 -1 -1 1
1;
#X obj 855 96 r tempo_2bar;
#X obj 794 54 r \$0-midinote;
#X msg 773 128 1;
#X obj 892 211 + 1;
#X obj 849 135 bng 15 250 50 0 empty empty empty 17 7 0 10 -262144
-1 -1;
#X obj 892 271 sel 8;
#X obj 803 94 bng 15 250 50 0 empty empty empty 17 7 0 10 -262144 -1
-1;
#X msg 805 351 0;
#X obj 858 305 i 0;
#X obj 852 339 change;
#X text 924 225 if you play a midinote play it during 2 bar then stop
;
#X obj 846 176 i 10;
#X connect 0 0 23 0;
#X connect 1 0 8 0;
#X connect 2 0 9 0;
#X connect 3 0 4 0;
#X connect 4 0 2 0;
#X connect 5 0 6 0;
#X connect 6 0 7 0;
#X connect 7 0 1 1;
#X connect 8 0 0 0;
#X connect 9 0 11 0;
#X connect 10 0 3 0;
#X connect 11 0 66 0;
#X connect 12 0 8 1;
#X connect 13 0 19 0;
#X connect 14 0 15 0;
#X connect 15 0 13 0;
#X connect 16 0 17 0;
#X connect 17 0 18 0;
#X connect 18 0 12 1;
#X connect 19 0 21 0;
#X connect 20 0 14 0;
#X connect 21 0 67 0;
#X connect 23 0 22 0;
#X connect 24 0 39 0;
#X connect 25 0 38 0;
#X connect 26 0 4 1;
#X connect 27 0 3 1;
#X connect 28 0 14 1;
#X connect 29 0 15 1;
#X connect 30 0 16 0;
#X connect 31 0 5 0;
#X connect 32 0 2 1;
#X connect 32 0 13 1;
#X connect 33 0 32 1;
#X connect 34 0 35 0;
#X connect 35 0 36 0;
#X connect 35 1 37 0;
#X connect 36 0 23 1;
#X connect 37 0 23 1;
#X connect 38 0 40 0;
#X connect 38 0 43 1;
#X connect 39 0 40 0;
#X connect 39 0 43 1;
#X connect 40 0 42 0;
#X connect 40 1 34 1;
#X connect 41 0 43 0;
#X connect 41 1 34 1;
#X connect 42 0 34 0;
#X connect 43 0 34 0;
#X connect 44 0 52 0;
#X connect 46 0 47 0;
#X connect 47 0 57 0;
#X connect 47 1 57 1;
#X connect 48 0 49 0;
#X connect 48 0 59 0;
#X connect 49 0 50 0;
#X connect 50 0 60 0;
#X connect 52 0 45 0;
#X connect 54 0 57 0;
#X connect 54 1 57 2;
#X connect 55 0 54 0;
#X connect 56 0 58 0;
#X connect 56 0 62 0;
#X connect 57 0 48 0;
#X connect 57 0 53 0;
#X connect 58 0 44 0;
#X connect 62 0 63 0;
#X connect 64 0 57 0;
#X connect 65 0 32 0;
#X connect 66 0 1 0;
#X connect 67 0 12 0;
#X connect 68 0 71 0;
#X connect 69 0 41 0;
#X connect 69 0 42 1;
#X connect 71 0 70 0;
#X connect 72 0 76 0;
#X connect 73 0 78 0;
#X connect 74 0 71 0;
#X connect 74 0 83 1;
#X connect 75 0 77 0;
#X connect 75 0 80 1;
#X connect 76 0 83 0;
#X connect 77 0 80 0;
#X connect 77 1 83 1;
#X connect 78 0 74 0;
#X connect 79 0 71 0;
#X connect 80 0 81 0;
#X connect 81 0 79 0;
#X connect 83 0 75 0;
#X restore 424 297 pd playsound;
#X obj 196 78 bng 11 250 50 0 \$0-read8loop2 \$0-read8loop2IN 2 4 6
0 10 -99865 -4032 -262144;
#X obj 196 89 bng 11 250 50 0 \$0-read8loop3 \$0-read8loop3IN 3 4 6
0 10 -99865 -4032 -262144;
#X obj 196 100 bng 11 250 50 0 \$0-read8loop4 \$0-read8loop4IN 4 4
6 0 10 -99865 -4032 -262144;
#X obj 196 111 bng 11 250 50 0 \$0-read8loop5 \$0-read8loop5IN 5 4
6 0 10 -99865 -4032 -262144;
#X obj 196 122 bng 11 250 50 0 \$0-read8loop6 \$0-read8loop6IN 6 4
6 0 10 -99865 -4032 -262144;
#X obj 196 133 bng 11 250 50 0 \$0-read8loop7 \$0-read8loop7IN 7 4
6 0 10 -99865 -4032 -262144;
#X obj 196 144 bng 11 250 50 0 \$0-read8loop8 \$0-read8loop8IN 8 4
6 0 10 -99865 -4032 -262144;
#X obj 154 -152 inlet;
#N canvas 671 132 562 448 midi-input 0;
#X obj 79 -237 route 60 63 65 66 67 70 72 75;
#X obj 77 -191 sel 0;
#X obj 276 -190 sel 0;
#X obj 237 -190 sel 0;
#X obj 317 -190 sel 0;
#X obj 120 -190 sel 0;
#X obj 162 -190 sel 0;
#X obj 200 -190 sel 0;
#X obj 79 -264 inlet;
#X obj 35 -191 sel 0;
#X msg 104 -145 2;
#X msg 62 -143 1;
#X msg 147 -145 3;
#X msg 189 -145 4;
#X msg 227 -145 5;
#X msg 264 -146 6;
#X msg 303 -145 7;
#X msg 344 -145 8;
#X obj 337 60 s \$0-midinote;
#X obj 337 -50 bang;
#X obj 364 33 outlet;
#X obj 337 -8 t b b;
#X obj 85 40 sel 1 2 3 4 5 6 7 8;
#X obj 85 91 s \$0-read8loop1IN;
#X obj 95 113 s \$0-read8loop2IN;
#X obj 110 135 s \$0-read8loop3IN;
#X obj 126 157 s \$0-read8loop4IN;
#X obj 141 187 s \$0-read8loop5IN;
#X obj 157 213 s \$0-read8loop6IN;
#X obj 174 237 s \$0-read8loop7IN;
#X obj 202 264 s \$0-read8loop8IN;
#X obj -48 40 s \$0-changeLoop;
#X obj 57 -18 i 0;
#X connect 0 0 9 0;
#X connect 0 1 1 0;
#X connect 0 2 5 0;
#X connect 0 3 6 0;
#X connect 0 4 7 0;
#X connect 0 5 3 0;
#X connect 0 6 2 0;
#X connect 0 7 4 0;
#X connect 1 1 10 0;
#X connect 2 1 16 0;
#X connect 3 1 15 0;
#X connect 4 1 17 0;
#X connect 5 1 12 0;
#X connect 6 1 13 0;
#X connect 7 1 14 0;
#X connect 8 0 0 0;
#X connect 9 1 11 0;
#X connect 10 0 19 0;
#X connect 10 0 32 0;
#X connect 11 0 19 0;
#X connect 11 0 32 0;
#X connect 12 0 19 0;
#X connect 12 0 32 0;
#X connect 13 0 19 0;
#X connect 13 0 32 0;
#X connect 14 0 19 0;
#X connect 14 0 32 0;
#X connect 15 0 19 0;
#X connect 15 0 32 0;
#X connect 16 0 19 0;
#X connect 16 0 32 0;
#X connect 17 0 19 0;
#X connect 17 0 32 0;
#X connect 19 0 21 0;
#X connect 21 0 18 0;
#X connect 21 1 20 0;
#X connect 22 0 23 0;
#X connect 22 1 24 0;
#X connect 22 2 25 0;
#X connect 22 3 26 0;
#X connect 22 4 27 0;
#X connect 22 5 28 0;
#X connect 22 6 29 0;
#X connect 22 7 30 0;
#X connect 32 0 22 0;
#X connect 32 0 31 0;
#X restore 184 -125 pd midi-input;
#X text 240 -54 send to small bang on the left;
#X obj 210 56 ../save/save-9vradio \$1-1;
#X obj 222 56 ../save/save-9vradio \$1-2;
#X obj 234 56 ../save/save-9vradio \$1-3;
#X obj 246 56 ../save/save-9vradio \$1-4;
#X obj 258 56 ../save/save-9vradio \$1-5;
#X obj 270 56 ../save/save-9vradio \$1-6;
#X obj 282 56 ../save/save-9vradio \$1-7;
#X obj 294 56 ../save/save-9vradio \$1-8;
#X obj 463 -121 r looper_seq_bank-\$1-out;
#X obj 463 -23 s looper_seq_bank-\$1-in;
#X obj 463 -69 ../save/save-int-separate looper8_bank-\$1;
#N canvas 0 50 450 300 (subpatch) 0;
#X array \$1-8loop 270000 float 0;
#X coords 0 300 1 299 200 130 0;
#X restore 662 239 graph;
#X obj 460 133 pack 1 1;
#X obj 418 79 t b f;
#X obj 511 27 r \$0-changeLoop;
#X obj 424 231 r~ tempoPhaser;
#X floatatom 493 261 5 0 0 0 - - -;
#X text 544 262 transpose;
#X text 126 290 changeLoop according to table and tempo2bar;
#X obj -33 -130 inlet;
#X obj 2 -4 bng 15 250 50 0 empty empty empty 17 7 0 10 -262144 -1
-1;
#X obj 21 -50 sel 0;
#X obj -33 -104 route bang float;
#X obj 190 12 cnv 12 70 12 empty empty play/stop 4 6 0 12 -204786 -1
0;
#X obj 194 30 tgl 13 0 \$0-read_8loopOUT \$0-read_8loopIN empty 17
7 0 10 -1 -262144 -1 0 1;
#X floatatom 45 229 5 0 0 0 - - -;
#X obj 67 153 r tempo_2bar;
#X floatatom 536 76 5 0 0 0 - - -;
#X obj 281 13 cnv 12 40 12 empty empty midi 4 6 0 12 -204799 -1 0;
#X obj 150 -50 bang;
#X msg 150 -27 0;
#X text 176 -23 stop playing with midi;
#X floatatom 129 326 5 0 0 0 - - -;
#X obj 184 -98 bng 15 250 50 0 empty empty empty 17 7 0 10 -262144
-1 -1;
#X obj 520 232 r transpose;
#X connect 5 0 4 0;
#X connect 5 0 32 0;
#X connect 5 0 35 0;
#X connect 6 0 31 0;
#X connect 9 0 54 0;
#X connect 11 0 7 0;
#X connect 19 0 20 0;
#X connect 20 0 55 0;
#X connect 22 0 9 1;
#X connect 23 0 9 2;
#X connect 24 0 9 3;
#X connect 25 0 9 4;
#X connect 26 0 9 5;
#X connect 27 0 9 6;
#X connect 28 0 9 7;
#X connect 29 0 9 8;
#X connect 30 0 5 0;
#X connect 32 0 6 0;
#X connect 34 0 10 0;
#X connect 35 0 34 0;
#X connect 35 1 34 1;
#X connect 36 0 49 0;
#X connect 36 0 34 0;
#X connect 37 0 11 0;
#X connect 38 0 11 1;
#X connect 41 0 44 0;
#X connect 42 0 46 0;
#X connect 43 1 42 0;
#X connect 44 0 42 0;
#X connect 44 1 43 0;
#X connect 48 0 9 0;
#X connect 48 0 47 0;
#X connect 51 0 52 0;
#X connect 52 0 46 0;
#X connect 55 0 51 0;
#X connect 56 0 38 0;
#X coords 0 -1 100 1 132 190 2 190 8;
