#N canvas 663 23 772 758 12;
#X obj 6 529 hip~ 5;
#X floatatom 8 47 4 0 100 0 - - -;
#X obj 7 476 *~;
#X floatatom 6 118 0 0 200 0 - - -;
#X obj 7 378 +~;
#X obj 6 330 samphold~;
#X obj 7 354 *~;
#X obj 172 385 r~ phase;
#X obj 357 210 s~ phase;
#X obj 94 331 r~ phase;
#X obj 42 355 r~ phase;
#X obj 8 90 s chunk-size;
#X floatatom 357 42 0 0 0 0 - - -;
#X text 124 82 chunk size;
#X text 121 96 in seconds;
#X obj 369 79 r chunk-size;
#X obj 369 104 t b f;
#X obj 172 409 -~ 0.5;
#X obj 172 433 *~ 0.5;
#X obj 172 456 cos~;
#X obj 357 184 phasor~;
#N canvas 644 393 769 271 table 0;
#X obj 45 44 adc~ 1;
#X obj 45 69 hip~ 5;
#X msg 60 91 bang;
#X text 101 91 <-- record;
#X obj 45 118 tabwrite~ table23;
#X obj 41 237 print;
#X connect 0 0 1 0;
#X connect 1 0 4 0;
#X connect 2 0 4 0;
#X restore 558 460 pd table;
#X obj 7 263 s~ read-pt;
#X obj 444 203 +~ 0.5;
#X obj 445 229 wrap~;
#X obj 445 254 s~ phase2;
#X obj 6 505 +~;
#X text 391 43 <-- transposition \, halftones/10;
#X obj 8 67 * 0.001;
#X obj 7 215 phasor~;
#X obj 7 402 *~ 44100;
#X obj 7 452 tabread4~ table23;
#X obj 6 305 r chunk-size;
#X obj 6 428 +~ 1;
#X floatatom 365 161 5 0 0 0 - - -;
#X obj 15 169 s precession;
#X obj 482 103 t b f;
#X obj 482 78 r precession;
#X obj 7 146 * 0.01;
#X obj 258 485 *~;
#X obj 258 387 +~;
#X obj 257 339 samphold~;
#X obj 258 363 *~;
#X obj 423 418 -~ 0.5;
#X obj 423 442 *~ 0.5;
#X obj 423 465 cos~;
#X obj 258 411 *~ 44100;
#X obj 258 461 tabread4~ table23;
#X obj 257 314 r chunk-size;
#X obj 257 437 +~ 1;
#X obj 345 340 r~ phase2;
#X obj 293 364 r~ phase2;
#X obj 423 394 r~ phase2;
#X text 37 123 <-- precession \, percent;
#X obj 8 3 loadbang;
#X text 158 3 TIME COMPRESSION/EXPANSION BY LOOPED SAMPLING;
#X msg 8 25 25;
#X floatatom 139 192 4 0 1200 0 - - -;
#X msg 139 170 900;
#X text 48 47 <-- chunk size (msec);
#X obj 357 136 expr (pow(2 \, $f1/120)-$f3)/$f2;
#X obj 139 237 t b f;
#X obj 139 146 loadbang;
#X text 182 188 <-- loop length;
#X text 223 203 (msec);
#X obj 7 239 *~;
#X obj 7 191 /;
#X obj 139 212 * 0.01;
#N canvas 0 22 450 300 (subpatch) 0;
#X array \$0-array 1000 float 0;
#X coords 0 5 999 -5 200 100 1 0 0;
#X restore -246 424 graph;
#X text -168 341 graph the output;
#X obj -187 220 loadbang;
#X obj -186 324 tabwrite~ \$0-array;
#X obj -123 219 bng 15 250 50 0 empty empty empty 17 7 0 10 -262144
-1 -1;
#X obj -187 245 metro 50;
#X obj 46 378 r~ tempoPhaser;
#X obj 296 387 r~ tempoPhaser;
#X floatatom -55 221 5 0 0 0 - - -;
#X obj -150 648 loadbang;
#X obj -150 702 soundfiler;
#X text -57 655 v-- re-read original table;
#X msg -151 675 read ../samples/beat/2.wav table23;
#X text 111 529;
#X text 111 626;
#N canvas 0 50 450 300 (subpatch) 0;
#X array table23 96220 float 0;
#X coords 0 1.02 96219 -1.02 200 130 1;
#X restore 184 647 graph;
#X obj 5 574 outlet~;
#X connect 0 0 84 0;
#X connect 1 0 28 0;
#X connect 2 0 26 0;
#X connect 3 0 38 0;
#X connect 4 0 30 0;
#X connect 5 0 6 0;
#X connect 6 0 4 0;
#X connect 7 0 17 0;
#X connect 9 0 5 1;
#X connect 10 0 6 1;
#X connect 12 0 60 0;
#X connect 15 0 16 0;
#X connect 16 0 60 0;
#X connect 16 1 60 1;
#X connect 17 0 18 0;
#X connect 18 0 19 0;
#X connect 19 0 2 1;
#X connect 20 0 8 0;
#X connect 20 0 23 0;
#X connect 23 0 24 0;
#X connect 24 0 25 0;
#X connect 26 0 0 0;
#X connect 28 0 11 0;
#X connect 29 0 65 0;
#X connect 30 0 33 0;
#X connect 31 0 2 0;
#X connect 32 0 5 0;
#X connect 33 0 31 0;
#X connect 36 0 60 0;
#X connect 36 1 60 2;
#X connect 37 0 36 0;
#X connect 38 0 35 0;
#X connect 38 0 66 0;
#X connect 39 0 26 1;
#X connect 40 0 46 0;
#X connect 41 0 42 0;
#X connect 42 0 40 0;
#X connect 43 0 44 0;
#X connect 44 0 45 0;
#X connect 45 0 39 1;
#X connect 46 0 49 0;
#X connect 47 0 39 0;
#X connect 48 0 41 0;
#X connect 49 0 47 0;
#X connect 50 0 41 1;
#X connect 51 0 42 1;
#X connect 52 0 43 0;
#X connect 54 0 56 0;
#X connect 56 0 1 0;
#X connect 57 0 67 0;
#X connect 58 0 57 0;
#X connect 60 0 20 0;
#X connect 60 0 34 0;
#X connect 61 0 66 0;
#X connect 61 1 66 1;
#X connect 62 0 58 0;
#X connect 65 0 22 0;
#X connect 65 0 71 0;
#X connect 66 0 29 0;
#X connect 66 0 76 0;
#X connect 67 0 61 0;
#X connect 67 0 65 1;
#X connect 70 0 73 0;
#X connect 70 0 73 0;
#X connect 72 0 73 0;
#X connect 73 0 71 0;
#X connect 74 0 4 1;
#X connect 75 0 40 1;
#X connect 77 0 80 0;
#X connect 80 0 78 0;
