#N canvas 223 23 899 769 12;
#X obj 6 529 hip~ 5;
#X floatatom 4 202 4 0 100 0 - - -;
#X obj 7 476 *~;
#X obj 7 378 +~;
#X obj 6 330 samphold~;
#X obj 7 354 *~;
#X obj 4 246 s chunk-size;
#X floatatom 208 47 0 0 0 0 - - -;
#X obj 219 94 r chunk-size;
#X obj 219 119 t b f;
#X obj 172 409 -~ 0.5;
#X obj 172 433 *~ 0.5;
#X obj 172 456 cos~;
#X obj 207 199 phasor~;
#N canvas 738 380 769 271 table 0;
#X obj 45 2 adc~ 1;
#X obj 45 69 hip~ 5;
#X msg 60 91 bang;
#X text 101 91 <-- record;
#X obj 45 152 print;
#X obj 45 118 tabwrite~ \$1-loop;
#N canvas 0 50 450 300 (subpatch) 0;
#X array \$1-loop 270000 float 0;
#X coords 0 300 1 299 200 130 0;
#X restore -144 60 graph;
#X connect 1 0 5 0;
#X connect 2 0 5 0;
#X restore -153 402 pd table;
#X obj 294 218 +~ 0.5;
#X obj 295 244 wrap~;
#X obj 6 505 +~;
#X text 241 58 <-- transposition \, halftones/10;
#X obj 4 223 * 0.001;
#X obj 7 402 *~ 44100;
#X obj 6 305 r chunk-size;
#X obj 6 428 +~ 1;
#X floatatom 215 176 5 0 0 0 - - -;
#X obj 332 118 t b f;
#X obj 332 93 r precession;
#X obj 258 485 *~;
#X obj 258 387 +~;
#X obj 257 339 samphold~;
#X obj 258 363 *~;
#X obj 423 418 -~ 0.5;
#X obj 423 442 *~ 0.5;
#X obj 423 465 cos~;
#X obj 258 411 *~ 44100;
#X obj 257 314 r chunk-size;
#X obj 257 437 +~ 1;
#X obj 4 159 loadbang;
#X text 158 3 TIME COMPRESSION/EXPANSION BY LOOPED SAMPLING;
#X text 44 203 <-- chunk size (msec);
#X obj 207 151 expr (pow(2 \, $f1/120)-$f3)/$f2;
#X obj 46 378 r~ tempoPhaser;
#X obj 296 387 r~ tempoPhaser;
#X obj 7 648 outlet~;
#X floatatom 412 123 5 0 0 0 - - -;
#X obj 6 607 *~ 1;
#X msg 73 554 0;
#X msg 191 556 1;
#X obj 191 530 r tempoGoOut;
#X obj 73 528 r tempoStopOut;
#X obj -100 34 cnv 15 138 110 empty empty JOUER_UN_SAMPLE 30 12 0 14
-72698 -262144 0;
#X obj -100 133 cnv 12 40 12 empty empty son 10 5 0 12 -4160 -1 0;
#X obj -100 34 cnv 12 24 12 empty empty go 4 6 0 12 -204786 -1 0;
#X obj -89 72 hradio 14 1 0 8 loop_bank-\$1-out loop_bank-\$1-in banque_de_loop
0 -6 0 10 -33289 -262144 -262144 1;
#X obj -89 101 hradio 14 1 0 8 loop_num-\$1-out loop_num-\$1-in numero_du_loop
0 -6 0 10 -33289 -262144 -262144 4;
#X obj -92 48 bng 10 250 50 0 empty empty empty 17 7 0 10 -1 -4032
-1;
#N canvas 584 44 660 550 file 0;
#X obj 16 -2 + 1;
#X obj 16 49 - 1;
#X obj 320 0 + 1;
#X obj 320 48 - 1;
#X obj 238 439 soundfiler;
#X obj 237 348 pack s \$1;
#X obj 236 275 pack 1 1;
#X obj 16 78 s sampler_num-\$1-in;
#X obj 320 72 s sampler_bank-\$1-in;
#X msg 237 317 ../samples/loop/\$2/\$1.wav;
#X msg 238 413 read \$1 \$2-loop;
#X obj 320 -32 inlet;
#X obj 16 -35 inlet;
#X obj 155 370 t l l;
#X obj 86 441 outlet;
#X obj 16 25 ../save/save-int-separate loop_num-\$1;
#X obj 320 26 ../save/save-int-separate loop_bank-\$1;
#X obj 86 409 unpack s f;
#X obj 237 476 print;
#X connect 0 0 6 0;
#X connect 0 0 15 0;
#X connect 1 0 7 0;
#X connect 2 0 6 1;
#X connect 2 0 16 0;
#X connect 3 0 8 0;
#X connect 4 0 18 0;
#X connect 5 0 13 0;
#X connect 6 0 9 0;
#X connect 9 0 5 0;
#X connect 10 0 4 0;
#X connect 11 0 2 0;
#X connect 12 0 0 0;
#X connect 13 0 17 0;
#X connect 13 1 10 0;
#X connect 15 0 1 0;
#X connect 16 0 3 0;
#X connect 17 0 14 0;
#X restore -246 300 pd file;
#X obj -200 270 r loop_bank-\$1-out;
#X obj -246 243 r loop_num-\$1-out;
#X obj -215 624 readsf~;
#X obj -246 434 t b s;
#X msg -257 586 start;
#X obj 7 452 tabread4~ \$1-loop;
#X obj 258 461 tabread4~ \$1-loop;
#X obj -231 278 bng 15 250 50 0 empty empty empty 17 7 0 10 -262144
-1 -1;
#X msg -210 585 open \$1;
#X obj -124 615 print loop;
#X obj -344 474 s isTempoPlayingIn;
#X obj -347 514 r isTempoPlayingOut;
#X obj -347 541 sel 0;
#X msg 4 181 41;
#X obj 207 225 s~ \$1-phase;
#X obj 295 269 s~ \$1-phase2;
#X obj 42 355 r~ \$1-phase;
#X obj 94 331 r~ \$1-phase;
#X obj 345 340 r~ \$1-phase2;
#X obj 293 364 r~ \$1-phase2;
#X obj 423 394 r~ \$1-phase2;
#X obj 172 385 r~ \$1-phase;
#X connect 0 0 44 0;
#X connect 1 0 19 0;
#X connect 2 0 17 0;
#X connect 3 0 20 0;
#X connect 4 0 5 0;
#X connect 5 0 3 0;
#X connect 7 0 39 0;
#X connect 8 0 9 0;
#X connect 9 0 39 0;
#X connect 9 1 39 1;
#X connect 10 0 11 0;
#X connect 11 0 12 0;
#X connect 12 0 2 1;
#X connect 13 0 15 0;
#X connect 13 0 70 0;
#X connect 15 0 16 0;
#X connect 16 0 71 0;
#X connect 17 0 0 0;
#X connect 19 0 6 0;
#X connect 20 0 22 0;
#X connect 21 0 4 0;
#X connect 22 0 61 0;
#X connect 24 0 39 0;
#X connect 24 1 39 2;
#X connect 25 0 24 0;
#X connect 25 0 43 0;
#X connect 26 0 17 1;
#X connect 27 0 33 0;
#X connect 28 0 29 0;
#X connect 29 0 27 0;
#X connect 30 0 31 0;
#X connect 31 0 32 0;
#X connect 32 0 26 1;
#X connect 33 0 35 0;
#X connect 34 0 28 0;
#X connect 35 0 62 0;
#X connect 36 0 69 0;
#X connect 39 0 13 0;
#X connect 39 0 23 0;
#X connect 40 0 3 1;
#X connect 41 0 27 1;
#X connect 44 0 42 0;
#X connect 45 0 44 1;
#X connect 46 0 44 1;
#X connect 47 0 46 0;
#X connect 48 0 45 0;
#X connect 55 0 59 0;
#X connect 56 0 55 1;
#X connect 57 0 55 0;
#X connect 57 0 63 0;
#X connect 58 0 42 0;
#X connect 59 0 66 0;
#X connect 59 1 64 0;
#X connect 60 0 58 0;
#X connect 61 0 2 0;
#X connect 62 0 26 0;
#X connect 64 0 58 0;
#X connect 64 0 65 0;
#X connect 67 0 68 0;
#X connect 68 0 60 0;
#X connect 69 0 1 0;
#X connect 72 0 5 1;
#X connect 73 0 4 1;
#X connect 74 0 28 1;
#X connect 75 0 29 1;
#X connect 76 0 30 0;
#X connect 77 0 10 0;
#X coords 0 -1 1 1 140 120 2 -100 30;
