#N canvas 8 56 1351 687 10;
#X obj 191 16 cnv 15 178 78 empty empty BOITE_A_SAMPLE 20 25 0 14 -153347
-262144 0;
#X obj 688 11 loadbang;
#X obj 475 510 outlet~;
#N canvas 413 153 881 590 bankFile 0;
#X msg 391 245 ../samples/bathp5.wav;
#X msg 479 269 ../samples/bathp6.wav;
#X msg 547 247 ../samples/bathp7.wav;
#X msg 637 268 ../samples/bathp8.wav;
#X msg 71 330 ../samples/batdnb1.wav;
#X msg 154 355 ../samples/batdnb2.wav;
#X msg 235 329 ../samples/batdnb3.wav;
#X msg 317 356 ../samples/batdnb4.wav;
#X msg 397 326 ../samples/batdnb5.wav;
#X msg 482 356 ../samples/batdnb6.wav;
#X msg 560 326 ../samples/batdnb7.wav;
#X msg 648 357 ../samples/batdnb8.wav;
#X obj 5 227 bng 15 250 50 0 empty empty empty 17 7 0 10 -262144 -1
-1;
#X obj 4 286 bng 15 250 50 0 empty empty empty 17 7 0 10 -262144 -1
-1;
#X obj 86 86 inlet;
#X obj 79 137 sel 0 1;
#X msg 72 249 ../samples/soul1.wav;
#X msg 157 271 ../samples/soul2.wav;
#X msg 230 248 ../samples/soul3.wav;
#X msg 315 270 ../samples/soul4.wav;
#X obj 64 422 s samplefile1;
#X obj 149 419 s samplefile2;
#X obj 237 420 s samplefile3;
#X obj 322 421 s samplefile4;
#X obj 407 421 s samplefile5;
#X obj 491 420 s samplefile6;
#X obj 572 420 s samplefile7;
#X obj 657 421 s samplefile8;
#X connect 0 0 24 0;
#X connect 1 0 25 0;
#X connect 2 0 26 0;
#X connect 3 0 27 0;
#X connect 4 0 20 0;
#X connect 5 0 21 0;
#X connect 6 0 22 0;
#X connect 7 0 23 0;
#X connect 8 0 24 0;
#X connect 9 0 25 0;
#X connect 10 0 26 0;
#X connect 11 0 27 0;
#X connect 12 0 16 0;
#X connect 12 0 17 0;
#X connect 12 0 18 0;
#X connect 12 0 19 0;
#X connect 12 0 0 0;
#X connect 12 0 1 0;
#X connect 12 0 2 0;
#X connect 12 0 3 0;
#X connect 13 0 4 0;
#X connect 13 0 5 0;
#X connect 13 0 6 0;
#X connect 13 0 7 0;
#X connect 13 0 8 0;
#X connect 13 0 9 0;
#X connect 13 0 10 0;
#X connect 13 0 11 0;
#X connect 14 0 15 0;
#X connect 15 0 12 0;
#X connect 15 1 13 0;
#X connect 16 0 20 0;
#X connect 17 0 21 0;
#X connect 18 0 22 0;
#X connect 19 0 23 0;
#X restore 1004 161 pd bankFile;
#X msg 712 58 0;
#X obj 334 78 hradio 15 1 0 2 empty empty Banque_de_son -50 -4 0 10
-262144 -1 -262144 0;
#X text 196 78 Son;
#X obj 193 -22 inlet;
#X obj 343 -29 inlet;
#X obj 392 -28 inlet;
#X obj 146 -21 inlet;
#X obj 38 267 ../sampling/sample_reader_from_path;
#X obj 141 267 ../sampling/sample_reader_from_path;
#X obj 450 267 ../sampling/sample_reader_from_path;
#X obj 553 267 ../sampling/sample_reader_from_path;
#X obj 347 267 ../sampling/sample_reader_from_path;
#X obj 244 267 ../sampling/sample_reader_from_path;
#X obj 656 267 ../sampling/sample_reader_from_path;
#X obj 759 267 ../sampling/sample_reader_from_path;
#X obj 84 240 r samplefile1;
#X obj 176 240 r samplefile2;
#X obj 276 241 r samplefile3;
#X obj 365 239 r samplefile4;
#X obj 460 239 r samplefile5;
#X obj 549 238 r samplefile6;
#X obj 651 233 r samplefile7;
#X obj 767 231 r samplefile8;
#X obj 202 12 tgl 15 0 empty empty empty 17 7 0 10 -262144 -1 -1 0
255;
#X obj 258 12 tgl 15 0 empty empty empty 17 7 0 10 -262144 -1 -1 0
255;
#X obj 310 11 tgl 15 0 empty empty empty 17 7 0 10 -262144 -1 -1 255
255;
#X obj 352 12 tgl 15 0 empty empty empty 17 7 0 10 -262144 -1 -1 0
1;
#X connect 1 0 4 0;
#X connect 4 0 5 0;
#X connect 5 0 3 0;
#X connect 7 0 12 0;
#X connect 7 0 28 0;
#X connect 8 0 16 0;
#X connect 8 0 29 0;
#X connect 9 0 15 0;
#X connect 9 0 30 0;
#X connect 10 0 11 0;
#X connect 10 0 27 0;
#X connect 11 0 2 0;
#X connect 12 0 2 0;
#X connect 13 0 2 0;
#X connect 14 0 2 0;
#X connect 15 0 2 0;
#X connect 16 0 2 0;
#X connect 17 0 2 0;
#X connect 19 0 11 1;
#X connect 20 0 12 1;
#X connect 21 0 16 1;
#X connect 22 0 15 1;
#X connect 23 0 13 1;
#X connect 24 0 14 1;
#X connect 25 0 17 1;
#X connect 26 0 18 1;
#X coords 0 -1 100 1 180 90 2 190 8;
