#N canvas 423 147 670 582 10;
#X obj 208 26 inlet;
#X obj -113 5 inlet;
#X obj -125 517 outlet~;
#N canvas 1 57 450 250 (subpatch) 0;
#X array \$0-foo 100000 float 2;
#X coords 0 250 100000 249 60 40 0;
#X restore 10 158 graph;
#X obj 7 420 pack s \$0;
#X obj 7 396 bng 15 250 50 0 empty empty empty 17 7 0 10 -262144 -1
-1;
#X msg 7 445 read ../samples/Hat01.wav \$1-foo;
#X obj 208 140 pack s \$0;
#X msg 208 165 read \$1 \$2-foo;
#X obj -125 373 tabplay~ \$0-foo;
#X obj 217 346 outlet;
#X obj 218 253 loadbang;
#X obj 215 299 i \$0;
#X obj 209 205 soundfiler;
#X obj -4 103 cnv 15 90 45 empty empty empty 20 12 0 14 -262130 -66577
0;
#X text -3 130 Jouer un son;
#X text -5 102 Jouer;
#X text -6 201 Son;
#X msg -122 307 stop;
#X obj -120 30 route bang float;
#X text 36 102 fichier;
#X obj -119 65 sel 0;
#X obj -5 117 tgl 15 0 empty empty empty 17 7 0 10 -262144 -1 -1 0
1;
#X obj -77 312 bng 15 250 50 0 empty empty empty 17 7 0 10 -262144
-1 -1;
#X msg -106 93 0;
#X msg -42 73 1;
#X obj -64 195 sel 1;
#X connect 0 0 7 0;
#X connect 1 0 19 0;
#X connect 4 0 6 0;
#X connect 5 0 4 0;
#X connect 7 0 8 0;
#X connect 8 0 13 0;
#X connect 9 0 2 0;
#X connect 11 0 12 0;
#X connect 12 0 10 0;
#X connect 18 0 9 0;
#X connect 19 0 25 0;
#X connect 19 1 21 0;
#X connect 21 0 24 0;
#X connect 21 1 23 0;
#X connect 22 0 26 0;
#X connect 23 0 9 0;
#X connect 24 0 22 0;
#X connect 25 0 22 0;
#X connect 26 0 23 0;
#X connect 26 1 18 0;
#X coords 0 -1 1 1 100 120 2 -10 100;
