#N canvas 276 56 1027 687 10;
#X obj 208 370 cnv 15 280 250 empty empty empty 20 12 0 14 -262130
-66577 0;
#X msg 255 330 stop;
#X msg 216 328 start;
#X msg 217 544 1;
#X msg 254 545 0;
#X msg 334 481 1;
#X obj 395 509 s \$0_is_loop_recorded;
#X obj 393 585 s \$0_is_loop_playing;
#X obj 396 557 s \$0_contrainst;
#X obj 334 404 t b a;
#X obj -38 376 cnv 15 230 500 empty empty empty 20 12 0 14 -204800
-66577 0;
#X obj 16 455 timer;
#X obj 56 486 s \$0_timer;
#X obj 69 311 inlet~;
#X obj 31 37 cnv 15 218 68 empty empty PEDALE_DE_BOUCLE 2 12 0 14 -153347
-262144 0;
#X obj 33 64 tgl 15 0 empty empty rec 17 7 0 10 -262144 -1 -1 0 1;
#X obj 72 64 tgl 15 0 empty \$0_is_loop_playing play 17 7 0 10 -262144
-1 -1 -1 -1;
#X text 64 377 TEMPO;
#X floatatom -6 588 5 0 0 0 - - -, f 5;
#X obj -17 663 /;
#X obj 123 506 log;
#X obj 125 595 i;
#X obj 123 545 / 0.693147;
#X floatatom 124 572 5 0 0 0 - - -, f 5;
#X floatatom 126 626 5 0 0 0 - - -, f 5;
#X obj 136 712 pow;
#X msg 102 684 2;
#X floatatom 137 756 5 0 0 0 - - -, f 5;
#X obj 137 804 s \$0_loop_size;
#X obj 102 651 t b f;
#X text -4 785 ici la véritable valeur du tempo;
#X obj 888 20 cnv 15 200 650 empty empty empty 20 12 0 14 -233017 -66577
0;
#X obj 1008 230 * 44.1;
#X obj 988 478 pack 0 f;
#X floatatom 1020 266 10 0 0 0 - - -, f 10;
#X floatatom 888 321 5 0 0 0 - - -, f 5;
#X obj 848 727 outlet~;
#X obj 896 186 mod \$1;
#X obj 889 116 f;
#X obj 923 117 + 1;
#X obj 889 73 bng 15 250 50 0 empty empty empty 17 7 0 10 -262144 -1
-1;
#X floatatom 891 157 5 0 0 0 - - -, f 5;
#X obj 899 213 select 0;
#X obj 897 259 bng 35 250 50 0 empty empty empty 17 7 0 10 -262144
-1 -1;
#X obj 1103 405 cnv 15 100 120 empty empty empty 20 12 0 14 -233017
-66577 0;
#X text 1126 442 Kill;
#X obj 1125 320 r \$0_is_loop_playing;
#X obj 1004 185 r \$0_timer;
#X obj 987 118 r \$0_loop_size;
#X msg 833 444 symbol /ready_to_play;
#X msg 850 470 symbol /ready_to_stop;
#X msg 1060 487 stop;
#X obj 875 514 s \$0_toOSC;
#X obj 941 323 i 0;
#X obj 885 379 change;
#X obj 1009 438 select 1 0;
#X obj 1126 412 bng 15 250 50 0 empty empty empty 17 7 0 10 -262144
-1 -1;
#X obj 1261 505 s \$0_is_loop_deleted;
#X msg 1264 476 0;
#X text 954 16 PLAY LOOP;
#X obj -31 824 s tempoValue;
#X obj 226 294 sel 1;
#X floatatom 17 513 5 0 0 0 - - -, f 5;
#X obj -35 377 bng 15 250 50 0 empty empty empty 17 7 0 10 -262144
-1 -1;
#X obj 105 383 bng 15 250 50 0 empty empty empty 17 7 0 10 -262144
-1 -1;
#X obj 888 34 r tempo_click;
#X msg 992 82 0;
#X obj 361 452 tabwrite~ \$0-simple_looper1;
#X obj -38 502 t f f;
#X obj 898 628 tabplay~ \$0-simple_looper1;
#X obj 217 660 s \$0_is_simplelooper_recording;
#X obj 992 35 r init_tempo;
#X obj 147 72 tgl 15 0 empty \$0_contrainst enregistrement 17 7 0 10
-99865 -1 -1 0 1;
#X floatatom 215 90 5 0 0 0 Taille_de_la_boucle #0_loop_size -, f
5;
#X obj 1041 680 tabplay~ \$0-simple_looper2;
#X obj 210 117 t b f;
#X obj 178 167 i 0;
#X obj 173 259 i 0;
#X obj 168 200 sel 0;
#X obj 158 239 bng 15 250 50 0 empty empty empty 17 7 0 10 -262144
-1 -1;
#X obj 201 143 r \$0_contrainst;
#X obj 350 266 i 0;
#X obj 231 199 bng 15 250 50 0 empty empty empty 17 7 0 10 -262144
-1 -1;
#X text -17 238 nothing is already recorded;
#X text 267 236 smth is already recorded;
#X text 322 379 write 1st loop;
#X obj 536 370 cnv 15 280 250 empty empty write_2nd_loop 20 12 0 14
-204800 -66577 0;
#X obj 604 578 tabwrite~ \$0-simple_looper2;
#X msg 441 345 start;
#X obj 442 294 sel 1;
#X msg 580 476 stop;
#X obj -7 539 / 400;
#X obj 1259 541 s \$0_contrainst;
#N canvas 0 50 450 250 (subpatch) 0;
#X array \$0-simple_looper2 600000 float 2;
#X coords 0 250 1 249 200 140 0;
#X restore 617 85 graph;
#N canvas 1 56 450 250 (subpatch) 0;
#X array \$0-simple_looper1 600000 float 2;
#X coords 0 250 1 249 200 140 0;
#X restore 572 85 graph;
#X obj 330 296 bng 15 250 50 0 empty empty empty 17 7 0 10 -262144
-1 -1;
#X msg 623 493 0;
#X obj 623 528 s \$0-force-stop;
#X obj 579 445 del;
#X obj 589 391 r \$0_timer;
#X obj 1223 613 pack \$0;
#X obj 1224 681 pack \$0;
#X msg 1224 644 \; \$1-simple_looper1 read empty.txt;
#X msg 1223 712 \; \$1-simple_looper2 read empty.txt;
#X obj 2 -91 r \$0-force-stop;
#X obj 143 -93 inlet;
#X obj 205 43 bng 15 250 50 0 empty empty empty 17 7 0 10 -262144 -1
-1;
#X msg 283 47 -1;
#X obj 257 90 s \$0_is_loop_playing;
#X obj 675 478 bng 15 250 50 0 empty empty empty 17 7 0 10 -262144
-1 -1;
#X obj 655 439 bng 15 250 50 0 empty empty empty 17 7 0 10 -262144
-1 -1;
#X obj 517 326 bng 15 250 50 0 empty empty empty 17 7 0 10 -262144
-1 -1;
#X obj 45 -20 bng 15 250 50 0 empty empty empty 17 7 0 10 -262144 -1
-1;
#X obj 169 -38 sel 0;
#X obj 238 -23 bng 15 250 50 0 empty empty empty 17 7 0 10 -262144
-1 -1;
#X obj 139 -69 route bang float;
#X msg 541 292 0;
#X obj 886 407 select 1 0;
#X obj 952 292 r \$0_is_loop_playing;
#X obj 1129 360 sel -1;
#X connect 1 0 4 0;
#X connect 1 0 9 0;
#X connect 1 0 64 0;
#X connect 2 0 63 0;
#X connect 2 0 67 0;
#X connect 2 0 3 0;
#X connect 3 0 70 0;
#X connect 4 0 70 0;
#X connect 5 0 6 0;
#X connect 5 0 7 0;
#X connect 5 0 8 0;
#X connect 9 0 5 0;
#X connect 9 1 67 0;
#X connect 11 0 12 0;
#X connect 11 0 62 0;
#X connect 11 0 68 0;
#X connect 13 0 67 0;
#X connect 13 0 87 0;
#X connect 15 0 75 0;
#X connect 18 0 20 0;
#X connect 19 0 60 0;
#X connect 20 0 22 0;
#X connect 21 0 24 0;
#X connect 22 0 23 0;
#X connect 23 0 21 0;
#X connect 24 0 29 0;
#X connect 25 0 27 0;
#X connect 26 0 25 0;
#X connect 27 0 19 1;
#X connect 27 0 28 0;
#X connect 29 0 26 0;
#X connect 29 1 25 1;
#X connect 32 0 33 1;
#X connect 32 0 34 0;
#X connect 33 0 69 0;
#X connect 33 0 74 0;
#X connect 37 0 42 0;
#X connect 38 0 39 0;
#X connect 38 0 41 0;
#X connect 39 0 38 1;
#X connect 40 0 38 0;
#X connect 41 0 37 0;
#X connect 42 0 43 0;
#X connect 43 0 53 0;
#X connect 43 0 81 0;
#X connect 46 0 119 0;
#X connect 47 0 32 0;
#X connect 48 0 37 1;
#X connect 49 0 52 0;
#X connect 50 0 52 0;
#X connect 51 0 69 0;
#X connect 51 0 74 0;
#X connect 53 0 35 0;
#X connect 53 0 54 0;
#X connect 53 0 55 0;
#X connect 54 0 117 0;
#X connect 55 0 33 0;
#X connect 55 1 51 0;
#X connect 56 0 51 0;
#X connect 56 0 58 0;
#X connect 56 0 100 0;
#X connect 56 0 101 0;
#X connect 58 0 57 0;
#X connect 58 0 92 0;
#X connect 61 0 2 0;
#X connect 61 1 1 0;
#X connect 63 0 11 0;
#X connect 64 0 11 1;
#X connect 65 0 40 0;
#X connect 66 0 38 1;
#X connect 68 0 19 0;
#X connect 68 1 91 0;
#X connect 69 0 36 0;
#X connect 71 0 66 0;
#X connect 74 0 36 0;
#X connect 75 0 76 0;
#X connect 75 1 77 1;
#X connect 75 1 81 1;
#X connect 76 0 78 0;
#X connect 77 0 61 0;
#X connect 78 0 79 0;
#X connect 78 1 82 0;
#X connect 79 0 77 0;
#X connect 80 0 76 1;
#X connect 81 0 89 0;
#X connect 81 0 95 0;
#X connect 88 0 87 0;
#X connect 89 0 88 0;
#X connect 89 0 111 0;
#X connect 90 0 87 0;
#X connect 90 0 96 0;
#X connect 91 0 18 0;
#X connect 96 0 97 0;
#X connect 98 0 90 0;
#X connect 98 0 109 0;
#X connect 99 0 98 1;
#X connect 99 0 110 0;
#X connect 100 0 102 0;
#X connect 101 0 103 0;
#X connect 104 0 15 0;
#X connect 105 0 115 0;
#X connect 106 0 107 0;
#X connect 107 0 108 0;
#X connect 111 0 98 0;
#X connect 111 0 116 0;
#X connect 112 0 15 0;
#X connect 113 1 112 0;
#X connect 115 0 112 0;
#X connect 115 1 113 0;
#X connect 115 1 114 0;
#X connect 116 0 81 1;
#X connect 117 0 49 0;
#X connect 117 1 50 0;
#X connect 118 0 53 1;
#X connect 119 0 56 0;
#X coords 0 -1 1 1 220 80 2 30 30;
