#N canvas 120 206 1094 507 10;
#N canvas 328 244 450 250 (subpatch) 0;
#X array \$0-simple_looper1 440000 float 0;
#X coords 0 1 439999 -1 100 30 1 0 0;
#X restore 375 112 graph;
#X obj 221 246 cnv 15 280 250 empty empty empty 20 12 0 14 -232576
-66577 0;
#X msg 256 199 stop;
#X msg 186 196 start;
#X text 328 248 write loop;
#X msg 222 394 1;
#X msg 259 395 0;
#X msg 345 396 1;
#X obj 221 423 s \$0_is_loop_recording;
#X obj 402 424 s \$0_is_loop_recorded;
#X obj 403 447 s \$0_is_loop_playing;
#X obj 403 472 s \$0_contrainst;
#X obj 341 319 t b a;
#X obj -32 245 cnv 15 230 500 empty empty empty 20 12 0 14 -204800
-66577 0;
#X obj 30 267 timer;
#X obj 70 298 s \$0_timer;
#X obj 75 180 inlet~;
#X obj 31 37 cnv 15 218 68 empty empty LOOPER 35 12 0 14 -153347 -262144
0;
#X obj 57 63 tgl 15 0 empty \$0_is_loop_recording rec 17 7 0 10 -262144
-1 -1 0 1;
#X obj 108 65 tgl 15 0 empty \$0_is_loop_playing play 17 7 0 10 -262144
-1 -1 0 1;
#X text 70 246 TEMPO;
#X floatatom 9 378 5 0 0 0 - - -, f 5;
#X obj -26 316 t i i;
#X obj -3 475 /;
#X obj -30 627 metro;
#X obj -30 659 bng 40 250 50 0 empty empty empty 17 7 0 10 -262144
-1 -1;
#X msg -118 582 bang;
#X msg -66 580 stop;
#X obj -111 546 select 1;
#X obj -111 518 r \$0_contrainst;
#X obj 137 318 log;
#X obj 139 407 i;
#X obj 137 357 / 0.693147;
#X floatatom 138 384 5 0 0 0 - - -, f 5;
#X floatatom 140 438 5 0 0 0 - - -, f 5;
#X obj 150 524 pow;
#X msg 116 496 2;
#X floatatom 151 568 5 0 0 0 - - -, f 5;
#X obj 151 616 s \$0_loop_size;
#X obj 116 463 t b f;
#X obj 7 351 / 500;
#X text 10 597 ici la véritable valeur du tempo;
#X obj 601 7 cnv 15 200 650 empty empty empty 20 12 0 14 -233017 -66577
0;
#X obj 721 217 * 44.1;
#X obj 699 464 pack 0 f;
#X floatatom 733 253 10 0 0 0 - - -, f 10;
#X floatatom 601 308 5 0 0 0 - - -, f 5;
#X obj 615 551 outlet~;
#X obj 609 173 mod \$1;
#X obj 602 103 f;
#X obj 636 104 + 1;
#X obj 602 60 bng 15 250 50 0 empty empty empty 17 7 0 10 -262144 -1
-1;
#X floatatom 604 144 5 0 0 0 - - -, f 5;
#X obj 612 200 select 0;
#X obj 610 246 bng 35 250 50 0 empty empty empty 17 7 0 10 -262144
-1 -1;
#X obj 816 392 cnv 15 100 120 empty empty empty 20 12 0 14 -233017
-66577 0;
#X text 839 429 Kill;
#X obj 665 279 r \$0_is_loop_playing;
#X obj 717 172 r \$0_timer;
#X obj 700 105 r \$0_loop_size;
#X msg 546 431 symbol /ready_to_play;
#X msg 563 457 symbol /ready_to_stop;
#X msg 773 474 stop;
#X obj 588 501 s \$0_toOSC;
#X obj 654 310 i 0;
#X obj 598 366 change;
#X msg 821 463 symbol /ready_to_delete;
#X obj 820 497 s \$0_toOSC;
#X obj 722 425 select 1 0;
#X obj 821 419 bng 15 250 50 0 empty empty empty 17 7 0 10 -262144
-1 -1;
#X obj 599 394 select 1 0 -1;
#X obj 974 492 s \$0_is_loop_deleted;
#X msg 977 463 0;
#X text 667 3 PLAY LOOP;
#X obj 43 713 s tempoValue;
#X obj 208 167 sel 1;
#X floatatom 31 325 5 0 0 0 - - -, f 5;
#X obj -29 246 bng 15 250 50 0 empty empty empty 17 7 0 10 -262144
-1 -1;
#X obj 111 252 bng 15 250 50 0 empty empty empty 17 7 0 10 -262144
-1 -1;
#X obj 601 21 r tempo_click;
#X msg 705 47 0;
#X obj 705 22 r tempo_init;
#X obj 236 362 tabwrite~ \$0-simple_looper1;
#X obj 692 529 tabplay~ \$0-simple-looper1;
#X connect 2 0 6 0;
#X connect 2 0 12 0;
#X connect 2 0 78 0;
#X connect 3 0 5 0;
#X connect 3 0 77 0;
#X connect 3 0 82 0;
#X connect 5 0 8 0;
#X connect 6 0 8 0;
#X connect 7 0 9 0;
#X connect 7 0 10 0;
#X connect 7 0 11 0;
#X connect 12 0 7 0;
#X connect 12 1 82 0;
#X connect 14 0 15 0;
#X connect 14 0 22 0;
#X connect 14 0 76 0;
#X connect 16 0 82 0;
#X connect 18 0 75 0;
#X connect 21 0 30 0;
#X connect 22 0 23 0;
#X connect 22 1 40 0;
#X connect 23 0 74 0;
#X connect 23 0 24 1;
#X connect 24 0 25 0;
#X connect 26 0 24 0;
#X connect 27 0 24 0;
#X connect 28 0 26 0;
#X connect 28 1 27 0;
#X connect 29 0 28 0;
#X connect 30 0 32 0;
#X connect 31 0 34 0;
#X connect 32 0 33 0;
#X connect 33 0 31 0;
#X connect 34 0 39 0;
#X connect 35 0 37 0;
#X connect 36 0 35 0;
#X connect 37 0 23 1;
#X connect 37 0 38 0;
#X connect 39 0 36 0;
#X connect 39 1 35 1;
#X connect 40 0 21 0;
#X connect 43 0 44 1;
#X connect 43 0 45 0;
#X connect 44 0 83 0;
#X connect 48 0 53 0;
#X connect 49 0 50 0;
#X connect 49 0 52 0;
#X connect 50 0 49 1;
#X connect 51 0 49 0;
#X connect 52 0 48 0;
#X connect 53 0 54 0;
#X connect 54 0 64 0;
#X connect 57 0 64 1;
#X connect 58 0 43 0;
#X connect 59 0 48 1;
#X connect 60 0 63 0;
#X connect 61 0 63 0;
#X connect 62 0 83 0;
#X connect 64 0 46 0;
#X connect 64 0 65 0;
#X connect 64 0 68 0;
#X connect 65 0 70 0;
#X connect 66 0 67 0;
#X connect 68 0 44 0;
#X connect 68 1 62 0;
#X connect 69 0 66 0;
#X connect 69 0 62 0;
#X connect 69 0 72 0;
#X connect 70 0 60 0;
#X connect 70 1 61 0;
#X connect 70 2 69 0;
#X connect 72 0 71 0;
#X connect 75 0 3 0;
#X connect 75 1 2 0;
#X connect 77 0 14 0;
#X connect 78 0 14 1;
#X connect 79 0 51 0;
#X connect 80 0 49 1;
#X connect 81 0 80 0;
#X connect 83 0 47 0;
#X coords 0 -1 1 1 220 80 2 30 30;
