#N canvas 130 56 956 687 12;
#X obj 19 511 hip~ 5;
#X floatatom 25 38 0 0 100 0 - - -;
#X obj 25 63 * 441;
#X obj 20 380 +~ 1;
#X text 69 35 <-- chunk size (100ths of a second);
#X obj 20 458 *~;
#X obj 26 211 line~;
#X obj 26 161 * 441;
#X floatatom 26 136 0 0 100 0 - - -;
#X obj 26 186 pack 0 100;
#X text 60 137 <-- read point in 100ths of a second;
#X obj 20 409 +~;
#X obj 76 408 samphold~;
#X obj 20 308 samphold~;
#X obj 20 355 *~;
#X obj 185 369 r~ phase;
#X obj 477 331 s~ phase;
#X obj 108 308 r~ phase;
#X obj 42 332 r~ phase;
#X obj 96 383 r~ phase;
#X obj 77 82 s chunk-size;
#X floatatom 477 177 0 0 0 0 - - -;
#X obj 77 57 * 0.01;
#X text 189 58 chunk size;
#X text 189 80 in seconds;
#X obj 488 232 r chunk-size;
#X obj 488 257 t b f;
#X obj 477 281 /;
#X obj 477 154 loadbang;
#X obj 185 393 -~ 0.5;
#X obj 185 417 *~ 0.5;
#X obj 185 440 cos~;
#X text 486 684 updated for Pd version 0.37;
#X obj 477 202 expr pow(2 \, $f1/120);
#X text 666 202 speed change;
#X obj 477 305 phasor~;
#X text 18 5 TWO OVERLAPPING SAMPLE READ ELEMENTS;
#N canvas 420 323 660 275 table 0;
#N canvas 0 50 450 300 (subpatch) 0;
#X array table22 44103 float 0;
#X coords 0 1.02 44100 -1.02 200 130 1;
#X restore 442 61 graph;
#X text 444 195 --- 44103 samples ---;
#X obj 41 148 loadbang;
#X obj 45 69 hip~ 5;
#X msg 161 88 bang;
#X obj 41 202 soundfiler;
#X text 202 88 <-- record;
#X text 134 155 v-- re-read original table;
#X obj 45 118 tabwrite~ table22;
#X msg 41 175 read ../sound/voice.wav table22;
#X obj 41 -6 inlet~;
#X obj 209 -8 inlet;
#X obj 209 16 route int bang;
#X obj 208 42 sel 0;
#X obj 240 67 bang;
#X connect 2 0 9 0;
#X connect 3 0 8 0;
#X connect 4 0 8 0;
#X connect 9 0 5 0;
#X connect 10 0 3 0;
#X connect 11 0 12 0;
#X connect 12 0 13 0;
#X connect 12 2 4 0;
#X connect 13 1 14 0;
#X connect 14 0 4 0;
#X restore 583 -12 pd table;
#X obj 25 110 s chunk-size-samples;
#X text 211 112 ... and in samples;
#X obj 26 234 s~ read-pt;
#X obj 77 360 r~ read-pt;
#X obj 564 324 +~ 0.5;
#X obj 565 350 wrap~;
#X obj 565 375 s~ phase2;
#X obj 20 283 r chunk-size-samples;
#X obj 274 391 +~ 1;
#X obj 274 469 *~;
#X obj 274 420 +~;
#X obj 329 419 samphold~;
#X obj 274 319 samphold~;
#X obj 274 366 *~;
#X obj 439 404 -~ 0.5;
#X obj 439 428 *~ 0.5;
#X obj 439 451 cos~;
#X obj 330 371 r~ read-pt;
#X obj 274 294 r chunk-size-samples;
#X obj 363 320 r~ phase2;
#X obj 296 343 r~ phase2;
#X obj 439 380 r~ phase2;
#X obj 339 394 r~ phase2;
#X obj 19 487 +~;
#X text 512 177 <-- transposition \, halftones/10;
#X text 515 280 loop frequency;
#X text 625 311 second phase signal;
#X text 625 331 out of phase from;
#X text 624 352 first one;
#X text 70 265 copy 1;
#X text 327 274 copy 2;
#X text 118 503 Here is the previous patch modified to use two copies
of the sample reader \, 180 degrees out of phase. The second sawtooth
signal is derived from the first one by adding a constant (0.5) and
wrapping the result to fit again between zero and one. The result is
the "phase2" signal.;
#X text 119 584 The computation of "chunk-size-samples" (as a message)
and "read-pt" (an audio signal) is the same for both copies and is
separated out at top left. At top right is the same loop frequency
calculation as before.;
#X text 120 654 Finally \, the two copies' outputs are added and the
result sent to the audio output.;
#X obj 20 434 tabread4~ table22;
#X obj 274 445 tabread4~ table22;
#X obj 576 -55 inlet~;
#X obj 634 -54 inlet;
#X obj 18 592 outlet~;
#X obj 689 -55 inlet;
#X obj 689 -30 / 255;
#X obj 689 -4 * 100;
#X obj 755 -55 inlet;
#X obj 755 -24 unpack f f f;
#X obj 794 55 sel 0;
#X obj 784 222 makenote;
#X obj 731 96 f 0;
#X obj 794 24 f 0;
#X obj 740 7 t b f;
#X obj 830 114 bang;
#X msg 791 84 0;
#X connect 0 0 76 0;
#X connect 1 0 2 0;
#X connect 1 0 22 0;
#X connect 2 0 38 0;
#X connect 3 0 11 0;
#X connect 5 0 61 0;
#X connect 6 0 40 0;
#X connect 7 0 9 0;
#X connect 8 0 7 0;
#X connect 9 0 6 0;
#X connect 11 0 72 0;
#X connect 12 0 11 1;
#X connect 13 0 14 0;
#X connect 14 0 3 0;
#X connect 15 0 29 0;
#X connect 17 0 13 1;
#X connect 18 0 14 1;
#X connect 19 0 12 1;
#X connect 21 0 33 0;
#X connect 22 0 20 0;
#X connect 25 0 26 0;
#X connect 26 0 27 0;
#X connect 26 1 27 1;
#X connect 27 0 35 0;
#X connect 28 0 21 0;
#X connect 29 0 30 0;
#X connect 30 0 31 0;
#X connect 31 0 5 1;
#X connect 33 0 27 0;
#X connect 35 0 16 0;
#X connect 35 0 42 0;
#X connect 41 0 12 0;
#X connect 42 0 43 0;
#X connect 43 0 44 0;
#X connect 45 0 13 0;
#X connect 46 0 48 0;
#X connect 47 0 61 1;
#X connect 48 0 73 0;
#X connect 49 0 48 1;
#X connect 50 0 51 0;
#X connect 51 0 46 0;
#X connect 52 0 53 0;
#X connect 53 0 54 0;
#X connect 54 0 47 1;
#X connect 55 0 49 0;
#X connect 56 0 50 0;
#X connect 57 0 50 1;
#X connect 58 0 51 1;
#X connect 59 0 52 0;
#X connect 60 0 49 1;
#X connect 61 0 0 0;
#X connect 72 0 5 0;
#X connect 73 0 47 0;
#X connect 74 0 37 0;
#X connect 75 0 37 1;
#X connect 77 0 78 0;
#X connect 78 0 79 0;
#X connect 79 0 1 0;
#X connect 80 0 81 0;
#X connect 81 0 86 0;
#X connect 81 1 85 1;
#X connect 82 0 88 0;
#X connect 82 1 87 0;
#X connect 84 0 21 0;
#X connect 85 0 82 0;
#X connect 86 0 85 0;
#X connect 86 1 84 1;
#X connect 87 0 84 0;
#X connect 88 0 35 0;
