#N canvas 25 73 804 657 10;
#X obj 191 12 cnv 15 118 183 empty empty LIRE_8_SON 18 22 0 14 -1375
-262144 0;
#X obj 196 55 bng 12 250 50 0 \$0-read8sample1 \$0-read8sample1IN empty
17 7 0 10 -99865 -4032 -1;
#X obj 213 42 hradio 11 1 0 8 sample8_seq-\$1 tempo_bar empty 0 -8
0 10 -4032 -1 -1 1;
#X obj 192 168 hradio 14 1 0 8 sampler_seq_bank-\$1-out sampler_seq_bank-\$1-in
banque_de_son 0 -6 0 10 -33289 -262144 -262144 0;
#X obj 463 -69 ../save/save-int-separate sampler_seq_bank-\$1;
#X obj 463 -23 s sampler_seq_bank-\$1-in;
#X obj 463 -121 r sampler_seq_bank-\$1-out;
#X floatatom 326 189 2 0 0 0 - - vide;
#X obj 463 -95 + 1;
#X obj 463 -47 - 1;
#N canvas 1 65 450 250 (subpatch) 0;
#X array \$1-sample_8seq1 70000 float 2;
#X coords 0 250 1 249 100 30 0;
#X restore 293 391 graph;
#X obj 119 390 outlet~;
#X obj 191 183 cnv 12 40 12 empty empty son 10 5 0 12 -4160 -1 0;
#X obj 212 54 ../save/save-8toogle \$1-8sample1;
#X obj 212 67 ../save/save-8toogle \$1-8sample2;
#X obj 212 80 ../save/save-8toogle \$1-8sample3;
#X obj 212 92 ../save/save-8toogle \$1-8sample4;
#X obj 212 105 ../save/save-8toogle \$1-8sample5;
#X obj 212 118 ../save/save-8toogle \$1-8sample6;
#X obj 212 131 ../save/save-8toogle \$1-8sample7;
#X obj 212 144 ../save/save-8toogle \$1-8sample8;
#N canvas 466 272 450 300 seq1 0;
#X obj -440 90 sel 0 1 2 3 4 5 6 7;
#X obj -351 234 sel 1;
#X obj -351 283 bng 15 250 50 0 empty empty empty 17 7 0 10 -262144
-1 -1;
#X obj -314 234 sel 1;
#X obj -314 283 bng 15 250 50 0 empty empty empty 17 7 0 10 -262144
-1 -1;
#X obj -276 234 sel 1;
#X obj -276 283 bng 15 250 50 0 empty empty empty 17 7 0 10 -262144
-1 -1;
#X obj -239 234 sel 1;
#X obj -239 283 bng 15 250 50 0 empty empty empty 17 7 0 10 -262144
-1 -1;
#X obj -201 234 sel 1;
#X obj -201 281 bng 15 250 50 0 empty empty empty 17 7 0 10 -262144
-1 -1;
#X obj -161 234 sel 1;
#X obj -161 283 bng 15 250 50 0 empty empty empty 17 7 0 10 -262144
-1 -1;
#X obj -122 234 sel 1;
#X obj -122 283 bng 15 250 50 0 empty empty empty 17 7 0 10 -262144
-1 -1;
#X obj -84 234 sel 1;
#X obj -84 283 bng 15 250 50 0 empty empty empty 17 7 0 10 -262144
-1 -1;
#X obj -351 156 i 0;
#X obj -314 156 i 0;
#X obj -275 156 i 0;
#X obj -239 156 i 0;
#X obj -202 156 i 0;
#X obj -161 156 i 0;
#X obj -123 156 i 0;
#X obj -84 156 i 0;
#X obj -169 365 bng 15 250 50 0 empty empty empty 17 7 0 10 -262144
-1 -1;
#X obj -220 91 unpack f f f f f f f f;
#X obj -212 41 inlet;
#X obj -433 38 inlet;
#X obj -169 405 s \$0-read8sample1IN;
#X connect 0 0 17 0;
#X connect 0 1 18 0;
#X connect 0 2 19 0;
#X connect 0 3 20 0;
#X connect 0 4 21 0;
#X connect 0 5 22 0;
#X connect 0 6 23 0;
#X connect 0 7 24 0;
#X connect 1 0 2 0;
#X connect 2 0 25 0;
#X connect 3 0 4 0;
#X connect 4 0 25 0;
#X connect 5 0 6 0;
#X connect 6 0 25 0;
#X connect 7 0 8 0;
#X connect 8 0 25 0;
#X connect 9 0 10 0;
#X connect 10 0 25 0;
#X connect 11 0 12 0;
#X connect 12 0 25 0;
#X connect 13 0 14 0;
#X connect 14 0 25 0;
#X connect 15 0 16 0;
#X connect 16 0 25 0;
#X connect 17 0 1 0;
#X connect 18 0 3 0;
#X connect 19 0 5 0;
#X connect 20 0 7 0;
#X connect 21 0 9 0;
#X connect 22 0 11 0;
#X connect 23 0 13 0;
#X connect 24 0 15 0;
#X connect 25 0 29 0;
#X connect 26 0 17 1;
#X connect 26 1 18 1;
#X connect 26 2 19 1;
#X connect 26 3 20 1;
#X connect 26 4 21 1;
#X connect 26 5 22 1;
#X connect 26 6 23 1;
#X connect 26 7 24 1;
#X connect 27 0 26 0;
#X connect 28 0 0 0;
#X restore 66 85 pd seq1;
#N canvas 466 272 450 300 seq2 0;
#X obj -440 90 sel 0 1 2 3 4 5 6 7;
#X obj -351 234 sel 1;
#X obj -351 283 bng 15 250 50 0 empty empty empty 17 7 0 10 -262144
-1 -1;
#X obj -314 234 sel 1;
#X obj -314 283 bng 15 250 50 0 empty empty empty 17 7 0 10 -262144
-1 -1;
#X obj -276 234 sel 1;
#X obj -276 283 bng 15 250 50 0 empty empty empty 17 7 0 10 -262144
-1 -1;
#X obj -239 234 sel 1;
#X obj -239 283 bng 15 250 50 0 empty empty empty 17 7 0 10 -262144
-1 -1;
#X obj -201 234 sel 1;
#X obj -201 281 bng 15 250 50 0 empty empty empty 17 7 0 10 -262144
-1 -1;
#X obj -161 234 sel 1;
#X obj -161 283 bng 15 250 50 0 empty empty empty 17 7 0 10 -262144
-1 -1;
#X obj -122 234 sel 1;
#X obj -122 283 bng 15 250 50 0 empty empty empty 17 7 0 10 -262144
-1 -1;
#X obj -84 234 sel 1;
#X obj -84 283 bng 15 250 50 0 empty empty empty 17 7 0 10 -262144
-1 -1;
#X obj -351 156 i 0;
#X obj -314 156 i 0;
#X obj -275 156 i 0;
#X obj -239 156 i 0;
#X obj -202 156 i 0;
#X obj -161 156 i 0;
#X obj -123 156 i 0;
#X obj -84 156 i 0;
#X obj -169 365 bng 15 250 50 0 empty empty empty 17 7 0 10 -262144
-1 -1;
#X obj -220 91 unpack f f f f f f f f;
#X obj -212 41 inlet;
#X obj -433 38 inlet;
#X obj -169 420 s \$0-read8sample2IN;
#X connect 0 0 17 0;
#X connect 0 1 18 0;
#X connect 0 2 19 0;
#X connect 0 3 20 0;
#X connect 0 4 21 0;
#X connect 0 5 22 0;
#X connect 0 6 23 0;
#X connect 0 7 24 0;
#X connect 1 0 2 0;
#X connect 2 0 25 0;
#X connect 3 0 4 0;
#X connect 4 0 25 0;
#X connect 5 0 6 0;
#X connect 6 0 25 0;
#X connect 7 0 8 0;
#X connect 8 0 25 0;
#X connect 9 0 10 0;
#X connect 10 0 25 0;
#X connect 11 0 12 0;
#X connect 12 0 25 0;
#X connect 13 0 14 0;
#X connect 14 0 25 0;
#X connect 15 0 16 0;
#X connect 16 0 25 0;
#X connect 17 0 1 0;
#X connect 18 0 3 0;
#X connect 19 0 5 0;
#X connect 20 0 7 0;
#X connect 21 0 9 0;
#X connect 22 0 11 0;
#X connect 23 0 13 0;
#X connect 24 0 15 0;
#X connect 25 0 29 0;
#X connect 26 0 17 1;
#X connect 26 1 18 1;
#X connect 26 2 19 1;
#X connect 26 3 20 1;
#X connect 26 4 21 1;
#X connect 26 5 22 1;
#X connect 26 6 23 1;
#X connect 26 7 24 1;
#X connect 27 0 26 0;
#X connect 28 0 0 0;
#X restore 67 112 pd seq2;
#N canvas 466 272 450 300 seq3 0;
#X obj -440 90 sel 0 1 2 3 4 5 6 7;
#X obj -351 234 sel 1;
#X obj -351 283 bng 15 250 50 0 empty empty empty 17 7 0 10 -262144
-1 -1;
#X obj -314 234 sel 1;
#X obj -314 283 bng 15 250 50 0 empty empty empty 17 7 0 10 -262144
-1 -1;
#X obj -276 234 sel 1;
#X obj -276 283 bng 15 250 50 0 empty empty empty 17 7 0 10 -262144
-1 -1;
#X obj -239 234 sel 1;
#X obj -239 283 bng 15 250 50 0 empty empty empty 17 7 0 10 -262144
-1 -1;
#X obj -201 234 sel 1;
#X obj -201 281 bng 15 250 50 0 empty empty empty 17 7 0 10 -262144
-1 -1;
#X obj -161 234 sel 1;
#X obj -161 283 bng 15 250 50 0 empty empty empty 17 7 0 10 -262144
-1 -1;
#X obj -122 234 sel 1;
#X obj -122 283 bng 15 250 50 0 empty empty empty 17 7 0 10 -262144
-1 -1;
#X obj -84 234 sel 1;
#X obj -84 283 bng 15 250 50 0 empty empty empty 17 7 0 10 -262144
-1 -1;
#X obj -351 156 i 0;
#X obj -314 156 i 0;
#X obj -275 156 i 0;
#X obj -239 156 i 0;
#X obj -202 156 i 0;
#X obj -161 156 i 0;
#X obj -123 156 i 0;
#X obj -84 156 i 0;
#X obj -169 365 bng 15 250 50 0 empty empty empty 17 7 0 10 -262144
-1 -1;
#X obj -220 91 unpack f f f f f f f f;
#X obj -212 41 inlet;
#X obj -433 38 inlet;
#X obj -177 426 s \$0-read8sample3IN;
#X connect 0 0 17 0;
#X connect 0 1 18 0;
#X connect 0 2 19 0;
#X connect 0 3 20 0;
#X connect 0 4 21 0;
#X connect 0 5 22 0;
#X connect 0 6 23 0;
#X connect 0 7 24 0;
#X connect 1 0 2 0;
#X connect 2 0 25 0;
#X connect 3 0 4 0;
#X connect 4 0 25 0;
#X connect 5 0 6 0;
#X connect 6 0 25 0;
#X connect 7 0 8 0;
#X connect 8 0 25 0;
#X connect 9 0 10 0;
#X connect 10 0 25 0;
#X connect 11 0 12 0;
#X connect 12 0 25 0;
#X connect 13 0 14 0;
#X connect 14 0 25 0;
#X connect 15 0 16 0;
#X connect 16 0 25 0;
#X connect 17 0 1 0;
#X connect 18 0 3 0;
#X connect 19 0 5 0;
#X connect 20 0 7 0;
#X connect 21 0 9 0;
#X connect 22 0 11 0;
#X connect 23 0 13 0;
#X connect 24 0 15 0;
#X connect 25 0 29 0;
#X connect 26 0 17 1;
#X connect 26 1 18 1;
#X connect 26 2 19 1;
#X connect 26 3 20 1;
#X connect 26 4 21 1;
#X connect 26 5 22 1;
#X connect 26 6 23 1;
#X connect 26 7 24 1;
#X connect 27 0 26 0;
#X connect 28 0 0 0;
#X restore 66 135 pd seq3;
#N canvas 466 272 450 300 seq4 0;
#X obj -440 90 sel 0 1 2 3 4 5 6 7;
#X obj -351 234 sel 1;
#X obj -351 283 bng 15 250 50 0 empty empty empty 17 7 0 10 -262144
-1 -1;
#X obj -314 234 sel 1;
#X obj -314 283 bng 15 250 50 0 empty empty empty 17 7 0 10 -262144
-1 -1;
#X obj -276 234 sel 1;
#X obj -276 283 bng 15 250 50 0 empty empty empty 17 7 0 10 -262144
-1 -1;
#X obj -239 234 sel 1;
#X obj -239 283 bng 15 250 50 0 empty empty empty 17 7 0 10 -262144
-1 -1;
#X obj -201 234 sel 1;
#X obj -201 281 bng 15 250 50 0 empty empty empty 17 7 0 10 -262144
-1 -1;
#X obj -161 234 sel 1;
#X obj -161 283 bng 15 250 50 0 empty empty empty 17 7 0 10 -262144
-1 -1;
#X obj -122 234 sel 1;
#X obj -122 283 bng 15 250 50 0 empty empty empty 17 7 0 10 -262144
-1 -1;
#X obj -84 234 sel 1;
#X obj -84 283 bng 15 250 50 0 empty empty empty 17 7 0 10 -262144
-1 -1;
#X obj -351 156 i 0;
#X obj -314 156 i 0;
#X obj -275 156 i 0;
#X obj -239 156 i 0;
#X obj -202 156 i 0;
#X obj -161 156 i 0;
#X obj -123 156 i 0;
#X obj -84 156 i 0;
#X obj -169 365 bng 15 250 50 0 empty empty empty 17 7 0 10 -262144
-1 -1;
#X obj -220 91 unpack f f f f f f f f;
#X obj -212 41 inlet;
#X obj -433 38 inlet;
#X obj -170 411 s \$0-read8sample4IN;
#X connect 0 0 17 0;
#X connect 0 1 18 0;
#X connect 0 2 19 0;
#X connect 0 3 20 0;
#X connect 0 4 21 0;
#X connect 0 5 22 0;
#X connect 0 6 23 0;
#X connect 0 7 24 0;
#X connect 1 0 2 0;
#X connect 2 0 25 0;
#X connect 3 0 4 0;
#X connect 4 0 25 0;
#X connect 5 0 6 0;
#X connect 6 0 25 0;
#X connect 7 0 8 0;
#X connect 8 0 25 0;
#X connect 9 0 10 0;
#X connect 10 0 25 0;
#X connect 11 0 12 0;
#X connect 12 0 25 0;
#X connect 13 0 14 0;
#X connect 14 0 25 0;
#X connect 15 0 16 0;
#X connect 16 0 25 0;
#X connect 17 0 1 0;
#X connect 18 0 3 0;
#X connect 19 0 5 0;
#X connect 20 0 7 0;
#X connect 21 0 9 0;
#X connect 22 0 11 0;
#X connect 23 0 13 0;
#X connect 24 0 15 0;
#X connect 25 0 29 0;
#X connect 26 0 17 1;
#X connect 26 1 18 1;
#X connect 26 2 19 1;
#X connect 26 3 20 1;
#X connect 26 4 21 1;
#X connect 26 5 22 1;
#X connect 26 6 23 1;
#X connect 26 7 24 1;
#X connect 27 0 26 0;
#X connect 28 0 0 0;
#X restore 68 158 pd seq4;
#N canvas 466 272 450 300 seq5 0;
#X obj -440 90 sel 0 1 2 3 4 5 6 7;
#X obj -351 234 sel 1;
#X obj -351 283 bng 15 250 50 0 empty empty empty 17 7 0 10 -262144
-1 -1;
#X obj -314 234 sel 1;
#X obj -314 283 bng 15 250 50 0 empty empty empty 17 7 0 10 -262144
-1 -1;
#X obj -276 234 sel 1;
#X obj -276 283 bng 15 250 50 0 empty empty empty 17 7 0 10 -262144
-1 -1;
#X obj -239 234 sel 1;
#X obj -239 283 bng 15 250 50 0 empty empty empty 17 7 0 10 -262144
-1 -1;
#X obj -201 234 sel 1;
#X obj -201 281 bng 15 250 50 0 empty empty empty 17 7 0 10 -262144
-1 -1;
#X obj -161 234 sel 1;
#X obj -161 283 bng 15 250 50 0 empty empty empty 17 7 0 10 -262144
-1 -1;
#X obj -122 234 sel 1;
#X obj -122 283 bng 15 250 50 0 empty empty empty 17 7 0 10 -262144
-1 -1;
#X obj -84 234 sel 1;
#X obj -84 283 bng 15 250 50 0 empty empty empty 17 7 0 10 -262144
-1 -1;
#X obj -351 156 i 0;
#X obj -314 156 i 0;
#X obj -275 156 i 0;
#X obj -239 156 i 0;
#X obj -202 156 i 0;
#X obj -161 156 i 0;
#X obj -123 156 i 0;
#X obj -84 156 i 0;
#X obj -169 365 bng 15 250 50 0 empty empty empty 17 7 0 10 -262144
-1 -1;
#X obj -220 91 unpack f f f f f f f f;
#X obj -212 41 inlet;
#X obj -433 38 inlet;
#X obj -187 418 s \$0-read8sample5IN;
#X connect 0 0 17 0;
#X connect 0 1 18 0;
#X connect 0 2 19 0;
#X connect 0 3 20 0;
#X connect 0 4 21 0;
#X connect 0 5 22 0;
#X connect 0 6 23 0;
#X connect 0 7 24 0;
#X connect 1 0 2 0;
#X connect 2 0 25 0;
#X connect 3 0 4 0;
#X connect 4 0 25 0;
#X connect 5 0 6 0;
#X connect 6 0 25 0;
#X connect 7 0 8 0;
#X connect 8 0 25 0;
#X connect 9 0 10 0;
#X connect 10 0 25 0;
#X connect 11 0 12 0;
#X connect 12 0 25 0;
#X connect 13 0 14 0;
#X connect 14 0 25 0;
#X connect 15 0 16 0;
#X connect 16 0 25 0;
#X connect 17 0 1 0;
#X connect 18 0 3 0;
#X connect 19 0 5 0;
#X connect 20 0 7 0;
#X connect 21 0 9 0;
#X connect 22 0 11 0;
#X connect 23 0 13 0;
#X connect 24 0 15 0;
#X connect 25 0 29 0;
#X connect 26 0 17 1;
#X connect 26 1 18 1;
#X connect 26 2 19 1;
#X connect 26 3 20 1;
#X connect 26 4 21 1;
#X connect 26 5 22 1;
#X connect 26 6 23 1;
#X connect 26 7 24 1;
#X connect 27 0 26 0;
#X connect 28 0 0 0;
#X restore 69 180 pd seq5;
#N canvas 466 272 450 300 seq6 0;
#X obj -440 90 sel 0 1 2 3 4 5 6 7;
#X obj -351 234 sel 1;
#X obj -351 283 bng 15 250 50 0 empty empty empty 17 7 0 10 -262144
-1 -1;
#X obj -314 234 sel 1;
#X obj -314 283 bng 15 250 50 0 empty empty empty 17 7 0 10 -262144
-1 -1;
#X obj -276 234 sel 1;
#X obj -276 283 bng 15 250 50 0 empty empty empty 17 7 0 10 -262144
-1 -1;
#X obj -239 234 sel 1;
#X obj -239 283 bng 15 250 50 0 empty empty empty 17 7 0 10 -262144
-1 -1;
#X obj -201 234 sel 1;
#X obj -201 281 bng 15 250 50 0 empty empty empty 17 7 0 10 -262144
-1 -1;
#X obj -161 234 sel 1;
#X obj -161 283 bng 15 250 50 0 empty empty empty 17 7 0 10 -262144
-1 -1;
#X obj -122 234 sel 1;
#X obj -122 283 bng 15 250 50 0 empty empty empty 17 7 0 10 -262144
-1 -1;
#X obj -84 234 sel 1;
#X obj -84 283 bng 15 250 50 0 empty empty empty 17 7 0 10 -262144
-1 -1;
#X obj -351 156 i 0;
#X obj -314 156 i 0;
#X obj -275 156 i 0;
#X obj -239 156 i 0;
#X obj -202 156 i 0;
#X obj -161 156 i 0;
#X obj -123 156 i 0;
#X obj -84 156 i 0;
#X obj -169 365 bng 15 250 50 0 empty empty empty 17 7 0 10 -262144
-1 -1;
#X obj -220 91 unpack f f f f f f f f;
#X obj -212 41 inlet;
#X obj -433 38 inlet;
#X obj -169 400 s \$0-read8sample6IN;
#X connect 0 0 17 0;
#X connect 0 1 18 0;
#X connect 0 2 19 0;
#X connect 0 3 20 0;
#X connect 0 4 21 0;
#X connect 0 5 22 0;
#X connect 0 6 23 0;
#X connect 0 7 24 0;
#X connect 1 0 2 0;
#X connect 2 0 25 0;
#X connect 3 0 4 0;
#X connect 4 0 25 0;
#X connect 5 0 6 0;
#X connect 6 0 25 0;
#X connect 7 0 8 0;
#X connect 8 0 25 0;
#X connect 9 0 10 0;
#X connect 10 0 25 0;
#X connect 11 0 12 0;
#X connect 12 0 25 0;
#X connect 13 0 14 0;
#X connect 14 0 25 0;
#X connect 15 0 16 0;
#X connect 16 0 25 0;
#X connect 17 0 1 0;
#X connect 18 0 3 0;
#X connect 19 0 5 0;
#X connect 20 0 7 0;
#X connect 21 0 9 0;
#X connect 22 0 11 0;
#X connect 23 0 13 0;
#X connect 24 0 15 0;
#X connect 25 0 29 0;
#X connect 26 0 17 1;
#X connect 26 1 18 1;
#X connect 26 2 19 1;
#X connect 26 3 20 1;
#X connect 26 4 21 1;
#X connect 26 5 22 1;
#X connect 26 6 23 1;
#X connect 26 7 24 1;
#X connect 27 0 26 0;
#X connect 28 0 0 0;
#X restore 68 202 pd seq6;
#N canvas 466 272 450 300 seq7 0;
#X obj -440 90 sel 0 1 2 3 4 5 6 7;
#X obj -351 234 sel 1;
#X obj -351 283 bng 15 250 50 0 empty empty empty 17 7 0 10 -262144
-1 -1;
#X obj -314 234 sel 1;
#X obj -314 283 bng 15 250 50 0 empty empty empty 17 7 0 10 -262144
-1 -1;
#X obj -276 234 sel 1;
#X obj -276 283 bng 15 250 50 0 empty empty empty 17 7 0 10 -262144
-1 -1;
#X obj -239 234 sel 1;
#X obj -239 283 bng 15 250 50 0 empty empty empty 17 7 0 10 -262144
-1 -1;
#X obj -201 234 sel 1;
#X obj -201 281 bng 15 250 50 0 empty empty empty 17 7 0 10 -262144
-1 -1;
#X obj -161 234 sel 1;
#X obj -161 283 bng 15 250 50 0 empty empty empty 17 7 0 10 -262144
-1 -1;
#X obj -122 234 sel 1;
#X obj -122 283 bng 15 250 50 0 empty empty empty 17 7 0 10 -262144
-1 -1;
#X obj -84 234 sel 1;
#X obj -84 283 bng 15 250 50 0 empty empty empty 17 7 0 10 -262144
-1 -1;
#X obj -351 156 i 0;
#X obj -314 156 i 0;
#X obj -275 156 i 0;
#X obj -239 156 i 0;
#X obj -202 156 i 0;
#X obj -161 156 i 0;
#X obj -123 156 i 0;
#X obj -84 156 i 0;
#X obj -169 365 bng 15 250 50 0 empty empty empty 17 7 0 10 -262144
-1 -1;
#X obj -220 91 unpack f f f f f f f f;
#X obj -212 41 inlet;
#X obj -433 38 inlet;
#X obj -169 416 s \$0-read8sample7IN;
#X connect 0 0 17 0;
#X connect 0 1 18 0;
#X connect 0 2 19 0;
#X connect 0 3 20 0;
#X connect 0 4 21 0;
#X connect 0 5 22 0;
#X connect 0 6 23 0;
#X connect 0 7 24 0;
#X connect 1 0 2 0;
#X connect 2 0 25 0;
#X connect 3 0 4 0;
#X connect 4 0 25 0;
#X connect 5 0 6 0;
#X connect 6 0 25 0;
#X connect 7 0 8 0;
#X connect 8 0 25 0;
#X connect 9 0 10 0;
#X connect 10 0 25 0;
#X connect 11 0 12 0;
#X connect 12 0 25 0;
#X connect 13 0 14 0;
#X connect 14 0 25 0;
#X connect 15 0 16 0;
#X connect 16 0 25 0;
#X connect 17 0 1 0;
#X connect 18 0 3 0;
#X connect 19 0 5 0;
#X connect 20 0 7 0;
#X connect 21 0 9 0;
#X connect 22 0 11 0;
#X connect 23 0 13 0;
#X connect 24 0 15 0;
#X connect 25 0 29 0;
#X connect 26 0 17 1;
#X connect 26 1 18 1;
#X connect 26 2 19 1;
#X connect 26 3 20 1;
#X connect 26 4 21 1;
#X connect 26 5 22 1;
#X connect 26 6 23 1;
#X connect 26 7 24 1;
#X connect 27 0 26 0;
#X connect 28 0 0 0;
#X restore 68 228 pd seq7;
#N canvas 466 272 450 300 seq8 0;
#X obj -440 90 sel 0 1 2 3 4 5 6 7;
#X obj -351 234 sel 1;
#X obj -351 283 bng 15 250 50 0 empty empty empty 17 7 0 10 -262144
-1 -1;
#X obj -314 234 sel 1;
#X obj -314 283 bng 15 250 50 0 empty empty empty 17 7 0 10 -262144
-1 -1;
#X obj -276 234 sel 1;
#X obj -276 283 bng 15 250 50 0 empty empty empty 17 7 0 10 -262144
-1 -1;
#X obj -239 234 sel 1;
#X obj -239 283 bng 15 250 50 0 empty empty empty 17 7 0 10 -262144
-1 -1;
#X obj -201 234 sel 1;
#X obj -201 281 bng 15 250 50 0 empty empty empty 17 7 0 10 -262144
-1 -1;
#X obj -161 234 sel 1;
#X obj -161 283 bng 15 250 50 0 empty empty empty 17 7 0 10 -262144
-1 -1;
#X obj -122 234 sel 1;
#X obj -122 283 bng 15 250 50 0 empty empty empty 17 7 0 10 -262144
-1 -1;
#X obj -84 234 sel 1;
#X obj -84 283 bng 15 250 50 0 empty empty empty 17 7 0 10 -262144
-1 -1;
#X obj -351 156 i 0;
#X obj -314 156 i 0;
#X obj -275 156 i 0;
#X obj -239 156 i 0;
#X obj -202 156 i 0;
#X obj -161 156 i 0;
#X obj -123 156 i 0;
#X obj -84 156 i 0;
#X obj -169 365 bng 15 250 50 0 empty empty empty 17 7 0 10 -262144
-1 -1;
#X obj -220 91 unpack f f f f f f f f;
#X obj -212 41 inlet;
#X obj -433 38 inlet;
#X obj -169 420 s \$0-read8sample8IN;
#X connect 0 0 17 0;
#X connect 0 1 18 0;
#X connect 0 2 19 0;
#X connect 0 3 20 0;
#X connect 0 4 21 0;
#X connect 0 5 22 0;
#X connect 0 6 23 0;
#X connect 0 7 24 0;
#X connect 1 0 2 0;
#X connect 2 0 25 0;
#X connect 3 0 4 0;
#X connect 4 0 25 0;
#X connect 5 0 6 0;
#X connect 6 0 25 0;
#X connect 7 0 8 0;
#X connect 8 0 25 0;
#X connect 9 0 10 0;
#X connect 10 0 25 0;
#X connect 11 0 12 0;
#X connect 12 0 25 0;
#X connect 13 0 14 0;
#X connect 14 0 25 0;
#X connect 15 0 16 0;
#X connect 16 0 25 0;
#X connect 17 0 1 0;
#X connect 18 0 3 0;
#X connect 19 0 5 0;
#X connect 20 0 7 0;
#X connect 21 0 9 0;
#X connect 22 0 11 0;
#X connect 23 0 13 0;
#X connect 24 0 15 0;
#X connect 25 0 29 0;
#X connect 26 0 17 1;
#X connect 26 1 18 1;
#X connect 26 2 19 1;
#X connect 26 3 20 1;
#X connect 26 4 21 1;
#X connect 26 5 22 1;
#X connect 26 6 23 1;
#X connect 26 7 24 1;
#X connect 27 0 26 0;
#X connect 28 0 0 0;
#X restore 67 252 pd seq8;
#X obj 21 26 r sample8_seq-\$1;
#N canvas 1 65 450 250 (subpatch) 0;
#X array \$1-sample_8seq2 70000 float 2;
#X coords 0 250 1 249 100 30 0;
#X restore 330 391 graph;
#N canvas 1 65 450 250 (subpatch) 0;
#X array \$1-sample_8seq3 70000 float 2;
#X coords 0 250 1 249 100 30 0;
#X restore 366 391 graph;
#N canvas 1 65 450 250 (subpatch) 0;
#X array \$1-sample_8seq4 70000 float 2;
#X coords 0 250 1 249 100 30 0;
#X restore 402 391 graph;
#N canvas 1 65 450 250 (subpatch) 0;
#X array \$1-sample_8seq5 70000 float 2;
#X coords 0 250 1 249 100 30 0;
#X restore 293 412 graph;
#N canvas 1 65 450 250 (subpatch) 0;
#X array \$1-sample_8seq6 70000 float 2;
#X coords 0 250 1 249 100 30 0;
#X restore 331 412 graph;
#N canvas 1 65 450 250 (subpatch) 0;
#X array \$1-sample_8seq7 70000 float 2;
#X coords 0 250 1 249 100 30 0;
#X restore 368 412 graph;
#N canvas 1 65 450 250 (subpatch) 0;
#X array \$1-sample_8seq8 70000 float 2;
#X coords 0 250 1 249 100 30 0;
#X restore 404 412 graph;
#N canvas 634 193 774 380 loadFile 0;
#X obj 206 108 pack s \$1;
#X obj 381 109 pack s \$1;
#X obj 554 109 pack s \$1;
#X obj 31 108 pack s \$1;
#X msg 31 148 read \$1 \$2-sample_8seq1;
#X msg 31 77 ../samples/oneShot/\$1/1.wav;
#X obj 29 245 pack s \$1;
#X obj 205 246 pack s \$1;
#X obj 381 247 pack s \$1;
#X obj 558 247 pack s \$1;
#X msg 206 77 ../samples/oneShot/\$1/2.wav;
#X msg 381 78 ../samples/oneShot/\$1/3.wav;
#X msg 554 78 ../samples/oneShot/\$1/4.wav;
#X msg 29 214 ../samples/oneShot/\$1/5.wav;
#X msg 205 215 ../samples/oneShot/\$1/6.wav;
#X msg 381 216 ../samples/oneShot/\$1/7.wav;
#X msg 558 216 ../samples/oneShot/\$1/8.wav;
#X msg 206 148 read \$1 \$2-sample_8seq2;
#X msg 381 149 read \$1 \$2-sample_8seq3;
#X msg 554 149 read \$1 \$2-sample_8seq4;
#X msg 29 285 read \$1 \$2-sample_8seq5;
#X msg 205 286 read \$1 \$2-sample_8seq6;
#X msg 381 287 read \$1 \$2-sample_8seq7;
#X msg 558 287 read \$1 \$2-sample_8seq8;
#X obj 313 355 soundfiler;
#X obj 313 330 r \$0-tosf;
#X obj 33 180 s \$0-tosf;
#X obj 205 176 s \$0-tosf;
#X obj 380 177 s \$0-tosf;
#X obj 555 176 s \$0-tosf;
#X obj 29 311 s \$0-tosf;
#X obj 205 316 s \$0-tosf;
#X obj 381 315 s \$0-tosf;
#X obj 558 317 s \$0-tosf;
#X obj 340 3 inlet;
#X obj 67 14 i 1;
#X obj 66 38 pack 1;
#X obj 65 -21 bng 15 250 50 0 empty empty empty 17 7 0 10 -262144 -1
-1;
#X connect 0 0 17 0;
#X connect 1 0 18 0;
#X connect 2 0 19 0;
#X connect 3 0 4 0;
#X connect 4 0 26 0;
#X connect 5 0 3 0;
#X connect 6 0 20 0;
#X connect 7 0 21 0;
#X connect 8 0 22 0;
#X connect 9 0 23 0;
#X connect 10 0 0 0;
#X connect 11 0 1 0;
#X connect 12 0 2 0;
#X connect 13 0 6 0;
#X connect 14 0 7 0;
#X connect 15 0 8 0;
#X connect 16 0 9 0;
#X connect 17 0 27 0;
#X connect 18 0 28 0;
#X connect 19 0 29 0;
#X connect 20 0 30 0;
#X connect 21 0 31 0;
#X connect 22 0 32 0;
#X connect 23 0 33 0;
#X connect 25 0 24 0;
#X connect 34 0 5 0;
#X connect 34 0 10 0;
#X connect 34 0 11 0;
#X connect 34 0 12 0;
#X connect 34 0 16 0;
#X connect 34 0 15 0;
#X connect 34 0 14 0;
#X connect 34 0 13 0;
#X connect 35 0 36 0;
#X connect 36 0 5 0;
#X connect 37 0 35 0;
#X restore 402 142 pd loadFile;
#X obj 402 113 pack 1;
#N canvas 355 76 834 435 playsound 0;
#X msg 27 81 stop;
#X obj 67 82 bng 15 250 50 0 empty empty empty 17 7 0 10 -262144 -1
-1;
#X obj 67 21 r \$0-read8sample1;
#X obj 67 49 route bang;
#X msg 182 81 stop;
#X obj 222 82 bng 15 250 50 0 empty empty empty 17 7 0 10 -262144 -1
-1;
#X obj 222 49 route bang;
#X msg 335 80 stop;
#X obj 375 81 bng 15 250 50 0 empty empty empty 17 7 0 10 -262144 -1
-1;
#X obj 375 48 route bang;
#X msg 487 80 stop;
#X obj 527 81 bng 15 250 50 0 empty empty empty 17 7 0 10 -262144 -1
-1;
#X obj 527 48 route bang;
#X msg 15 216 stop;
#X obj 55 217 bng 15 250 50 0 empty empty empty 17 7 0 10 -262144 -1
-1;
#X obj 55 184 route bang;
#X msg 173 216 stop;
#X obj 213 217 bng 15 250 50 0 empty empty empty 17 7 0 10 -262144
-1 -1;
#X obj 213 184 route bang;
#X msg 329 216 stop;
#X obj 369 217 bng 15 250 50 0 empty empty empty 17 7 0 10 -262144
-1 -1;
#X obj 369 184 route bang;
#X msg 487 216 stop;
#X obj 527 217 bng 15 250 50 0 empty empty empty 17 7 0 10 -262144
-1 -1;
#X obj 527 184 route bang;
#X obj 222 21 r \$0-read8sample2;
#X obj 375 20 r \$0-read8sample3;
#X obj 527 20 r \$0-read8sample4;
#X obj 55 156 r \$0-read8sample5;
#X obj 213 156 r \$0-read8sample6;
#X obj 369 156 r \$0-read8sample7;
#X obj 527 156 r \$0-read8sample8;
#X obj 353 348 outlet~;
#X obj 27 129 tabplay~ \$1-sample_8seq1;
#X obj 182 129 tabplay~ \$1-sample_8seq2;
#X obj 335 128 tabplay~ \$1-sample_8seq3;
#X obj 487 129 tabplay~ \$1-sample_8seq4;
#X obj 15 264 tabplay~ \$1-sample_8seq5;
#X obj 173 264 tabplay~ \$1-sample_8seq6;
#X obj 329 264 tabplay~ \$1-sample_8seq7;
#X obj 487 264 tabplay~ \$1-sample_8seq8;
#X connect 0 0 33 0;
#X connect 1 0 33 0;
#X connect 2 0 3 0;
#X connect 3 0 1 0;
#X connect 4 0 34 0;
#X connect 5 0 34 0;
#X connect 6 0 5 0;
#X connect 7 0 35 0;
#X connect 8 0 35 0;
#X connect 9 0 8 0;
#X connect 10 0 36 0;
#X connect 11 0 36 0;
#X connect 12 0 11 0;
#X connect 13 0 37 0;
#X connect 14 0 37 0;
#X connect 15 0 14 0;
#X connect 16 0 38 0;
#X connect 17 0 38 0;
#X connect 18 0 17 0;
#X connect 19 0 39 0;
#X connect 20 0 39 0;
#X connect 21 0 20 0;
#X connect 22 0 40 0;
#X connect 23 0 40 0;
#X connect 24 0 23 0;
#X connect 25 0 6 0;
#X connect 26 0 9 0;
#X connect 27 0 12 0;
#X connect 28 0 15 0;
#X connect 29 0 18 0;
#X connect 30 0 21 0;
#X connect 31 0 24 0;
#X connect 33 0 32 0;
#X connect 34 0 32 0;
#X connect 35 0 32 0;
#X connect 36 0 32 0;
#X connect 37 0 32 0;
#X connect 38 0 32 0;
#X connect 39 0 32 0;
#X connect 40 0 32 0;
#X restore 119 359 pd playsound;
#X obj 196 68 bng 12 250 50 0 \$0-read8sample2 \$0-read8sample2IN empty
17 7 0 10 -99865 -4032 -1;
#X obj 196 80 bng 12 250 50 0 \$0-read8sample3 \$0-read8sample3IN empty
17 7 0 10 -99865 -4032 -1;
#X obj 196 93 bng 12 250 50 0 \$0-read8sample4 \$0-read8sample4IN empty
17 7 0 10 -99865 -4032 -1;
#X obj 196 105 bng 12 250 50 0 \$0-read8sample5 \$0-read8sample5IN
empty 17 7 0 10 -99865 -4032 -1;
#X obj 197 119 bng 12 250 50 0 \$0-read8sample6 \$0-read8sample6IN
empty 17 7 0 10 -99865 -4032 -1;
#X obj 196 132 bng 12 250 50 0 \$0-read8sample7 \$0-read8sample7IN
empty 17 7 0 10 -99865 -4032 -1;
#X obj 196 145 bng 12 250 50 0 \$0-read8sample8 \$0-read8sample8IN
empty 17 7 0 10 -99865 -4032 -1;
#X obj 102 -104 inlet;
#N canvas 670 22 516 418 midi-input 0;
#X obj 79 -237 route 60 63 65 66 67 70 72 75;
#X obj 131 46 s \$0-read8sample2IN;
#X obj 259 179 s \$0-read8sample8IN;
#X obj 238 156 s \$0-read8sample7IN;
#X obj 216 132 s \$0-read8sample6IN;
#X obj 195 109 s \$0-read8sample5IN;
#X obj 174 86 s \$0-read8sample4IN;
#X obj 152 66 s \$0-read8sample3IN;
#X obj 110 25 s \$0-read8sample1IN;
#X obj 78 -195 sel 0;
#X obj 99 -169 sel 0;
#X obj 206 -32 sel 0;
#X obj 184 -55 sel 0;
#X obj 227 -8 sel 0;
#X obj 120 -146 sel 0;
#X obj 142 -114 sel 0;
#X obj 163 -82 sel 0;
#X obj 79 -264 inlet;
#X obj -19 -234 s \$0-midiOut;
#X connect 0 0 9 0;
#X connect 0 1 10 0;
#X connect 0 2 14 0;
#X connect 0 3 15 0;
#X connect 0 4 16 0;
#X connect 0 5 12 0;
#X connect 0 6 11 0;
#X connect 0 7 13 0;
#X connect 9 1 8 0;
#X connect 10 1 1 0;
#X connect 11 1 3 0;
#X connect 12 1 4 0;
#X connect 13 1 2 0;
#X connect 14 1 7 0;
#X connect 15 1 6 0;
#X connect 16 1 5 0;
#X connect 17 0 0 0;
#X connect 17 0 18 0;
#X restore 102 -72 pd midi-input;
#X text 82 -53 send to small bang on the left;
#X text 97 320 recieve from small bang on the left;
#X obj 191 12 cnv 12 40 12 empty empty midi 4 6 0 12 -204799 -1 0;
#X obj 269 183 cnv 12 40 12 empty empty midi 4 6 0 12 -204799 -1 0
;
#X obj 493 399 outlet;
#X obj 494 347 r \$0-midiOut;
#X connect 4 0 9 0;
#X connect 6 0 8 0;
#X connect 8 0 7 0;
#X connect 8 0 4 0;
#X connect 8 0 38 0;
#X connect 9 0 5 0;
#X connect 13 0 21 1;
#X connect 14 0 22 1;
#X connect 15 0 23 1;
#X connect 16 0 24 1;
#X connect 17 0 25 1;
#X connect 18 0 26 1;
#X connect 19 0 27 1;
#X connect 20 0 28 1;
#X connect 29 0 21 0;
#X connect 29 0 22 0;
#X connect 29 0 23 0;
#X connect 29 0 24 0;
#X connect 29 0 25 0;
#X connect 29 0 26 0;
#X connect 29 0 27 0;
#X connect 29 0 28 0;
#X connect 38 0 37 0;
#X connect 39 0 11 0;
#X connect 47 0 48 0;
#X connect 54 0 53 0;
#X coords 0 -1 100 1 120 190 2 190 8;
