#N canvas 149 241 1214 484 10;
#X obj 101 104 cnv 15 164 60 empty empty AUDIO 20 25 0 14 -184827 -1
0;
#X obj 102 120 vsl 15 40 0 1 0 0 empty empty 1 4 20 0 10 -262144 -1
-1 3783 1;
#X floatatom 49 172 5 0 0 0 - - -;
#X obj 195 139 tgl 15 0 empty empty muet 17 7 0 10 -262144 -1 -1 0
1;
#X msg 314 204 0;
#X obj 287 179 sel 1;
#X obj -257 282 *~;
#X obj -256 60 inlet~;
#X obj 85 402 dac~;
#X obj -181 60 inlet~;
#X obj 84 359 *~;
#X msg 287 331 0.95;
#X obj 303 308 loadbang;
#X obj 170 121 vsl 15 40 0 1 0 0 empty empty 2 4 20 0 10 -262144 -1
-1 3393 1;
#X floatatom 121 172 5 0 0 0 - - -;
#X obj -182 280 *~;
#X obj -94 61 inlet~;
#X obj -93 277 *~;
#X floatatom 194 171 5 0 0 0 - - -;
#X obj 247 120 vsl 15 40 0 1 0 0 empty empty 3 4 20 0 10 -262144 -1
-1 3900 1;
#X obj 101 104 cnv 12 40 12 empty empty empty 20 12 0 14 -4160 -66577
0;
#X text 107 100 son;
#X obj 225 104 cnv 12 40 12 empty empty empty 20 12 0 14 -4160 -66577
0;
#X text 231 100 son;
#X obj 159 104 cnv 12 40 12 empty empty empty 20 12 0 14 -4160 -66577
0;
#X text 165 100 son;
#X obj 393 38 ../save/save-int-separate audio_out1;
#X obj 392 -11 r audio_out1_in;
#X obj 392 77 s audio_out1_out;
#X obj 393 58 / 100;
#X obj 392 15 * 100;
#X obj 398 193 / 100;
#X obj 397 150 * 100;
#X obj 397 127 r audio_out2_in;
#X obj 398 173 ../save/save-int-separate audio_out2;
#X obj 397 212 s audio_out2_out;
#X obj 398 313 / 100;
#X obj 397 270 * 100;
#X obj 397 247 r audio_out3_in;
#X obj 398 293 ../save/save-int-separate audio_out3;
#X obj 397 332 s audio_out3_out;
#X obj 102 25 r audio_out1_out;
#X obj 102 288 s audio_out1_in;
#X obj 170 260 s audio_out2_in;
#X obj 247 229 s audio_out3_in;
#X obj 170 49 r audio_out2_out;
#X obj 247 72 r audio_out3_out;
#X connect 1 0 2 0;
#X connect 1 0 42 0;
#X connect 2 0 6 1;
#X connect 3 0 5 0;
#X connect 4 0 10 1;
#X connect 5 0 11 0;
#X connect 5 1 4 0;
#X connect 6 0 10 0;
#X connect 7 0 6 0;
#X connect 9 0 15 0;
#X connect 10 0 8 1;
#X connect 10 0 8 0;
#X connect 11 0 10 1;
#X connect 12 0 11 0;
#X connect 13 0 14 0;
#X connect 13 0 43 0;
#X connect 14 0 15 1;
#X connect 15 0 10 0;
#X connect 16 0 17 0;
#X connect 17 0 10 0;
#X connect 18 0 17 1;
#X connect 19 0 18 0;
#X connect 19 0 44 0;
#X connect 26 0 29 0;
#X connect 27 0 30 0;
#X connect 29 0 28 0;
#X connect 30 0 26 0;
#X connect 31 0 35 0;
#X connect 32 0 34 0;
#X connect 33 0 32 0;
#X connect 34 0 31 0;
#X connect 36 0 40 0;
#X connect 37 0 39 0;
#X connect 38 0 37 0;
#X connect 39 0 36 0;
#X connect 41 0 1 0;
#X connect 45 0 13 0;
#X connect 46 0 19 0;
#X coords 0 -1 1 1 165 65 2 100 100;
