#N canvas 322 150 580 453 10;
#X obj 101 100 vradio 11 1 0 9 \$0-int-out \$0-int-in empty 0 -8 0
10 -262144 -1 -1 3;
#X obj 100 -207 loadbang;
#X obj 100 -185 t b b b b;
#X obj 187 -128 symbol \$1;
#X msg 94 -52 rewind;
#X msg 34 -52 bang;
#X obj 114 -2 textfile;
#X obj 114 21 unpack f;
#X obj 114 43 i 0;
#X obj 138 -104 pack s;
#X obj 96 274 i 0;
#X obj 35 336 symbol \$1;
#X msg 142 335 add2 \$1;
#X obj 96 296 t b b f b;
#X obj 81 442 textfile;
#X obj -24 367 pack s;
#X obj -86 308 outlet;
#X obj 95 246 r \$0-int-out;
#X obj 114 70 s \$0-int-in;
#X msg 206 336 clear;
#X msg 147 -51 read ../preset/9vradio-\$1.txt;
#X msg -23 394 write ../preset/9vradio-\$1.txt;
#X connect 1 0 2 0;
#X connect 2 0 5 0;
#X connect 2 1 4 0;
#X connect 2 2 9 0;
#X connect 2 3 3 0;
#X connect 3 0 9 0;
#X connect 4 0 6 0;
#X connect 5 0 6 0;
#X connect 6 0 7 0;
#X connect 7 0 8 0;
#X connect 8 0 18 0;
#X connect 9 0 20 0;
#X connect 10 0 13 0;
#X connect 10 0 16 0;
#X connect 11 0 15 0;
#X connect 12 0 14 0;
#X connect 13 0 15 0;
#X connect 13 1 11 0;
#X connect 13 2 12 0;
#X connect 13 3 19 0;
#X connect 15 0 21 0;
#X connect 17 0 10 0;
#X connect 19 0 14 0;
#X connect 20 0 6 0;
#X connect 21 0 14 0;
#X coords 0 -1 1 1 13 99 2 100 100;
