#N canvas 588 278 450 300 10;
#X obj 175 35 inlet;
#X obj 227 149 delay;
#X obj 254 33 loadbang;
#X obj 254 69 i \$2;
#X obj 175 75 pack \$1 127;
#X obj 175 246 outlet;
#X obj 227 183 pack \$1 0;
#X connect 0 0 4 0;
#X connect 1 0 6 0;
#X connect 2 0 3 0;
#X connect 3 0 1 1;
#X connect 4 0 1 0;
#X connect 4 0 5 0;
#X connect 6 0 5 0;
