#N canvas 90 26 785 523 10;
#X obj 53 27 inlet;
#X obj 59 75 sel 0;
#X obj 57 156 f 0;
#X obj 235 302 pack f f 0;
#X obj 90 111 / 2;
#X obj 57 182 t b f;
#X obj 90 135 i 0;
#X obj 124 83 + 1;
#X msg 56 112 0;
#X obj 149 27 inlet;
#X obj 155 72 sel 0;
#X obj 153 153 f 0;
#X obj 186 108 / 2;
#X obj 153 179 t b f;
#X obj 186 132 i 0;
#X obj 220 80 + 1;
#X msg 152 109 0;
#X obj 248 27 inlet;
#X obj 254 71 sel 0;
#X obj 252 152 f 0;
#X obj 285 107 / 2;
#X obj 252 178 t b f;
#X obj 285 131 i 0;
#X obj 319 79 + 1;
#X msg 251 108 0;
#X obj 349 26 inlet;
#X obj 355 71 sel 0;
#X obj 353 152 f 0;
#X obj 386 107 / 2;
#X obj 353 178 t b f;
#X obj 386 131 i 0;
#X obj 420 79 + 1;
#X msg 352 108 0;
#X obj 456 26 inlet;
#X obj 462 69 sel 0;
#X obj 460 150 f 0;
#X obj 493 105 / 2;
#X obj 460 176 t b f;
#X obj 493 129 i 0;
#X obj 527 77 + 1;
#X msg 459 106 0;
#X obj 236 339 outlet;
#X obj 294 341 print;
#X msg 57 221 20;
#X msg 159 211 50;
#X msg 252 217 80;
#X msg 353 217 120;
#X msg 460 215 150;
#X obj 91 303 cnv 15 138 36 empty empty DIGITAL_VERS_MIDI 0 12 0 14
-204800 -66577 0;
#X text 96 324 midi;
#X connect 0 0 1 0;
#X connect 1 0 8 0;
#X connect 1 1 7 0;
#X connect 2 0 5 0;
#X connect 3 0 41 0;
#X connect 3 0 42 0;
#X connect 4 0 6 0;
#X connect 5 0 43 0;
#X connect 5 1 3 1;
#X connect 6 0 2 0;
#X connect 7 0 4 0;
#X connect 8 0 2 0;
#X connect 9 0 10 0;
#X connect 10 0 16 0;
#X connect 10 1 15 0;
#X connect 11 0 13 0;
#X connect 12 0 14 0;
#X connect 13 0 44 0;
#X connect 13 1 3 1;
#X connect 14 0 11 0;
#X connect 15 0 12 0;
#X connect 16 0 11 0;
#X connect 17 0 18 0;
#X connect 18 0 24 0;
#X connect 18 1 23 0;
#X connect 19 0 21 0;
#X connect 20 0 22 0;
#X connect 21 0 45 0;
#X connect 21 1 3 1;
#X connect 22 0 19 0;
#X connect 23 0 20 0;
#X connect 24 0 19 0;
#X connect 25 0 26 0;
#X connect 26 0 32 0;
#X connect 26 1 31 0;
#X connect 27 0 29 0;
#X connect 28 0 30 0;
#X connect 29 0 46 0;
#X connect 29 1 3 1;
#X connect 30 0 27 0;
#X connect 31 0 28 0;
#X connect 32 0 27 0;
#X connect 33 0 34 0;
#X connect 34 0 40 0;
#X connect 34 1 39 0;
#X connect 35 0 37 0;
#X connect 36 0 38 0;
#X connect 37 0 47 0;
#X connect 37 1 3 1;
#X connect 38 0 35 0;
#X connect 39 0 36 0;
#X connect 40 0 35 0;
#X connect 43 0 3 0;
#X connect 44 0 3 0;
#X connect 45 0 3 0;
#X connect 46 0 3 0;
#X connect 47 0 3 0;
#X coords 0 -1 1 1 140 40 1 90 300;
