#N canvas 289 300 1365 687 10;
#X obj 218 55 hradio 15 1 0 8 empty empty empty 0 -8 0 10 -4032 -1
-1 3;
#X obj 409 14 r tempo_bar;
#X obj 191 9 cnv 15 178 45 empty empty empty 20 12 0 14 -203904 -66577
0;
#X text 212 30 BOITE A BATERRIE;
#X obj 688 11 loadbang;
#X obj 475 510 outlet~;
#X msg 192 169 0;
#X msg 243 167 0;
#X msg 493 167 0;
#X msg 344 167 0;
#X msg 395 168 0;
#X msg 295 167 0;
#X msg 439 164 0;
#X msg 539 165 0;
#X obj 254 115 sel 0 0 1 1 2 2 3 3 4 4 5 5 6 6 7 7;
#X obj 38 267 ../sampling/sample_reader_from_path;
#X obj 141 267 ../sampling/sample_reader_from_path;
#X obj 450 267 ../sampling/sample_reader_from_path;
#X obj 553 267 ../sampling/sample_reader_from_path;
#X obj 347 267 ../sampling/sample_reader_from_path;
#X obj 244 267 ../sampling/sample_reader_from_path;
#X obj 656 267 ../sampling/sample_reader_from_path;
#X obj 759 267 ../sampling/sample_reader_from_path;
#N canvas 1082 123 764 603 bankFile 0;
#X msg 72 249 ../samples/bathp1.wav;
#X msg 157 271 ../samples/bathp2.wav;
#X msg 230 248 ../samples/bathp3.wav;
#X msg 315 270 ../samples/bathp4.wav;
#X msg 389 247 ../samples/bathp5.wav;
#X msg 479 269 ../samples/bathp6.wav;
#X msg 547 247 ../samples/bathp7.wav;
#X msg 637 268 ../samples/bathp8.wav;
#X obj 64 422 s drumfile1;
#X obj 149 419 s drumfile2;
#X obj 237 420 s drumfile3;
#X obj 322 421 s drumfile4;
#X obj 407 421 s drumfile5;
#X obj 491 420 s drumfile6;
#X obj 572 420 s drumfile7;
#X obj 657 421 s drumfile8;
#X msg 71 330 ../samples/batdnb1.wav;
#X msg 154 355 ../samples/batdnb2.wav;
#X msg 235 329 ../samples/batdnb3.wav;
#X msg 317 356 ../samples/batdnb4.wav;
#X msg 397 326 ../samples/batdnb5.wav;
#X msg 482 356 ../samples/batdnb6.wav;
#X msg 560 326 ../samples/batdnb7.wav;
#X msg 648 357 ../samples/batdnb8.wav;
#X obj 5 227 bng 15 250 50 0 empty empty empty 17 7 0 10 -262144 -1
-1;
#X obj 4 286 bng 15 250 50 0 empty empty empty 17 7 0 10 -262144 -1
-1;
#X obj 86 86 inlet;
#X obj 79 137 sel 0 1;
#X connect 0 0 8 0;
#X connect 1 0 9 0;
#X connect 2 0 10 0;
#X connect 3 0 11 0;
#X connect 4 0 12 0;
#X connect 5 0 13 0;
#X connect 6 0 14 0;
#X connect 7 0 15 0;
#X connect 16 0 8 0;
#X connect 17 0 9 0;
#X connect 18 0 10 0;
#X connect 19 0 11 0;
#X connect 20 0 12 0;
#X connect 21 0 13 0;
#X connect 22 0 14 0;
#X connect 23 0 15 0;
#X connect 24 0 0 0;
#X connect 24 0 1 0;
#X connect 24 0 2 0;
#X connect 24 0 3 0;
#X connect 24 0 4 0;
#X connect 24 0 5 0;
#X connect 24 0 6 0;
#X connect 24 0 7 0;
#X connect 25 0 16 0;
#X connect 25 0 17 0;
#X connect 25 0 18 0;
#X connect 25 0 19 0;
#X connect 25 0 20 0;
#X connect 25 0 21 0;
#X connect 25 0 22 0;
#X connect 25 0 23 0;
#X connect 26 0 27 0;
#X connect 27 0 24 0;
#X connect 27 1 25 0;
#X restore 1004 161 pd bankFile;
#X obj 84 240 r drumfile1;
#X obj 176 240 r drumfile2;
#X obj 276 241 r drumfile3;
#X obj 365 239 r drumfile4;
#X obj 460 239 r drumfile5;
#X obj 549 238 r drumfile6;
#X obj 651 233 r drumfile7;
#X obj 767 231 r drumfile8;
#X obj 334 78 hradio 15 1 0 2 empty empty empty 0 -8 0 10 -262144 -1
-1 1;
#X msg 712 58 0;
#X connect 0 0 14 0;
#X connect 1 0 0 0;
#X connect 4 0 33 0;
#X connect 6 0 22 0;
#X connect 7 0 15 0;
#X connect 8 0 18 0;
#X connect 9 0 20 0;
#X connect 10 0 19 0;
#X connect 11 0 16 0;
#X connect 12 0 17 0;
#X connect 13 0 21 0;
#X connect 14 0 15 0;
#X connect 14 0 6 0;
#X connect 14 2 7 0;
#X connect 14 2 16 0;
#X connect 14 4 11 0;
#X connect 14 4 20 0;
#X connect 14 6 9 0;
#X connect 14 6 19 0;
#X connect 14 8 10 0;
#X connect 14 8 17 0;
#X connect 14 10 12 0;
#X connect 14 10 18 0;
#X connect 14 12 8 0;
#X connect 14 12 21 0;
#X connect 14 14 13 0;
#X connect 14 14 22 0;
#X connect 15 0 5 0;
#X connect 16 0 5 0;
#X connect 17 0 5 0;
#X connect 18 0 5 0;
#X connect 19 0 5 0;
#X connect 20 0 5 0;
#X connect 21 0 5 0;
#X connect 22 0 5 0;
#X connect 24 0 15 1;
#X connect 25 0 16 1;
#X connect 26 0 20 1;
#X connect 27 0 19 1;
#X connect 28 0 17 1;
#X connect 29 0 18 1;
#X connect 30 0 21 1;
#X connect 31 0 22 1;
#X connect 32 0 23 0;
#X connect 33 0 32 0;
#X coords 0 -1 100 1 180 90 2 190 8;
