#N canvas 744 293 1099 687 10;
#X obj 308 76 tgl 15 0 empty empty empty 17 7 0 10 -162280 -1 -1 1
1;
#X obj 248 76 tgl 15 0 empty empty empty 17 7 0 10 -162280 -1 -1 1
1;
#X obj 323 76 tgl 15 0 empty empty empty 17 7 0 10 -162280 -1 -1 1
1;
#X obj 233 76 tgl 15 0 empty empty empty 17 7 0 10 -162280 -1 -1 1
1;
#X obj 218 76 tgl 15 0 empty empty empty 17 7 0 10 -162280 -1 -1 1
1;
#X obj 293 76 tgl 15 0 empty empty empty 17 7 0 10 -162280 -1 -1 1
1;
#X obj 278 76 tgl 15 0 empty empty empty 17 7 0 10 -162280 -1 -1 1
1;
#X obj 263 76 tgl 15 0 empty empty empty 17 7 0 10 -162280 -1 -1 1
1;
#X obj 5 98 sel 0 1 2 3 4 5 6 7;
#X obj 94 242 sel 1;
#X obj 94 291 bng 15 250 50 0 empty empty empty 17 7 0 10 -262144 -1
-1;
#X obj 131 242 sel 1;
#X obj 131 291 bng 15 250 50 0 empty empty empty 17 7 0 10 -262144
-1 -1;
#X obj 169 242 sel 1;
#X obj 169 291 bng 15 250 50 0 empty empty empty 17 7 0 10 -262144
-1 -1;
#X obj 206 242 sel 1;
#X obj 206 291 bng 15 250 50 0 empty empty empty 17 7 0 10 -262144
-1 -1;
#X obj 244 242 sel 1;
#X obj 244 289 bng 15 250 50 0 empty empty empty 17 7 0 10 -262144
-1 -1;
#X obj 284 242 sel 1;
#X obj 284 291 bng 15 250 50 0 empty empty empty 17 7 0 10 -262144
-1 -1;
#X obj 323 242 sel 1;
#X obj 323 291 bng 15 250 50 0 empty empty empty 17 7 0 10 -262144
-1 -1;
#X obj 361 242 sel 1;
#X obj 361 291 bng 15 250 50 0 empty empty empty 17 7 0 10 -262144
-1 -1;
#X obj 94 164 i 0;
#X obj 131 164 i 0;
#X obj 169 164 i 0;
#X obj 206 164 i 0;
#X obj 243 164 i 0;
#X obj 284 164 i 0;
#X obj 322 164 i 0;
#X obj 361 164 i 0;
#X obj 461 338 bng 15 250 50 0 empty empty empty 17 7 0 10 -262144
-1 -1;
#X obj 218 55 hradio 15 1 0 8 empty empty empty 0 -8 0 10 -4032 -1
-1 0;
#X obj 409 14 r tempo_bar;
#X obj 191 9 cnv 15 178 45 empty empty empty 20 12 0 14 -203904 -66577
0;
#X text 212 30 SEQUENCE DE RYTHME;
#X obj 493 456 outlet;
#X obj 353 63 bng 15 250 50 0 empty empty empty 17 7 0 10 -262144 -1
-1;
#X connect 0 0 31 1;
#X connect 1 0 27 1;
#X connect 2 0 32 1;
#X connect 3 0 26 1;
#X connect 4 0 25 1;
#X connect 5 0 30 1;
#X connect 6 0 29 1;
#X connect 7 0 28 1;
#X connect 8 0 25 0;
#X connect 8 1 26 0;
#X connect 8 2 27 0;
#X connect 8 3 28 0;
#X connect 8 4 29 0;
#X connect 8 5 30 0;
#X connect 8 6 31 0;
#X connect 8 7 32 0;
#X connect 9 0 10 0;
#X connect 10 0 33 0;
#X connect 11 0 12 0;
#X connect 12 0 33 0;
#X connect 13 0 14 0;
#X connect 14 0 33 0;
#X connect 15 0 16 0;
#X connect 16 0 33 0;
#X connect 17 0 18 0;
#X connect 18 0 33 0;
#X connect 19 0 20 0;
#X connect 20 0 33 0;
#X connect 21 0 22 0;
#X connect 22 0 33 0;
#X connect 23 0 24 0;
#X connect 24 0 33 0;
#X connect 25 0 9 0;
#X connect 26 0 11 0;
#X connect 27 0 13 0;
#X connect 28 0 15 0;
#X connect 29 0 17 0;
#X connect 30 0 19 0;
#X connect 31 0 21 0;
#X connect 32 0 23 0;
#X connect 33 0 39 0;
#X connect 34 0 8 0;
#X connect 35 0 34 0;
#X connect 39 0 38 0;
#X coords 0 -1 100 1 180 90 2 190 8;
