#N canvas 264 56 1099 687 10;
#X obj 5 98 sel 0 1 2 3 4 5 6 7;
#X obj 94 242 sel 1;
#X obj 94 291 bng 15 250 50 0 empty empty empty 17 7 0 10 -262144 -1
-1;
#X obj 131 242 sel 1;
#X obj 131 291 bng 15 250 50 0 empty empty empty 17 7 0 10 -262144
-1 -1;
#X obj 169 242 sel 1;
#X obj 169 291 bng 15 250 50 0 empty empty empty 17 7 0 10 -262144
-1 -1;
#X obj 206 242 sel 1;
#X obj 206 291 bng 15 250 50 0 empty empty empty 17 7 0 10 -262144
-1 -1;
#X obj 244 242 sel 1;
#X obj 244 289 bng 15 250 50 0 empty empty empty 17 7 0 10 -262144
-1 -1;
#X obj 284 242 sel 1;
#X obj 284 291 bng 15 250 50 0 empty empty empty 17 7 0 10 -262144
-1 -1;
#X obj 323 242 sel 1;
#X obj 323 291 bng 15 250 50 0 empty empty empty 17 7 0 10 -262144
-1 -1;
#X obj 361 242 sel 1;
#X obj 361 291 bng 15 250 50 0 empty empty empty 17 7 0 10 -262144
-1 -1;
#X obj 94 164 i 0;
#X obj 131 164 i 0;
#X obj 169 164 i 0;
#X obj 206 164 i 0;
#X obj 243 164 i 0;
#X obj 284 164 i 0;
#X obj 322 164 i 0;
#X obj 361 164 i 0;
#X obj 461 338 bng 15 250 50 0 empty empty empty 17 7 0 10 -262144
-1 -1;
#X obj 409 14 r tempo_bar;
#X obj 191 9 cnv 15 178 86 empty empty SEQUENCE_DE_RYTHME 20 12 0 14
-1375 -262144 0;
#X obj 493 456 outlet;
#X obj 353 63 bng 15 250 50 0 empty empty empty 17 7 0 10 -262144 -1
-1;
#X obj 222 38 hradio 15 1 0 8 empty empty empty 0 -8 0 10 -4032 -1
-1 0;
#X obj 312 59 tgl 15 0 empty empty empty 17 7 0 10 -162280 -1 -1 0
1;
#X obj 252 59 tgl 15 0 empty empty empty 17 7 0 10 -162280 -1 -1 0
1;
#X obj 327 59 tgl 15 0 empty empty empty 17 7 0 10 -162280 -1 -1 0
1;
#X obj 237 59 tgl 15 0 empty empty empty 17 7 0 10 -162280 -1 -1 0
1;
#X obj 222 59 tgl 15 0 empty empty empty 17 7 0 10 -162280 -1 -1 0
1;
#X obj 297 59 tgl 15 0 empty empty empty 17 7 0 10 -162280 -1 -1 0
1;
#X obj 282 59 tgl 15 0 empty empty empty 17 7 0 10 -162280 -1 -1 0
1;
#X obj 267 59 tgl 15 0 empty empty empty 17 7 0 10 -162280 -1 -1 0
1;
#X text 194 81 bang;
#X connect 0 0 17 0;
#X connect 0 1 18 0;
#X connect 0 2 19 0;
#X connect 0 3 20 0;
#X connect 0 4 21 0;
#X connect 0 5 22 0;
#X connect 0 6 23 0;
#X connect 0 7 24 0;
#X connect 1 0 2 0;
#X connect 2 0 25 0;
#X connect 3 0 4 0;
#X connect 4 0 25 0;
#X connect 5 0 6 0;
#X connect 6 0 25 0;
#X connect 7 0 8 0;
#X connect 8 0 25 0;
#X connect 9 0 10 0;
#X connect 10 0 25 0;
#X connect 11 0 12 0;
#X connect 12 0 25 0;
#X connect 13 0 14 0;
#X connect 14 0 25 0;
#X connect 15 0 16 0;
#X connect 16 0 25 0;
#X connect 17 0 1 0;
#X connect 18 0 3 0;
#X connect 19 0 5 0;
#X connect 20 0 7 0;
#X connect 21 0 9 0;
#X connect 22 0 11 0;
#X connect 23 0 13 0;
#X connect 24 0 15 0;
#X connect 25 0 29 0;
#X connect 26 0 30 0;
#X connect 29 0 28 0;
#X connect 30 0 0 0;
#X connect 31 0 23 1;
#X connect 32 0 19 1;
#X connect 33 0 24 1;
#X connect 34 0 18 1;
#X connect 35 0 17 1;
#X connect 36 0 22 1;
#X connect 37 0 21 1;
#X connect 38 0 20 1;
#X coords 0 -1 100 1 180 90 2 190 8;
