#N canvas 338 202 450 300 10;
#X obj 122 30 inlet~;
#X obj 135 198 outlet;
#X obj 101 102 cnv 15 100 55 empty empty ATTACK 20 12 0 14 -233017
-66577 0;
#X obj 135 128 bng 15 250 50 0 empty empty empty 17 7 0 10 -262144
-1 -1;
#X obj 209 12 loadbang;
#X obj 29 130 nbx 5 14 -1e+37 1e+37 0 0 empty empty empty 0 -8 0 10
-262144 -1 -1 89.9438 256;
#X msg 209 41 reattack 800 10;
#X obj 122 71 fiddle~ 512;
#X connect 0 0 7 0;
#X connect 3 0 1 0;
#X connect 4 0 6 0;
#X connect 6 0 7 0;
#X connect 7 0 5 0;
#X connect 7 1 3 0;
#X coords 0 -1 1 1 102 60 2 100 100;
