#N canvas 338 202 450 300 10;
#X obj 122 30 inlet~;
#X obj 135 198 outlet;
#X obj 101 102 cnv 15 100 55 empty empty ATTACK 20 12 0 14 -233017
-66577 0;
#X obj 135 128 bng 15 250 50 0 empty empty empty 17 7 0 10 -262144
-1 -1;
#X msg 209 41 reattack 800 10;
#X obj 234 202 outlet;
#X obj 122 71 fiddle~ 2048;
#X text 277 11 fake loadbang;
#X obj 180 124 tgl 15 0 empty empty empty 17 7 0 10 -262144 -1 -1 0
1;
#X obj 239 106 print fake-loadbang;
#X obj 209 12 r \$1-load;
#X connect 0 0 6 0;
#X connect 3 0 1 0;
#X connect 4 0 6 0;
#X connect 6 0 5 0;
#X connect 6 1 3 0;
#X connect 10 0 4 0;
#X connect 10 0 8 0;
#X connect 10 0 9 0;
#X coords 0 -1 1 1 102 60 2 100 100;
