#N canvas 61 68 1440 747 12;
#X obj 337 23 cnv 15 880 65 empty empty ENTREES 20 20 0 30 -126994
-262144 0;
#X obj 93 23 cnv 15 240 650 empty empty empty 20 12 0 14 -66577 -66577
0;
#X obj 337 91 cnv 15 880 530 empty cnv-main editer 20 12 0 14 -142908
-262144 0;
#X obj 337 589 cnv 15 880 90 empty empty SORTIES 8 76 0 30 -53394 -262144
0;
#X obj 97 138 arduino/arduino_main;
#X obj 634 585 output/audio_out;
#X obj 849 586 output/arduino_out;
#X obj 534 30 input/audio_in 1040;
#N canvas 646 286 450 300 sub 0;
#N canvas 388 231 400 407 entree 0;
#X obj -172 339 extra/close entree;
#X obj 1 -3 extra/add input/arduino_in entree;
#X obj 2 154 extra/add input/audio_in entree;
#X obj 3 238 extra/add input/clavier_midi entree;
#X obj -222 -2 input/arduino_in;
#X obj -132 244 input/clavier_midi;
#X obj -177 162 input/audio_in;
#X restore 64 54 pd entree;
#N canvas 431 76 399 483 sortie 0;
#X obj 10 7 output/audio_out;
#X obj 11 107 output/audio_out3;
#X obj 49 414 extra/close sortie;
#X obj 65 303 cnv 15 100 60 empty empty TEMPO 20 12 0 14 -184825 -33289
0;
#X obj 62 206 output/arduino_out;
#X obj 202 105 extra/add output/audio_out3 sortie;
#X obj 203 206 extra/add output/arduino_out sortie;
#X obj 204 9 extra/add output/audio_out output;
#X obj 206 303 extra/add output/tempo_phaser;
#X restore 64 77 pd sortie;
#N canvas 546 305 423 300 transport 0;
#X obj 34 202 extra/close transport;
#X obj 31 29 transport/set_tempo;
#X obj 183 27 extra/add transport/set_tempo transport;
#X restore 64 186 pd transport;
#X obj 200 100 cnv 15 40 20 empty empty admin 3 12 0 12 -66577 -191407
0;
#N canvas 140 141 436 522 son 1;
#X obj 32 11 sampling/read_sample 1;
#X obj 39 447 extra/close son;
#X obj 33 175 sampling/read_8sample 0;
#X obj 221 59 extra/add sampling/read_sample;
#X obj 210 233 extra/add sampling/read_8sample;
#X restore 63 101 pd son;
#N canvas 229 87 469 575 boucle 0;
#X obj 55 489 extra/close boucle;
#X obj 8 39 looping/rec_loop 0;
#X obj 258 44 extra/add looping/rec_loop;
#X obj 250 198 extra/add looping/read_loop boucle;
#X obj 31 167 looping/read_loop 0;
#X restore 63 145 pd boucle;
#N canvas 728 411 450 300 analyse 0;
#X obj 28 24 analysis/offset_detect;
#X obj 150 21 extra/add analysis/offset_detect;
#X restore 65 164 pd analyse;
#N canvas 336 273 450 300 effet 0;
#X obj 21 171 extra/close effet;
#X obj 205 30 extra/add audio_effect/filtering effet;
#X obj 21 17 audio_effect/filtering;
#X restore 63 123 pd effet;
#X coords 0 -1 1 1 40 20 1 200 100;
#X restore 98 642 pd sub;
#X obj 139 280 extra/open_sub entree;
#X obj 139 320 extra/open_sub sortie;
#X obj 139 441 extra/open_sub effet;
#X obj 139 480 extra/open_sub analyse;
#X obj 98 184 extra/editMode;
#X obj 1010 586 output/tempo_phaser;
#X obj 98 27 cnv 15 224 100 empty empty LUCIDREAM 3 32 2 35 -262144
-66577 0;
#X text 233 84 version 1;
#X obj 139 401 extra/open_sub boucle;
#X obj 139 360 extra/open_sub son;
#X obj 576 176 looping/read_loop 8412;
#X obj 841 222 looping/read_loop 9649;
#X obj 1017 222 looping/read_loop 411;
#X obj 949 35 input/arduino_in 7436;
#X obj 744 34 input/clavier_midi 4864;
#X obj 439 221 sampling/read_sample 7362;
#X obj 471 464 audio_effect/filtering 7841;
#X connect 20 0 25 0;
#X connect 22 0 20 0;
#X connect 22 1 21 0;
#X connect 22 2 19 0;
#X connect 24 0 25 0;
