#N canvas -1 47 1280 709 10;
#X obj 830 71 cnv 15 100 60 empty empty empty 20 12 0 14 -233017 -66577
0;
#X obj 830 133 cnv 15 100 60 empty empty empty 20 12 0 14 -233017 -66577
0;
#X obj 830 195 cnv 15 100 60 empty empty empty 20 12 0 14 -233017 -66577
0;
#X obj 830 257 cnv 15 100 60 empty empty empty 20 12 0 14 -233017 -66577
0;
#X obj 88 31 cnv 15 730 410 empty empty empty 20 12 0 14 -237376 -66577
0;
#X obj 89 443 cnv 15 730 110 empty empty empty 20 12 0 14 -232576 -66577
0;
#X text 196 474 SORTIE;
#X obj 572 -47 arduino/arduinoOUT;
#X obj 319 -40 transport/tempo;
#X obj 198 40 sequence/sequenceur_channel;
#X obj 193 152 sampling/sample_reader;
#X obj 296 305 audio_effect/filtering;
#X obj 672 444 arduino/arduinoIN;
#X obj 433 442 transport/audio_out;
#X obj 88 -40 arduino/arduino_main;
#X connect 7 8 12 5;
#X connect 9 0 10 0;
#X connect 10 0 11 0;
#X connect 11 0 13 0;
