#N canvas 8 56 1351 687 10;
#X obj 337 23 cnv 15 880 90 empty empty ENTREES 20 20 0 30 -126994
-262144 0;
#X obj 93 23 cnv 15 240 650 empty empty empty 20 12 0 14 -66577 -66577
0;
#X obj 337 116 cnv 15 880 470 empty cnv-main editer 20 12 0 14 -142908
-262144 0;
#X obj 337 589 cnv 15 880 90 empty empty SORTIES 8 80 0 30 -53394 -262144
0;
#X obj 97 88 transport/tempo;
#X obj 100 30 arduino/arduino_main;
#X obj 467 582 output/audio_out;
#X obj 1031 581 output/arduino_out;
#X obj 992 43 input/arduino_in;
#X obj 98 169 extra/editMode;
#X obj 139 273 extra/open_sub entree;
#X obj 715 54 input/clavier_midi 862;
#X obj 355 52 input/audio_in 1040;
#X obj 549 53 input/clavier 2335;
#X obj 139 359 extra/open_sub sampling;
#X obj 139 400 extra/open_sub audio_effect;
#X obj 139 441 extra/open_sub sequence;
#X obj 139 486 extra/open_sub transport;
#X obj 139 531 extra/open_sub synthe;
#X obj 139 316 extra/open_sub sortie;
#N canvas 337 129 450 300 sub 0;
#N canvas 388 231 400 407 entree 0;
#X obj -132 244 input/clavier_midi;
#X obj -177 162 input/audio_in;
#X obj -149 81 input/clavier;
#X obj -222 -2 input/arduino_in;
#X obj 1 -3 extra/add input/arduino_in entree;
#X obj 2 77 extra/add input/clavier entree;
#X obj 2 154 extra/add input/audio_in entree;
#X obj 3 238 extra/add input/clavier_midi entree;
#X obj -172 339 extra/close entree;
#X restore 64 54 pd entree;
#N canvas 576 395 450 300 audio_effect 0;
#X obj 21 17 audio_effect/filtering;
#X obj 162 30 extra/add audio_effect/filtering audio_effect;
#X obj 33 203 extra/close audio_effect;
#X restore 63 123 pd audio_effect;
#N canvas 350 186 446 525 sequence 0;
#X obj 19 23 sequence/drum_box;
#X obj 20 127 sequence/sequenceur_channel;
#X obj 81 226 sampling/sampler_sequence 1;
#X obj 229 34 extra/add sequence/drum_box sequence;
#X obj 232 134 extra/add sequence/sequenceur_channel sequence;
#X obj 234 255 extra/add sequence/sampler_sequence sequence;
#X obj 57 430 extra/close sequence;
#X restore 63 145 pd sequence;
#N canvas 379 249 428 395 sampling 0;
#X obj -45 234 sampling/simple_looper;
#X obj -6 137 sampling/sample_bank 1;
#X obj 32 11 sampling/sample_reader;
#X obj 201 35 extra/add sampling/sample_reader sampling;
#X obj 201 141 extra/add sampling/sample_bank sampling;
#X obj 206 236 extra/add sampling/simple_looper sampling;
#X obj 27 342 extra/close sampling;
#X restore 63 101 pd sampling;
#N canvas 364 220 409 374 sortie 0;
#X obj 62 206 output/arduino_out;
#X obj 10 7 output/audio_out;
#X obj 11 107 output/audio_out3;
#X obj 202 105 extra/add output/audio_out3 sortie;
#X obj 203 206 extra/add output/arduino_out sortie;
#X obj 204 9 extra/add output/audio_out output;
#X obj 49 313 extra/close sortie;
#X restore 64 77 pd sortie;
#N canvas 546 305 423 300 transport 0;
#X obj 31 29 transport/set_tempo;
#X obj 183 27 extra/add transport/set_tempo transport;
#X obj 34 202 extra/close transport;
#X restore 64 186 pd transport;
#N canvas 446 324 452 386 synthe 0;
#X obj -10 25 synthe/synthevoice;
#X obj 65 108 synthe/synth-fm;
#X obj 68 198 synthe/wooble;
#X obj 216 19 extra/add synthe/synthevoice synthe;
#X obj 217 192 extra/add synthe/wooble synthe;
#X obj 216 107 extra/add synthe/synth-fm synthe;
#X obj 46 297 extra/close synthe;
#X restore 63 166 pd synthe;
#X obj 200 100 cnv 15 40 20 empty empty admin 3 12 0 12 -66577 -191407
0;
#X coords 0 -1 1 1 40 20 1 200 100;
#X restore 98 642 pd sub;
#X obj 393 209 sampling/sample_reader 7362;
#X connect 8 5 21 0;
#X connect 13 0 21 0;
#X connect 21 0 6 0;
