#N canvas 0 56 1366 687 10;
#X obj 337 38 cnv 15 730 90 empty empty ENTREES 20 20 0 30 -126994
-262144 0;
#X obj 93 38 cnv 15 240 650 empty empty empty 20 12 0 14 -66577 -66577
0;
#X obj 1072 290 cnv 15 100 200 empty empty empty 20 12 0 14 -233017
-66577 0;
#X obj 1071 220 cnv 15 100 60 empty empty empty 20 12 0 14 -233017
-66577 0;
#X obj 338 132 cnv 15 730 470 empty cnv-main editer 20 12 0 14 -142908
-262144 0;
#X obj 337 598 cnv 15 730 90 empty empty SORTIES 8 80 0 30 -53394 -262144
0;
#X obj 100 121 transport/tempo;
#X obj 100 46 arduino/arduino_main;
#X obj 467 68 input/audio_in;
#X obj 466 594 output/audio_out;
#X obj 822 592 output/arduino_out;
#N canvas 461 256 450 300 audio_effect 0;
#X obj 21 17 audio_effect/filtering;
#X obj 165 33 extra/add audio_effect/filtering;
#X restore 1074 375 pd audio_effect;
#N canvas 376 257 450 300 sequence 0;
#X obj 19 10 sequence/drum_box;
#X obj 20 127 sequence/sequenceur_channel;
#X restore 1074 397 pd sequence;
#X obj 354 215 sequence/drum_box;
#X obj 842 329 audio_effect/filtering;
#X obj 851 59 input/arduino_in;
#X obj 853 461 transport/set_tempo;
#X obj 638 69 input/clavier;
#X obj 573 163 sampling/sample_bank;
#X obj 100 195 extra/editMode;
#N canvas 653 177 551 300 entree 0;
#X obj -222 -2 input/arduino_in;
#X obj -216 162 input/audio_in;
#X obj -212 82 input/clavier;
#X obj 2 80 extra/add input/clavier;
#X obj 2 161 extra/add input/audio_in;
#X obj 2 -1 extra/add input/arduino_in;
#X restore 1075 300 pd entree;
#N canvas 289 168 450 300 sortie 0;
#X obj 66 89 output/arduino_out;
#X obj 10 7 output/audio_out;
#X obj 183 5 extra/add output/audio_out;
#X obj 185 100 extra/add output/arduino_out;
#X restore 1074 324 pd sortie;
#N canvas 573 157 571 329 sampling 0;
#X obj 32 11 sampling/sample_reader;
#X obj -6 137 sampling/sample_bank;
#X obj -45 234 sampling/simple_looper;
#X obj 198 37 extra/add sampling/sample_reader;
#X obj 199 147 extra/add sampling/sample_bank;
#X obj 202 242 extra/add sampling/simple_looper;
#X restore 1075 351 pd sampling;
#X obj 598 363 sampling/synthevoice;
#X obj 108 290 extra/open_sub entree;
#X obj 109 339 extra/open_sub sortie;
#X obj 110 384 extra/open_sub sampling;
#X obj 108 429 extra/open_sub audio_effect;
#X obj 107 474 extra/open_sub sequence;
#X connect 8 0 23 0;
#X connect 13 0 9 0;
#X connect 14 0 9 1;
#X connect 15 0 14 1;
#X connect 15 0 23 2;
#X connect 15 5 23 1;
#X connect 17 8 23 3;
#X connect 18 0 14 0;
#X connect 23 0 9 1;
