#N canvas 49 81 1284 720 12;
#X obj 96 -10 cnv 15 240 100 empty empty empty 20 12 0 14 -66577 -66577
0;
#X obj 96 92 cnv 15 1100 502 empty empty empty 20 12 0 14 -66577 -262144
0;
#X obj 102 -6 cnv 15 224 90 empty empty LUCIDREAM 3 32 2 35 -262144
-66577 0;
#X obj 96 596 output/main_output;
#X obj 897 596 cnv 15 300 100 empty empty empty 20 12 0 14 -33289 -66577
0;
#X obj 900 601 output/tempo_phaser;
#N canvas 503 218 507 324 sub 0;
#X obj 200 100 cnv 15 40 20 empty empty admin 3 12 0 12 -66577 -191407
0;
#X coords 0 -1 1 1 40 20 2 200 100;
#X restore 111 58 pd sub;
#X obj 1064 92 audio_effect/main_effect;
#X obj 96 92 looping/main_rec_loop;
#N canvas 153 146 999 543 main-input 0;
#N canvas 452 325 450 300 to-analog-in 0;
#X obj 11 90 t b f;
#X obj 68 90 t b f;
#X obj 125 90 t b f;
#X obj 180 90 t b f;
#X obj 234 90 t b f;
#X obj 292 90 t b f;
#X obj 350 90 t b f;
#X obj 406 90 t b f;
#X obj 10 114 pack 1 f;
#X obj 67 114 pack 2 f;
#X obj 124 114 pack 3 f;
#X obj 179 114 pack 4 f;
#X obj 233 114 pack 5 f;
#X obj 291 114 pack 6 f;
#X obj 349 114 pack 7 f;
#X obj 405 114 pack 8 f;
#X obj 13 44 inlet;
#X obj 66 43 inlet;
#X obj 123 43 inlet;
#X obj 178 42 inlet;
#X obj 233 43 inlet;
#X obj 291 42 inlet;
#X obj 346 43 inlet;
#X obj 402 42 inlet;
#X obj 125 239 s analog-in;
#X connect 0 0 8 0;
#X connect 0 1 8 1;
#X connect 1 0 9 0;
#X connect 1 1 9 1;
#X connect 2 0 10 0;
#X connect 2 1 10 1;
#X connect 3 0 11 0;
#X connect 3 1 11 1;
#X connect 4 0 12 0;
#X connect 4 1 12 1;
#X connect 5 0 13 0;
#X connect 5 1 13 1;
#X connect 6 0 14 0;
#X connect 6 1 14 1;
#X connect 7 0 15 0;
#X connect 7 1 15 1;
#X connect 8 0 24 0;
#X connect 9 0 24 0;
#X connect 10 0 24 0;
#X connect 11 0 24 0;
#X connect 12 0 24 0;
#X connect 13 0 24 0;
#X connect 14 0 24 0;
#X connect 15 0 24 0;
#X connect 16 0 0 0;
#X connect 17 0 1 0;
#X connect 18 0 2 0;
#X connect 19 0 3 0;
#X connect 20 0 4 0;
#X connect 21 0 5 0;
#X connect 22 0 6 0;
#X connect 23 0 7 0;
#X restore 800 309 pd to-analog-in;
#N canvas 648 454 634 282 to-digital-in 0;
#X obj 11 90 t b f;
#X obj 68 90 t b f;
#X obj 125 90 t b f;
#X obj 180 90 t b f;
#X obj 234 90 t b f;
#X obj 292 90 t b f;
#X obj 350 90 t b f;
#X obj 406 90 t b f;
#X obj 10 114 pack 1 f;
#X obj 67 114 pack 2 f;
#X obj 124 114 pack 3 f;
#X obj 179 114 pack 4 f;
#X obj 233 114 pack 5 f;
#X obj 291 114 pack 6 f;
#X obj 349 114 pack 7 f;
#X obj 405 114 pack 8 f;
#X obj 125 239 s digital-in;
#X obj 13 44 inlet;
#X obj 66 43 inlet;
#X obj 123 43 inlet;
#X obj 178 42 inlet;
#X obj 233 43 inlet;
#X obj 291 42 inlet;
#X obj 346 43 inlet;
#X obj 402 42 inlet;
#X connect 0 0 8 0;
#X connect 0 1 8 1;
#X connect 1 0 9 0;
#X connect 1 1 9 1;
#X connect 2 0 10 0;
#X connect 2 1 10 1;
#X connect 3 0 11 0;
#X connect 3 1 11 1;
#X connect 4 0 12 0;
#X connect 4 1 12 1;
#X connect 5 0 13 0;
#X connect 5 1 13 1;
#X connect 6 0 14 0;
#X connect 6 1 14 1;
#X connect 7 0 15 0;
#X connect 7 1 15 1;
#X connect 8 0 16 0;
#X connect 9 0 16 0;
#X connect 10 0 16 0;
#X connect 11 0 16 0;
#X connect 12 0 16 0;
#X connect 13 0 16 0;
#X connect 14 0 16 0;
#X connect 15 0 16 0;
#X connect 17 0 0 0;
#X connect 18 0 1 0;
#X connect 19 0 2 0;
#X connect 20 0 3 0;
#X connect 21 0 4 0;
#X connect 22 0 5 0;
#X connect 23 0 6 0;
#X connect 24 0 7 0;
#X restore 570 308 pd to-digital-in;
#X obj 111 111 cnv 15 853 98 empty empty ENTREES 245 15 0 30 -99865
-262144 0;
#X obj 504 172 tgl 35 0 digital_in1 empty a 10 15 0 26 -14109 -262144
-262144 0 1;
#X obj 541 172 tgl 35 0 digital_in2 empty b 10 15 0 26 -14109 -262144
-262144 0 1;
#X obj 578 172 tgl 35 0 digital_in3 empty c 10 15 0 26 -14109 -262144
-262144 0 1;
#X obj 615 172 tgl 35 0 digital_in4 empty d 10 15 0 26 -14109 -262144
-262144 0 1;
#X obj 652 172 tgl 35 0 digital_in5 empty e 10 15 0 26 -14109 -262144
-262144 0 1;
#X obj 689 172 tgl 35 0 digital_in6 empty f 10 15 0 26 -14109 -262144
-262144 0 1;
#X obj 743 151 vsl 34 55 0 255 0 0 empty empty 1 11 24 0 25 -86735
-262144 -262144 0 1;
#X obj 816 151 vsl 34 55 0 255 0 0 empty empty 3 11 24 0 25 -86735
-262144 -262144 0 1;
#X obj 852 151 vsl 34 55 0 255 0 0 empty empty 4 11 24 0 25 -86735
-262144 -262144 0 1;
#X obj 780 151 vsl 34 55 0 255 0 0 empty empty 2 11 24 0 25 -86735
-262144 -262144 0 1;
#X obj 888 151 vsl 34 55 0 255 0 0 empty empty 5 11 24 0 25 -86735
-262144 -262144 0 1;
#X obj 924 151 vsl 34 55 0 255 0 0 empty empty 6 11 24 0 25 -86735
-262144 -262144 0 1;
#X obj 556 117 cnv 15 100 14 empty empty digitale 0 6 0 14 -14109 -262144
0;
#X obj 805 118 cnv 15 100 14 empty empty analogique 0 6 0 14 -74640
-262144 0;
#N canvas 712 273 450 300 midi-input 0;
#X obj 101 37 route 60 63 65 66 67 70 72 75;
#X obj 99 -21 inlet;
#X obj 101 101 tgl 25 0 empty empty u 10 11 0 12 -1375 -262144 -262144
0 1;
#X obj 126 101 tgl 25 0 empty empty i 10 11 0 12 -1375 -262144 -262144
0 1;
#X obj 151 101 tgl 25 0 empty empty o 10 11 0 12 -1375 -262144 -262144
0 1;
#X obj 176 101 tgl 25 0 empty empty p 10 11 0 12 -1375 -262144 -262144
0 1;
#X obj 101 126 tgl 25 0 empty empty h 10 11 0 12 -1375 -262144 -262144
0 1;
#X obj 126 126 tgl 25 0 empty empty j 10 11 0 12 -1375 -262144 -262144
1 1;
#X obj 151 126 tgl 25 0 empty empty k 10 11 0 12 -1375 -262144 -262144
0 1;
#X obj 176 126 tgl 25 0 empty empty l 10 11 0 12 -1375 -262144 -262144
0 1;
#X obj 13 76 s to_midi_in;
#X connect 0 0 2 0;
#X connect 0 1 3 0;
#X connect 0 2 4 0;
#X connect 0 3 5 0;
#X connect 0 4 6 0;
#X connect 0 5 7 0;
#X connect 0 6 8 0;
#X connect 0 7 9 0;
#X connect 1 0 0 0;
#X connect 1 0 10 0;
#X coords 0 -1 1 1 102 52 2 100 100;
#X restore 229 157 pd midi-input;
#X obj 250 117 cnv 15 60 15 empty empty midi 7 6 0 14 -1375 -262144
0;
#X obj 19 -66 input/audio_in 1040;
#X obj 167 -69 input/clavier_midi 862;
#X obj 304 -72 input/clavier;
#X obj 469 -69 input/arduino_in;
#X obj 686 -58 arduino/arduino_main;
#X obj 114 115 cnv 15 60 15 empty empty audio 7 6 0 14 -122908 -262144
0;
#X obj 392 142 hradio 15 1 0 4 empty empty empty 0 -8 0 10 -262144
-1 -1 2;
#X obj 392 142 cnv 15 60 15 empty empty edit 7 6 0 14 -1 -262144 0
;
#N canvas 767 405 450 300 audio1 0;
#X obj 101 38 env~ 8162;
#X obj 101 10 inlet~;
#X obj 101 102 vsl 15 65 0 127 0 0 empty empty 1 3 23 0 12 -122908
-262144 -262144 3277 1;
#X obj 101 65 - 0;
#X obj -15 99 s~ input_audio1;
#X connect 0 0 3 0;
#X connect 1 0 0 0;
#X connect 1 0 4 0;
#X connect 3 0 2 0;
#X coords 0 -1 1 1 16 70 2 100 100;
#X restore 114 135 pd audio1;
#N canvas 281 129 450 300 popup 0;
#X obj 44 52 bang;
#X msg 44 83 \; pd-main-input vis 1;
#X obj 282 55 key;
#X obj 282 87 sel 27;
#X msg 282 118 \; pd-main-input vis 0;
#X obj 44 21 inlet;
#X connect 0 0 1 0;
#X connect 2 0 3 0;
#X connect 3 0 4 0;
#X connect 5 0 0 0;
#X restore 393 211 pd popup;
#X connect 3 0 1 0;
#X connect 4 0 1 1;
#X connect 5 0 1 2;
#X connect 6 0 1 3;
#X connect 7 0 1 4;
#X connect 8 0 1 5;
#X connect 9 0 0 0;
#X connect 10 0 0 2;
#X connect 11 0 0 3;
#X connect 12 0 0 1;
#X connect 13 0 0 4;
#X connect 14 0 0 5;
#X connect 19 0 27 0;
#X connect 20 0 17 0;
#X connect 21 0 3 0;
#X connect 21 1 4 0;
#X connect 21 2 5 0;
#X connect 21 3 6 0;
#X connect 21 4 7 0;
#X connect 21 5 8 0;
#X connect 22 0 9 0;
#X connect 22 1 12 0;
#X connect 22 2 10 0;
#X connect 22 3 11 0;
#X connect 22 4 13 0;
#X connect 22 5 3 0;
#X connect 22 6 4 0;
#X connect 22 7 5 0;
#X connect 22 8 6 0;
#X connect 22 9 7 0;
#X connect 25 0 28 0;
#X coords 0 -1 1 1 855 100 1 110 110;
#X restore 340 -10 pd main-input;
#X obj 647 93 looping/main_read_loop 1;
#X obj 239 92 sampling/read_8sample 1;
#X obj 919 93 looping/main_read_loop 3;
#X obj 784 93 looping/main_read_loop 2;
