#N canvas 1 56 1351 687 10;
#X obj 337 38 cnv 15 730 90 empty empty ENTREES 20 20 0 30 -126994
-262144 0;
#X obj 94 38 cnv 15 240 650 empty empty empty 20 12 0 14 -66577 -66577
0;
#X obj 1072 290 cnv 15 100 200 empty empty empty 20 12 0 14 -233017
-66577 0;
#X obj 1071 220 cnv 15 100 60 empty empty empty 20 12 0 14 -233017
-66577 0;
#X obj 337 129 cnv 15 730 470 empty empty empty 20 12 0 14 -142909
-66577 0;
#X obj 337 598 cnv 15 730 90 empty empty SORTIES 8 80 0 30 -53394 -262144
0;
#X obj 99 124 transport/tempo;
#X obj 100 46 arduino/arduino_main;
#N canvas 369 231 450 300 lib_entree 0;
#X obj -222 -2 input/arduino_in;
#X obj -216 162 input/audio_in;
#X obj -212 82 input/clavier;
#X restore 1075 300 pd lib_entree;
#X obj 467 68 input/audio_in;
#X obj 466 594 output/audio_out;
#X obj 822 592 output/arduino_out;
#N canvas 297 156 450 300 lib_sortie 0;
#X obj 10 84 output/arduino_out;
#X obj 10 7 output/audio_out;
#X restore 1074 324 pd lib_sortie;
#N canvas 915 374 450 300 lib_sampling 1;
#X obj 10 8 sampling/sample_reader;
#X obj 8 138 sampling/sample_bank;
#X obj 168 10 sampling/simple_looper;
#X obj 215 151 sampling/synthevoice;
#X restore 1075 351 pd lib_sampling;
#N canvas 1 74 450 300 audio_effect 0;
#X obj 21 17 audio_effect/filtering;
#X restore 1074 375 pd audio_effect;
#N canvas 119 96 450 300 sequence 0;
#X obj 19 10 sequence/drum_box;
#X obj 20 127 sequence/sequenceur_channel;
#X restore 1074 397 pd sequence;
#X obj 399 220 sequence/drum_box;
#X obj 801 351 audio_effect/filtering;
#X obj 851 59 input/arduino_in;
#X obj 159 284 transport/set_tempo;
#X obj 641 71 input/clavier;
#X obj 666 178 sampling/sample_bank;
#X obj 526 377 sampling/synthevoice;
#X connect 9 0 22 0;
#X connect 16 0 10 0;
#X connect 17 0 10 1;
#X connect 18 0 17 1;
#X connect 18 0 22 2;
#X connect 18 7 22 1;
#X connect 20 8 22 3;
#X connect 21 0 17 0;
#X connect 22 0 10 1;
