#N canvas 8 56 1351 687 10;
#X obj 337 38 cnv 15 730 90 empty empty ENTREES 20 20 0 30 -126994
-262144 0;
#X obj 94 38 cnv 15 240 650 empty empty empty 20 12 0 14 -66577 -66577
0;
#X obj 1072 290 cnv 15 100 200 empty empty empty 20 12 0 14 -233017
-66577 0;
#X obj 1071 220 cnv 15 100 60 empty empty empty 20 12 0 14 -233017
-66577 0;
#X obj 337 129 cnv 15 730 470 empty empty empty 20 12 0 14 -142909
-66577 0;
#X obj 337 598 cnv 15 730 90 empty empty SORTIES 8 80 0 30 -53394 -262144
0;
#X obj 99 124 transport/tempo;
#X obj 100 46 arduino/arduino_main;
#X obj 542 66 input/clavier;
#N canvas 369 231 450 300 lib_entree 0;
#X obj -212 82 input/clavier;
#X obj -216 162 input/audio_in;
#X obj -222 -2 input/arduino_in;
#X restore 1075 300 pd lib_entree;
#X obj 343 70 input/audio_in;
#X obj 466 594 output/audio_out;
#X obj 822 592 output/arduino_out;
#N canvas 297 156 450 300 lib_sortie 0;
#X obj 10 84 output/arduino_out;
#X obj 10 7 output/audio_out;
#X restore 1074 324 pd lib_sortie;
#N canvas 882 196 450 300 lib_sampling 0;
#X obj 10 8 sampling/sample_reader;
#X obj 8 138 sampling/sample_bank;
#X obj 168 10 sampling/simple_looper;
#X restore 1075 351 pd lib_sampling;
#N canvas 1 74 450 300 audio_effect 0;
#X obj 21 17 audio_effect/filtering;
#X restore 1074 375 pd audio_effect;
#N canvas 119 96 450 300 sequence 0;
#X obj 19 10 sequence/drum_box;
#X obj 20 127 sequence/sequenceur_channel;
#X restore 1074 397 pd sequence;
#X obj 364 194 sequence/drum_box;
#X obj 128 359 audio_effect/filtering;
#X msg 132 610 \; pd dsp 1;
#X obj 737 424 sampling/sample_bank;
#X obj 132 587 loadbang;
#X obj 366 398 sampling/simple_looper;
#X obj 812 58 input/arduino_in;
#X obj 671 315 sampling/synthevoice;
#X obj 681 207 midi/midinote;
#X obj 888 222 transport/set_tempo;
#X connect 8 0 24 1;
#X connect 8 1 22 1;
#X connect 8 2 25 1;
#X connect 8 3 25 2;
#X connect 8 4 25 3;
#X connect 8 5 25 4;
#X connect 10 0 22 0;
#X connect 10 0 24 0;
#X connect 17 0 11 1;
#X connect 21 0 19 0;
#X connect 22 0 11 0;
#X connect 23 0 24 2;
#X connect 23 8 26 1;
#X connect 24 0 11 2;
#X connect 25 0 24 3;
