#N canvas 145 23 1247 685 10;
#X obj 337 23 cnv 15 880 90 empty empty ENTREES 20 20 0 30 -126994
-262144 0;
#X obj 93 23 cnv 15 240 650 empty empty empty 20 12 0 14 -66577 -66577
0;
#X obj 337 116 cnv 15 880 470 empty cnv-main editer 20 12 0 14 -142908
-262144 0;
#X obj 337 589 cnv 15 880 90 empty empty SORTIES 8 76 0 30 -53394 -262144
0;
#X obj 97 138 arduino/arduino_main;
#X obj 438 583 output/audio_out;
#X obj 1099 583 output/arduino_out;
#X obj 991 42 input/arduino_in;
#X obj 806 51 input/clavier_midi 862;
#X obj 357 57 input/audio_in 1040;
#X obj 577 53 input/clavier 2335;
#N canvas 646 286 450 300 sub 0;
#N canvas 388 231 400 407 entree 0;
#X obj -172 339 extra/close entree;
#X obj -222 -2 input/arduino_in;
#X obj -132 244 input/clavier_midi;
#X obj 1 -3 extra/add input/arduino_in entree;
#X obj 2 77 extra/add input/clavier entree;
#X obj 2 154 extra/add input/audio_in entree;
#X obj 3 238 extra/add input/clavier_midi entree;
#X obj -177 162 input/audio_in;
#X obj -149 81 input/clavier;
#X restore 64 54 pd entree;
#N canvas 431 76 399 483 sortie 0;
#X obj 10 7 output/audio_out;
#X obj 11 107 output/audio_out3;
#X obj 49 414 extra/close sortie;
#X obj 62 206 output/arduino_out;
#X obj 65 303 cnv 15 100 60 empty empty TEMPO 20 12 0 14 -184825 -33289
0;
#X obj 202 105 extra/add output/audio_out3 sortie;
#X obj 203 206 extra/add output/arduino_out sortie;
#X obj 204 9 extra/add output/audio_out output;
#X obj 206 303 extra/add output/tempo_phaser;
#X restore 64 77 pd sortie;
#N canvas 546 305 423 300 transport 0;
#X obj 34 202 extra/close transport;
#X obj 31 29 transport/set_tempo;
#X obj 183 27 extra/add transport/set_tempo transport;
#X restore 64 186 pd transport;
#X obj 200 100 cnv 15 40 20 empty empty admin 3 12 0 12 -66577 -191407
0;
#N canvas 257 109 436 522 son 0;
#X obj 12 284 extra/close sampling;
#X obj 32 11 sampling/read_sample 1;
#X obj 221 59 extra/add sampling/read_sample;
#X restore 63 101 pd son;
#N canvas 229 87 446 525 boucle 0;
#X obj 57 430 extra/close sequence;
#X obj 261 180 extra/add looping/read_loop;
#X obj 258 44 extra/add looping/rec_loop;
#X obj 13 136 looping/read_loop 0;
#X obj 8 39 looping/rec_loop 0;
#X restore 63 145 pd boucle;
#N canvas 728 411 450 300 analyse 0;
#X obj 150 21 extra/add analysis/offset_detect;
#X obj 28 24 analysis/offset_detect;
#X restore 65 164 pd analyse;
#N canvas 576 395 450 300 effet 0;
#X obj 21 17 audio_effect/filtering;
#X obj 33 203 extra/close audio_effect;
#X obj 162 30 extra/add audio_effect/filtering audio_effect;
#X restore 63 123 pd effet;
#X coords 0 -1 1 1 40 20 1 200 100;
#X restore 98 642 pd sub;
#X obj 139 360 extra/open_sub son;
#X obj 139 280 extra/open_sub entree;
#X obj 139 320 extra/open_sub sortie;
#X obj 139 440 extra/open_sub effet;
#X obj 139 400 extra/open_sub boucle;
#X obj 139 480 extra/open_sub analyse;
#X obj 98 184 extra/editMode;
#X obj 882 583 output/tempo_phaser;
#X obj 101 28 cnv 15 220 100 empty empty LOGIREVE 20 32 2 35 -262144
-66577 0;
#X text 233 84 version 1;
#X obj 591 235 looping/read_loop 8783;
#X obj 757 231 sampling/read_sample 462;
#X connect 10 6 23 0;
#X connect 22 0 5 0;
#X connect 23 0 5 0;
