#N canvas 644 131 721 548 10;
#X obj 100 100 hradio 30 1 0 10 empty empty empty 0 -8 0 10 -128992
-1 -1 0;
#X obj 102 101 cnv 15 300 28 empty empty FERMER 120 12 0 24 -162280
-1 0;
#X msg 232 456 \; pd-\$1 vis 0;
#X obj 167 102 tgl 25 0 empty empty empty 17 7 0 10 -128992 -1 -1 1
1;
#X obj 51 23 loadbang;
#X obj 232 408 symbol \$1;
#X obj 230 354 bng 15 250 50 0 empty empty empty 17 7 0 10 -262144
-1 -1;
#X obj 196 509 print;
#X obj 314 103 tgl 25 0 empty empty empty 17 7 0 10 -128992 -1 -1 1
1;
#X obj 343 103 tgl 25 0 empty empty empty 17 7 0 10 -128992 -1 -1 1
1;
#X obj 373 103 tgl 25 0 empty empty empty 17 7 0 10 -128992 -1 -1 1
1;
#X obj 107 102 tgl 25 0 empty empty empty 17 7 0 10 -128992 -1 -1 1
1;
#X obj 137 102 tgl 25 0 empty empty empty 17 7 0 10 -128992 -1 -1 1
1;
#X connect 0 0 6 0;
#X connect 2 0 7 0;
#X connect 4 0 3 0;
#X connect 4 0 12 0;
#X connect 4 0 11 0;
#X connect 4 0 8 0;
#X connect 4 0 9 0;
#X connect 4 0 10 0;
#X connect 5 0 2 0;
#X connect 6 0 5 0;
#X coords 0 -1 1 1 302 30 2 100 100;
