#N canvas 312 76 998 474 10;
#X obj 48 297 s arduinoIN;
#X obj 29 113 bng 15 250 50 0 empty empty empty 17 7 0 10 -262144 -1
-1;
#X obj 17 221 pack 13 255;
#X obj 212 111 t b f;
#X obj 212 177 i 0;
#X obj 266 111 t b f;
#X obj 321 111 t b f;
#X obj 375 111 t b f;
#X obj 425 111 t b f;
#X obj 478 112 t b f;
#X obj 286 173 i 1;
#X obj 326 173 i 2;
#X obj 387 173 i 3;
#X obj 448 172 i 4;
#X obj 523 173 i 5;
#X obj 201 212 pack 0 0;
#X obj 265 212 pack 0 0;
#X obj 328 212 pack 0 0;
#X obj 392 212 pack 0 0;
#X obj 455 212 pack 0 0;
#X obj 517 212 pack 0 0;
#X obj 229 -110 inlet;
#X obj 270 -110 inlet;
#X obj 312 -110 inlet;
#X obj 353 -110 inlet;
#X obj 394 -110 inlet;
#X obj 435 -110 inlet;
#X obj 261 -44 cnv 15 109 73 empty empty ARDUINO 20 60 0 14 -184827
-1 0;
#X obj 281 -44 vsl 15 40 0 255 0 0 empty empty empty 0 -9 0 10 -262144
-1 -1 0 1;
#X obj 263 -44 vsl 15 40 0 255 0 0 empty empty empty 0 -9 0 10 -262144
-1 -1 0 1;
#X obj 317 -44 vsl 15 40 0 255 0 0 empty empty empty 0 -9 0 10 -262144
-1 -1 0 1;
#X obj 299 -44 vsl 15 40 0 255 0 0 empty empty empty 0 -9 0 10 -262144
-1 -1 0 1;
#X obj 353 -44 vsl 15 40 0 255 0 0 empty empty empty 0 -9 0 10 -258113
-1 -1 0 1;
#X obj 335 -44 vsl 15 40 0 255 0 0 empty empty empty 0 -9 0 10 -262144
-1 -1 0 1;
#X connect 1 0 2 0;
#X connect 2 0 0 0;
#X connect 3 0 4 0;
#X connect 3 1 15 1;
#X connect 4 0 15 0;
#X connect 5 0 10 0;
#X connect 5 1 16 1;
#X connect 6 0 11 0;
#X connect 6 1 17 1;
#X connect 7 0 12 0;
#X connect 7 1 18 1;
#X connect 8 0 13 0;
#X connect 8 1 19 1;
#X connect 9 0 14 0;
#X connect 9 1 20 1;
#X connect 10 0 16 0;
#X connect 11 0 17 0;
#X connect 12 0 18 0;
#X connect 13 0 19 0;
#X connect 14 0 20 0;
#X connect 15 0 0 0;
#X connect 16 0 0 0;
#X connect 17 0 0 0;
#X connect 18 0 0 0;
#X connect 19 0 0 0;
#X connect 20 0 0 0;
#X connect 21 0 29 0;
#X connect 22 0 28 0;
#X connect 23 0 31 0;
#X connect 24 0 30 0;
#X connect 25 0 33 0;
#X connect 26 0 32 0;
#X connect 28 0 5 0;
#X connect 29 0 3 0;
#X connect 30 0 7 0;
#X connect 31 0 6 0;
#X connect 32 0 9 0;
#X connect 33 0 8 0;
#X coords 0 -1 1 1 110 80 2 260 -50;
