#N canvas 588 199 757 421 10;
#X obj 101 105 cnv 15 160 60 empty empty AUDIO 100 12 0 14 -184827
-1 0;
#X obj 102 107 vsl 15 40 0 1 0 0 empty empty 1 4 20 0 10 -262144 -1
-1 3225 1;
#X floatatom 76 199 5 0 0 0 - - -, f 5;
#X obj 195 140 tgl 15 0 empty empty muet 17 7 0 10 -262144 -1 -1 0
1;
#X msg 195 298 0;
#X obj 245 179 sel 1;
#X obj -257 261 *~;
#X obj 91 11 loadbang;
#X msg 97 62 0.75;
#X obj -255 62 inlet~;
#X obj 85 402 dac~;
#X obj -176 71 inlet~;
#X obj 84 359 *~;
#X msg 248 331 0.95;
#X obj 308 271 loadbang;
#X obj 170 107 vsl 15 40 0 1 0 0 empty empty 2 4 20 0 10 -262144 -1
-1 2925 1;
#X obj 151 14 loadbang;
#X msg 140 61 0.75;
#X floatatom 116 201 5 0 0 0 - - -, f 5;
#X obj -182 256 *~;
#X obj -98 72 inlet~;
#X obj -93 256 *~;
#X obj 209 13 loadbang;
#X msg 198 60 0.75;
#X floatatom 167 202 5 0 0 0 - - -, f 5;
#X obj 247 107 vsl 15 40 0 1 0 0 empty empty 3 4 20 0 10 -262144 -1
-1 2925 1;
#X connect 1 0 2 0;
#X connect 2 0 6 1;
#X connect 3 0 5 0;
#X connect 4 0 12 1;
#X connect 5 0 13 0;
#X connect 5 1 4 0;
#X connect 6 0 12 0;
#X connect 7 0 8 0;
#X connect 8 0 1 0;
#X connect 9 0 6 0;
#X connect 11 0 19 0;
#X connect 12 0 10 1;
#X connect 12 0 10 0;
#X connect 13 0 12 1;
#X connect 14 0 13 0;
#X connect 15 0 18 0;
#X connect 16 0 17 0;
#X connect 17 0 15 0;
#X connect 18 0 19 1;
#X connect 19 0 12 0;
#X connect 20 0 21 0;
#X connect 21 0 12 0;
#X connect 22 0 23 0;
#X connect 23 0 25 0;
#X connect 24 0 21 1;
#X connect 25 0 24 0;
#X coords 0 -1 1 1 165 65 2 100 100;
