#N canvas 342 218 1214 484 10;
#X obj 100 104 cnv 15 164 60 empty empty SORTIE_AUDIO 30 25 0 14 -184827
-1 0;
#X obj 102 120 vsl 15 40 0 1 0 0 empty empty 1 4 20 0 10 -262144 -1
-1 3471 1;
#X obj 85 402 dac~;
#X obj 84 359 *~;
#X msg 287 331 0.95;
#X obj 303 308 loadbang;
#X obj 100 104 cnv 12 40 12 empty empty son 3 6 0 14 -4160 -1 0;
#X obj 393 38 ../save/save-int-separate audio_out1;
#X obj 392 -11 r audio_out1_in;
#X obj 392 77 s audio_out1_out;
#X obj 393 58 / 100;
#X obj 392 15 * 100;
#X obj 100 -1 r audio_out1_out;
#X obj 102 188 s audio_out1_in;
#X obj 30 -1 inlet~;
#X connect 1 0 13 0;
#X connect 3 0 2 1;
#X connect 3 0 2 0;
#X connect 4 0 3 1;
#X connect 5 0 4 0;
#X connect 7 0 10 0;
#X connect 8 0 11 0;
#X connect 10 0 9 0;
#X connect 11 0 7 0;
#X connect 12 0 1 0;
#X connect 14 0 3 0;
#X coords 0 -1 1 1 165 65 2 100 100;
