#N canvas 342 218 1214 484 10;
#X obj 100 104 cnv 15 164 60 empty empty SORTIE_AUDIO 30 25 0 14 -184827
-1 0;
#X obj 102 120 vsl 15 40 0 1 0 0 empty empty 1 4 20 0 10 -262144 -1
-1 3471 1;
#X floatatom 43 172 5 0 0 0 - - -;
#X obj 28 285 *~;
#X obj 85 402 dac~;
#X obj 84 359 *~;
#X msg 287 331 0.95;
#X obj 303 308 loadbang;
#X obj 100 104 cnv 12 40 12 empty empty son 3 6 0 14 -4160 -1 0;
#X obj 393 38 ../save/save-int-separate audio_out1;
#X obj 392 -11 r audio_out1_in;
#X obj 392 77 s audio_out1_out;
#X obj 393 58 / 100;
#X obj 392 15 * 100;
#X obj 100 -1 r audio_out1_out;
#X obj 102 288 s audio_out1_in;
#N canvas 393 307 575 316 fromAudio 1;
#X obj 1 176 outlet~;
#X obj -168 42 r~ to_master-son1;
#X obj -129 68 r~ to_master-son2;
#X obj 103 9 r~ to_master-loop1;
#X obj 88 31 r~ to_master-loop2;
#X obj 75 51 r~ to_master-loop3;
#X obj 59 74 r~ to_master-loop4;
#X obj 209 121 r~ to_master-effet;
#X obj 209 164 r~ to_master-looper;
#X connect 1 0 0 0;
#X connect 2 0 0 0;
#X connect 3 0 0 0;
#X connect 4 0 0 0;
#X connect 5 0 0 0;
#X connect 6 0 0 0;
#X connect 7 0 0 0;
#X connect 8 0 0 0;
#X restore -158 166 pd fromAudio;
#X obj -72 29 inlet~;
#X connect 1 0 2 0;
#X connect 1 0 15 0;
#X connect 2 0 3 1;
#X connect 3 0 5 0;
#X connect 5 0 4 1;
#X connect 5 0 4 0;
#X connect 6 0 5 1;
#X connect 7 0 6 0;
#X connect 9 0 12 0;
#X connect 10 0 13 0;
#X connect 12 0 11 0;
#X connect 13 0 9 0;
#X connect 14 0 1 0;
#X connect 16 0 3 0;
#X connect 17 0 3 0;
#X coords 0 -1 1 1 165 65 2 100 100;
