#N canvas 202 168 1103 393 10;
#N canvas 452 325 450 300 to-analog-in 0;
#X obj 11 90 t b f;
#X obj 68 90 t b f;
#X obj 125 90 t b f;
#X obj 180 90 t b f;
#X obj 234 90 t b f;
#X obj 292 90 t b f;
#X obj 350 90 t b f;
#X obj 406 90 t b f;
#X obj 10 114 pack 1 f;
#X obj 67 114 pack 2 f;
#X obj 124 114 pack 3 f;
#X obj 179 114 pack 4 f;
#X obj 233 114 pack 5 f;
#X obj 291 114 pack 6 f;
#X obj 349 114 pack 7 f;
#X obj 405 114 pack 8 f;
#X obj 13 44 inlet;
#X obj 66 43 inlet;
#X obj 123 43 inlet;
#X obj 178 42 inlet;
#X obj 233 43 inlet;
#X obj 291 42 inlet;
#X obj 346 43 inlet;
#X obj 402 42 inlet;
#X obj 125 239 s analog-in;
#X connect 0 0 8 0;
#X connect 0 1 8 1;
#X connect 1 0 9 0;
#X connect 1 1 9 1;
#X connect 2 0 10 0;
#X connect 2 1 10 1;
#X connect 3 0 11 0;
#X connect 3 1 11 1;
#X connect 4 0 12 0;
#X connect 4 1 12 1;
#X connect 5 0 13 0;
#X connect 5 1 13 1;
#X connect 6 0 14 0;
#X connect 6 1 14 1;
#X connect 7 0 15 0;
#X connect 7 1 15 1;
#X connect 8 0 24 0;
#X connect 9 0 24 0;
#X connect 10 0 24 0;
#X connect 11 0 24 0;
#X connect 12 0 24 0;
#X connect 13 0 24 0;
#X connect 14 0 24 0;
#X connect 15 0 24 0;
#X connect 16 0 0 0;
#X connect 17 0 1 0;
#X connect 18 0 2 0;
#X connect 19 0 3 0;
#X connect 20 0 4 0;
#X connect 21 0 5 0;
#X connect 22 0 6 0;
#X connect 23 0 7 0;
#X restore 422 40 pd to-analog-in;
#N canvas 648 454 450 300 to-digital-in 0;
#X obj 11 90 t b f;
#X obj 68 90 t b f;
#X obj 125 90 t b f;
#X obj 180 90 t b f;
#X obj 234 90 t b f;
#X obj 292 90 t b f;
#X obj 350 90 t b f;
#X obj 406 90 t b f;
#X obj 10 114 pack 1 f;
#X obj 67 114 pack 2 f;
#X obj 124 114 pack 3 f;
#X obj 179 114 pack 4 f;
#X obj 233 114 pack 5 f;
#X obj 291 114 pack 6 f;
#X obj 349 114 pack 7 f;
#X obj 405 114 pack 8 f;
#X obj 125 239 s digital-in;
#X obj 13 44 inlet;
#X obj 66 43 inlet;
#X obj 123 43 inlet;
#X obj 178 42 inlet;
#X obj 233 43 inlet;
#X obj 291 42 inlet;
#X obj 346 43 inlet;
#X obj 402 42 inlet;
#X connect 0 0 8 0;
#X connect 0 1 8 1;
#X connect 1 0 9 0;
#X connect 1 1 9 1;
#X connect 2 0 10 0;
#X connect 2 1 10 1;
#X connect 3 0 11 0;
#X connect 3 1 11 1;
#X connect 4 0 12 0;
#X connect 4 1 12 1;
#X connect 5 0 13 0;
#X connect 5 1 13 1;
#X connect 6 0 14 0;
#X connect 6 1 14 1;
#X connect 7 0 15 0;
#X connect 7 1 15 1;
#X connect 8 0 16 0;
#X connect 9 0 16 0;
#X connect 10 0 16 0;
#X connect 11 0 16 0;
#X connect 12 0 16 0;
#X connect 13 0 16 0;
#X connect 14 0 16 0;
#X connect 15 0 16 0;
#X connect 17 0 0 0;
#X connect 18 0 1 0;
#X connect 19 0 2 0;
#X connect 20 0 3 0;
#X connect 21 0 4 0;
#X connect 22 0 5 0;
#X connect 23 0 6 0;
#X connect 24 0 7 0;
#X restore 214 41 pd to-digital-in;
#X obj 101 101 cnv 15 798 99 empty empty SORTIES 8 76 0 30 -53394 -262144
0;
#X obj 127 109 tgl 35 0 empty empty 1 10 15 0 26 -14109 -262144 -262144
0 1;
#X obj 164 109 tgl 35 0 empty empty 2 10 15 0 26 -14109 -262144 -262144
0 1;
#X obj 201 109 tgl 35 0 empty empty 3 10 15 0 26 -14109 -262144 -262144
0 1;
#X obj 238 109 tgl 35 0 empty empty 4 10 15 0 26 -14109 -262144 -262144
0 1;
#X obj 275 109 tgl 35 0 empty empty 5 10 15 0 26 -14109 -262144 -262144
0 1;
#X obj 312 109 tgl 35 0 empty empty 6 10 15 0 26 -14109 -262144 -262144
0 1;
#X obj 349 109 tgl 35 0 empty empty 7 10 15 0 26 -14109 -262144 -262144
0 1;
#X obj 386 109 tgl 35 0 empty empty 8 10 15 0 26 -14109 -262144 -262144
0 1;
#X obj 290 240 audio_out;
#X obj 102 232 arduino_out;
#X coords 0 -1 1 1 800 100 2 100 100;
