#N canvas 37 23 780 782 10;
#X floatatom -50 84 5 0 0 0 - - -;
#X obj -50 155 phasor~;
#X obj -70 315 snapshot~;
#X obj 14 280 metro 2;
#X msg 104 235 stop;
#X obj -168 315 s~ tempoPhaser;
#X obj -63 5 * 0.01;
#X obj -140 53 s precession;
#X obj 86 -205 r tempoGoIn;
#X obj 165 -206 r tempoStopIn;
#X obj -11 33 r fix-tempo;
#X obj -22 184 r fix-tempo;
#X obj 104 207 r tempoStopOut;
#X obj 14 207 r tempoGoOut;
#X obj 189 64 s tempoStopOut;
#X obj 127 0 s metronomeOn;
#N canvas 917 32 476 376 metronome 0;
#X obj -460 -90 i 0;
#X obj -455 124 dac~;
#N canvas 313 577 431 337 clickHigh~ 0;
#X obj 211 64 inlet bng;
#X obj 211 86 bng 15 250 50 0 empty empty empty 17 7 0 10 -262144 -1
-1;
#X obj 241 116 del 30;
#X msg 241 138 0;
#X obj 129 177 osc~ 4000;
#X obj 129 219 *~ 0;
#X obj 129 261 outlet~;
#X text 120 20 just generate click sound;
#X obj 211 178 f;
#X msg 211 138 0.1;
#X connect 0 0 1 0;
#X connect 1 0 9 0;
#X connect 1 0 2 0;
#X connect 2 0 3 0;
#X connect 3 0 8 0;
#X connect 4 0 5 0;
#X connect 5 0 6 0;
#X connect 8 0 5 1;
#X connect 9 0 8 0;
#X restore -510 80 pd clickHigh~;
#N canvas 307 594 431 337 clickLow~ 0;
#X obj 211 64 inlet bng;
#X obj 211 86 bng 15 250 50 0 empty empty empty 17 7 0 10 -262144 -1
-1;
#X msg 241 138 0;
#X obj 129 219 *~ 0;
#X obj 129 261 outlet~;
#X text 120 20 just generate click sound;
#X obj 211 178 f;
#X msg 211 138 0.1;
#X obj 129 177 osc~ 3200;
#X obj 241 116 del 15;
#X connect 0 0 1 0;
#X connect 1 0 7 0;
#X connect 1 0 9 0;
#X connect 2 0 6 0;
#X connect 3 0 4 0;
#X connect 6 0 3 1;
#X connect 7 0 6 0;
#X connect 8 0 3 0;
#X connect 9 0 2 0;
#X restore -413 81 pd clickLow~;
#X obj -460 -62 sel 1;
#X obj -460 -34 i 0;
#X obj -460 48 sel 0;
#X obj -460 21 % 4;
#X obj -460 -5 + 0;
#X obj -445 -119 r metronomeOn;
#X obj -460 -142 r tempo_click_bang;
#X obj -412 -63 r tempo_click;
#X connect 0 0 4 0;
#X connect 2 0 1 1;
#X connect 2 0 1 0;
#X connect 3 0 1 1;
#X connect 3 0 1 0;
#X connect 4 0 5 0;
#X connect 5 0 8 0;
#X connect 6 0 2 0;
#X connect 6 1 3 0;
#X connect 7 0 6 0;
#X connect 8 0 7 0;
#X connect 9 0 0 1;
#X connect 10 0 0 0;
#X connect 11 0 5 1;
#X restore 279 -60 pd metronome;
#N canvas 763 334 424 344 tempo_click 0;
#X floatatom -19 73 5 0 0 0 - - -;
#X obj -19 -37 i 0;
#X obj 46 -7 change;
#X obj 46 102 outlet;
#X obj 63 37 s tempo_click;
#X obj -19 5 + 1;
#X obj -19 -103 inlet;
#X obj 200 41 bng 15 250 50 0 empty empty empty 17 7 0 10 -262144 -1
-1;
#X floatatom 153 39 5 0 0 0 - - -;
#X obj 200 65 s tempo_click_bang;
#X obj -19 -68 * 8;
#X connect 1 0 2 0;
#X connect 1 0 5 0;
#X connect 2 0 3 0;
#X connect 2 0 4 0;
#X connect 2 0 7 0;
#X connect 2 0 8 0;
#X connect 5 0 0 0;
#X connect 6 0 10 0;
#X connect 7 0 9 0;
#X connect 10 0 1 0;
#X restore -173 503 pd tempo_click;
#X floatatom -70 420 5 0 0 0 - - -;
#X obj -31 418 r fix-tempo;
#X floatatom -173 533 5 0 0 0 - - -;
#N canvas 613 350 484 374 tempo_bar 0;
#X obj 135 -994 s tempo_bar;
#X obj 97 -1079 i 0;
#X obj 99 -1027 % 8;
#X obj 106 -1158 i 0;
#X obj 125 -1121 change;
#X obj 83 -1120 + 1;
#X floatatom 31 -994 5 0 0 0 - - -;
#X obj 106 -1220 inlet;
#X obj 76 -992 outlet;
#X obj 98 -1056 + 0;
#X obj 106 -1190 * 16;
#X connect 1 0 9 0;
#X connect 2 0 0 0;
#X connect 2 0 6 0;
#X connect 2 0 8 0;
#X connect 3 0 4 0;
#X connect 3 0 5 0;
#X connect 4 0 1 0;
#X connect 5 0 1 1;
#X connect 7 0 10 0;
#X connect 9 0 2 0;
#X connect 10 0 3 0;
#X restore -20 502 pd tempo_bar;
#X floatatom -21 535 5 0 0 0 - - -;
#X obj -138 -76 * 0.8;
#X obj -274 -188 ../save/save-int-separate tempoValue;
#X obj -81 -351 r tempoValue;
#X obj -81 -324 / 1000;
#X obj -81 -293 pow -1;
#X obj -81 -267 * 60;
#X msg 137 131 0;
#X obj 137 91 r reset_tempo;
#X obj -81 -245 t b f;
#X obj -54 -204 / 0.8;
#X obj -184 -215 s reset_tempo;
#X obj 138 65 t b b;
#X msg -205 88 0;
#X obj -205 27 r tempoStopOut;
#X obj 0 -197 r tempo_bar;
#X obj -69 -109 cnv 15 290 90 empty empty empty 57 10 0 14 -253822
-33289 0;
#X floatatom -66 -38 6 0 0 0 - - -;
#X obj -63 -88 hsl 128 25 80 200 0 0 empty empty empty 78 9 0 10 -238739
-1 -1 2600 0;
#X obj -25 -37 bng 15 250 50 0 empty tempo_click_bang empty 17 7 0
10 -159808 -1 -1;
#X obj 127 -38 tgl 15 0 empty empty empty 17 7 0 10 -262144 -1 -1 0
1;
#X text 68 -40 metronome;
#X floatatom -7 -38 5 0 0 0 - - -;
#X obj 169 344 tgl 15 0 empty empty empty 17 7 0 10 -262144 -1 -1 1
1;
#X msg 194 300 0;
#X msg 156 300 1;
#X obj 156 387 i 0;
#X obj 45 342 r isTempoPlayingIn;
#X obj 156 451 s isTempoPlayingOut;
#X obj -50 56 / 6;
#X obj -67 214 *~ 6;
#X obj -70 446 / 6;
#X text -14 167 6 is the real duration of 16 beqts with 80 bpm;
#X obj 172 -101 tgl 45 0 empty empty go! 17 22 0 10 -14109 -1 -262144
1 1;
#X msg 165 -180 0;
#X msg 86 -180 1;
#X obj 162 40 sel 1;
#X obj -159 -325 / 255;
#X obj -159 -298 * 160;
#X obj -159 -271 + 40;
#X obj 247 -302 tgl 15 0 empty empty empty 17 7 0 10 -262144 -1 -1
0 1;
#X obj 200 -243 bng 15 250 50 0 empty empty empty 17 7 0 10 -262144
-1 -1;
#X obj 247 -281 sel 0;
#X obj 1 121 s tempoGoOutBang;
#X obj -283 -96 r tempoGoOutBang;
#X obj -289 0 s tempoGoOut;
#X obj -183 -51 i 0;
#X obj 226 91 s reset_tempo;
#X obj 154 -328 route bang float;
#X floatatom 71 533 5 0 0 0 - - -;
#N canvas 637 239 484 374 tempo_2bar 0;
#X obj 97 -1079 i 0;
#X obj 99 -1027 % 8;
#X obj 106 -1158 i 0;
#X obj 125 -1121 change;
#X obj 83 -1120 + 1;
#X floatatom 31 -994 5 0 0 0 - - -;
#X obj 106 -1220 inlet;
#X obj 76 -992 outlet;
#X obj 98 -1056 + 0;
#X obj 106 -1190 * 8;
#X obj 135 -994 s tempo_2bar;
#X connect 0 0 8 0;
#X connect 1 0 5 0;
#X connect 1 0 7 0;
#X connect 1 0 10 0;
#X connect 2 0 3 0;
#X connect 2 0 4 0;
#X connect 3 0 0 0;
#X connect 4 0 0 1;
#X connect 6 0 9 0;
#X connect 8 0 1 0;
#X connect 9 0 2 0;
#X restore 72 501 pd tempo_2bar;
#X floatatom 31 -38 5 0 0 0 - - -;
#X obj 64 56 s transpose;
#X obj 67 23 * 10;
#X obj -54 -106 cnv 15 100 16 empty empty TEMPO 0 7 0 16 -253822 -33289
0;
#X obj 94 -106 cnv 15 70 16 empty empty LECTURE 0 7 0 16 -253822 -33289
0;
#X obj -63 -61 ../extra/analog_receive tenpo;
#X obj -206 -1 s \$0-tempoFromAnalog;
#X obj -223 -351 r \$0-tempoFromAnalog;
#X obj 88 -88 ../extra/digital_receive playstop;
#X obj 255 -16 s \$0-playFromDigital;
#X obj 152 -353 r \$0-playFromDigital;
#X obj 192 123 bng 15 250 50 0 empty empty empty 17 7 0 10 -262144
-1 -1;
#X connect 0 0 1 0;
#X connect 1 0 52 0;
#X connect 2 0 18 0;
#X connect 3 0 2 0;
#X connect 4 0 3 0;
#X connect 4 0 46 0;
#X connect 6 0 7 0;
#X connect 6 0 51 0;
#X connect 8 0 57 0;
#X connect 9 0 56 0;
#X connect 10 0 51 1;
#X connect 11 0 52 1;
#X connect 12 0 4 0;
#X connect 13 0 3 0;
#X connect 13 0 47 0;
#X connect 17 0 20 0;
#X connect 18 0 53 0;
#X connect 19 0 53 1;
#X connect 21 0 22 0;
#X connect 23 0 39 0;
#X connect 24 0 40 0;
#X connect 25 0 26 0;
#X connect 26 0 27 0;
#X connect 27 0 28 0;
#X connect 28 0 31 0;
#X connect 29 0 1 1;
#X connect 30 0 29 0;
#X connect 30 0 84 0;
#X connect 31 0 33 0;
#X connect 31 1 32 0;
#X connect 32 0 40 0;
#X connect 34 0 65 0;
#X connect 34 1 69 0;
#X connect 35 0 1 0;
#X connect 36 0 35 0;
#X connect 37 0 44 0;
#X connect 40 0 23 0;
#X connect 40 0 6 0;
#X connect 40 0 68 1;
#X connect 40 0 24 0;
#X connect 42 0 15 0;
#X connect 45 0 48 1;
#X connect 46 0 45 0;
#X connect 47 0 45 0;
#X connect 48 0 50 0;
#X connect 49 0 48 0;
#X connect 51 0 0 0;
#X connect 52 0 2 0;
#X connect 52 0 5 0;
#X connect 53 0 17 0;
#X connect 53 0 21 0;
#X connect 53 0 72 0;
#X connect 55 0 58 0;
#X connect 56 0 55 0;
#X connect 57 0 55 0;
#X connect 58 0 34 0;
#X connect 58 1 14 0;
#X connect 59 0 60 0;
#X connect 60 0 61 0;
#X connect 61 0 32 0;
#X connect 62 0 64 0;
#X connect 63 0 55 0;
#X connect 64 1 63 0;
#X connect 66 0 68 0;
#X connect 68 0 67 0;
#X connect 68 0 6 0;
#X connect 70 0 63 0;
#X connect 70 1 62 0;
#X connect 72 0 71 0;
#X connect 73 0 75 0;
#X connect 75 0 74 0;
#X connect 78 0 79 0;
#X connect 80 0 59 0;
#X connect 81 0 82 0;
#X connect 83 0 70 0;
#X coords 0 -1 1 1 290 90 2 -70 -110;
