#N canvas 700 23 688 780 10;
#X floatatom -65 57 5 0 0 0 - - -;
#X obj -65 128 phasor~;
#X obj -70 315 snapshot~;
#X obj 14 280 metro 2;
#X msg 104 235 stop;
#X obj -168 315 s~ tempoPhaser;
#X obj -78 -22 * 0.01;
#X obj -155 26 s precession;
#X obj 86 -153 r tempoGoIn;
#X obj 165 -154 r tempoStopIn;
#X obj -26 6 r fix-tempo;
#X obj -22 184 r fix-tempo;
#X obj 104 207 r tempoStopOut;
#X obj 14 207 r tempoGoOut;
#X obj 174 37 s tempoStopOut;
#X obj 97 -26 s metronomeOn;
#N canvas 917 32 476 376 metronome 0;
#X obj -460 -90 i 0;
#X obj -455 124 dac~;
#N canvas 313 577 431 337 clickHigh~ 0;
#X obj 211 64 inlet bng;
#X obj 211 86 bng 15 250 50 0 empty empty empty 17 7 0 10 -262144 -1
-1;
#X obj 241 116 del 30;
#X msg 241 138 0;
#X obj 129 177 osc~ 4000;
#X obj 129 219 *~ 0;
#X obj 129 261 outlet~;
#X text 120 20 just generate click sound;
#X obj 211 178 f;
#X msg 211 138 0.1;
#X connect 0 0 1 0;
#X connect 1 0 9 0;
#X connect 1 0 2 0;
#X connect 2 0 3 0;
#X connect 3 0 8 0;
#X connect 4 0 5 0;
#X connect 5 0 6 0;
#X connect 8 0 5 1;
#X connect 9 0 8 0;
#X restore -510 80 pd clickHigh~;
#N canvas 307 594 431 337 clickLow~ 0;
#X obj 211 64 inlet bng;
#X obj 211 86 bng 15 250 50 0 empty empty empty 17 7 0 10 -262144 -1
-1;
#X msg 241 138 0;
#X obj 129 219 *~ 0;
#X obj 129 261 outlet~;
#X text 120 20 just generate click sound;
#X obj 211 178 f;
#X msg 211 138 0.1;
#X obj 129 177 osc~ 3200;
#X obj 241 116 del 15;
#X connect 0 0 1 0;
#X connect 1 0 7 0;
#X connect 1 0 9 0;
#X connect 2 0 6 0;
#X connect 3 0 4 0;
#X connect 6 0 3 1;
#X connect 7 0 6 0;
#X connect 8 0 3 0;
#X connect 9 0 2 0;
#X restore -413 81 pd clickLow~;
#X obj -460 -62 sel 1;
#X obj -460 -34 i 0;
#X obj -460 48 sel 0;
#X obj -460 21 % 4;
#X obj -460 -5 + 0;
#X obj -445 -119 r metronomeOn;
#X obj -460 -142 r tempo_click_bang;
#X obj -412 -63 r tempo_click;
#X connect 0 0 4 0;
#X connect 2 0 1 1;
#X connect 2 0 1 0;
#X connect 3 0 1 1;
#X connect 3 0 1 0;
#X connect 4 0 5 0;
#X connect 5 0 8 0;
#X connect 6 0 2 0;
#X connect 6 1 3 0;
#X connect 7 0 6 0;
#X connect 8 0 7 0;
#X connect 9 0 0 1;
#X connect 10 0 0 0;
#X connect 11 0 5 1;
#X restore 200 -57 pd metronome;
#N canvas 763 334 424 344 tempo_click 0;
#X floatatom -19 73 5 0 0 0 - - -;
#X obj -19 -37 i 0;
#X obj 46 -7 change;
#X obj 46 102 outlet;
#X obj 63 37 s tempo_click;
#X obj -19 5 + 1;
#X obj -19 -103 inlet;
#X obj 200 41 bng 15 250 50 0 empty empty empty 17 7 0 10 -262144 -1
-1;
#X floatatom 153 39 5 0 0 0 - - -;
#X obj 200 65 s tempo_click_bang;
#X obj -19 -68 * 8;
#X connect 1 0 2 0;
#X connect 1 0 5 0;
#X connect 2 0 3 0;
#X connect 2 0 4 0;
#X connect 2 0 7 0;
#X connect 2 0 8 0;
#X connect 5 0 0 0;
#X connect 6 0 10 0;
#X connect 7 0 9 0;
#X connect 10 0 1 0;
#X restore -173 503 pd tempo_click;
#X floatatom -70 420 5 0 0 0 - - -;
#X obj -31 418 r fix-tempo;
#X floatatom -173 533 5 0 0 0 - - -;
#N canvas 613 350 484 374 tempo_bar 0;
#X obj 135 -994 s tempo_bar;
#X obj 97 -1079 i 0;
#X obj 99 -1027 % 8;
#X obj 106 -1158 i 0;
#X obj 125 -1121 change;
#X obj 83 -1120 + 1;
#X floatatom 31 -994 5 0 0 0 - - -;
#X obj 106 -1220 inlet;
#X obj 76 -992 outlet;
#X obj 98 -1056 + 0;
#X obj 106 -1190 * 16;
#X connect 1 0 9 0;
#X connect 2 0 0 0;
#X connect 2 0 6 0;
#X connect 2 0 8 0;
#X connect 3 0 4 0;
#X connect 3 0 5 0;
#X connect 4 0 1 0;
#X connect 5 0 1 1;
#X connect 7 0 10 0;
#X connect 9 0 2 0;
#X connect 10 0 3 0;
#X restore -20 502 pd tempo_bar;
#X floatatom -21 535 5 0 0 0 - - -;
#X obj -138 -76 * 0.8;
#X obj -274 -136 ../save/save-int-separate tempoValue;
#X obj -81 -299 r tempoValue;
#X obj -81 -272 / 1000;
#X obj -81 -241 pow -1;
#X obj -81 -215 * 60;
#X msg 122 104 0;
#X obj 122 64 r reset_tempo;
#X obj -81 -193 t b f;
#X obj -54 -170 / 0.8;
#X obj -163 -168 s reset_tempo;
#X obj 123 38 t b b;
#X msg -220 61 0;
#X obj -220 0 r tempoStopOut;
#X obj 0 -145 r tempo_bar;
#X obj -69 -95 cnv 15 200 60 empty empty TEMPO 57 10 0 14 -184827 -33289
0;
#X floatatom -62 -58 6 0 0 0 - - -;
#X obj -61 -77 hsl 128 15 80 200 0 0 empty empty empty -2 -8 0 10 -203904
-1 -1 6910 1;
#X obj -20 -58 bng 15 250 50 0 empty tempo_click_bang empty 17 7 0
10 -159808 -1 -1;
#X obj 90 -51 tgl 15 0 empty empty empty 17 7 0 10 -262144 -1 -1 0
1;
#X text 33 -53 metronome;
#X floatatom 0 -58 5 0 0 0 - - -;
#X obj 169 344 tgl 15 0 empty empty empty 17 7 0 10 -262144 -1 -1 0
1;
#X msg 194 300 0;
#X msg 156 300 1;
#X obj 156 387 i 0;
#X obj 45 342 r isTempoPlayingIn;
#X obj 156 451 s isTempoPlayingOut;
#X obj -65 29 / 6;
#X obj -67 214 *~ 6;
#X obj -70 446 / 6;
#X text -29 140 6 is the real duration of 16 beqts with 80 bpm;
#X obj 93 -83 tgl 30 0 empty empty empty 17 7 0 10 -262144 -1 -1 0
1;
#X msg 165 -128 0;
#X msg 86 -128 1;
#X obj 147 13 sel 1;
#X obj -159 -299 inlet;
#X obj -159 -273 / 255;
#X obj -159 -246 * 160;
#X obj -159 -219 + 40;
#X obj 154 -298 inlet;
#X obj 247 -250 tgl 15 0 empty empty empty 17 7 0 10 -262144 -1 -1
1 1;
#X obj 200 -191 bng 15 250 50 0 empty empty empty 17 7 0 10 -262144
-1 -1;
#X obj 247 -229 sel 0;
#X obj 61 -96 cnv 12 70 12 empty empty play/stop 4 6 0 12 -204786 -1
0;
#X obj -69 -96 cnv 12 46 12 empty empty tempo 2 6 0 12 -249508 -1 0
;
#X obj -14 94 s tempoGoOutBang;
#X obj -283 -96 r tempoGoOutBang;
#X obj -264 -27 s tempoGoOut;
#X obj -183 -51 i 0;
#X obj 211 64 s reset_tempo;
#X obj 154 -276 route bang float;
#X connect 0 0 1 0;
#X connect 1 0 52 0;
#X connect 2 0 18 0;
#X connect 3 0 2 0;
#X connect 4 0 3 0;
#X connect 4 0 46 0;
#X connect 6 0 7 0;
#X connect 6 0 51 0;
#X connect 8 0 57 0;
#X connect 9 0 56 0;
#X connect 10 0 51 1;
#X connect 11 0 52 1;
#X connect 12 0 4 0;
#X connect 13 0 3 0;
#X connect 13 0 47 0;
#X connect 17 0 20 0;
#X connect 18 0 53 0;
#X connect 19 0 53 1;
#X connect 21 0 22 0;
#X connect 23 0 39 0;
#X connect 24 0 40 0;
#X connect 25 0 26 0;
#X connect 26 0 27 0;
#X connect 27 0 28 0;
#X connect 28 0 31 0;
#X connect 29 0 1 1;
#X connect 30 0 29 0;
#X connect 31 0 33 0;
#X connect 31 1 32 0;
#X connect 32 0 40 0;
#X connect 34 0 69 0;
#X connect 34 1 73 0;
#X connect 35 0 1 0;
#X connect 36 0 35 0;
#X connect 37 0 44 0;
#X connect 40 0 23 0;
#X connect 40 0 6 0;
#X connect 40 0 24 0;
#X connect 40 0 72 1;
#X connect 42 0 15 0;
#X connect 45 0 48 1;
#X connect 46 0 45 0;
#X connect 47 0 45 0;
#X connect 48 0 50 0;
#X connect 49 0 48 0;
#X connect 51 0 0 0;
#X connect 52 0 2 0;
#X connect 52 0 5 0;
#X connect 53 0 17 0;
#X connect 53 0 21 0;
#X connect 55 0 58 0;
#X connect 56 0 55 0;
#X connect 57 0 55 0;
#X connect 58 0 34 0;
#X connect 58 1 14 0;
#X connect 59 0 60 0;
#X connect 60 0 61 0;
#X connect 61 0 62 0;
#X connect 62 0 31 0;
#X connect 63 0 74 0;
#X connect 64 0 66 0;
#X connect 65 0 55 0;
#X connect 66 1 65 0;
#X connect 70 0 72 0;
#X connect 72 0 71 0;
#X connect 72 0 6 0;
#X connect 74 0 65 0;
#X connect 74 1 64 0;
#X coords 0 -1 1 1 202 68 2 -70 -100;
