#N canvas 542 107 721 548 10;
#X obj 152 270 symbol \$1;
#X obj 100 100 hradio 70 1 0 2 empty empty empty 0 -8 0 10 -262144
-1 -1 0;
#X obj 287 335 pack s f f f;
#X msg 289 384 \; pd-main.pd obj \$4 \$3 \$1 \$2;
#X obj 246 267 random 10000;
#X obj 273 207 t b b b b;
#X obj 401 263 + 368;
#X obj 326 261 + 149;
#X obj 323 240 random 366;
#X obj 401 239 random 555;
#X obj 232 362 t b l;
#X obj 101 101 cnv 15 138 68 empty empty AJOUTER 10 25 0 24 -245440
-66577 0;
#X obj 208 141 bng 25 250 50 0 empty empty empty 17 7 0 10 -262144
-1 -1;
#X obj 237 517 print;
#X obj 232 408 symbol \$2;
#X msg 232 456 \; pd-\$1 vis 0;
#X obj 189 361 bng 15 250 50 0 empty empty empty 17 7 0 10 -262144
-1 -1;
#X connect 0 0 2 0;
#X connect 1 0 12 0;
#X connect 2 0 10 0;
#X connect 4 0 2 1;
#X connect 5 0 0 0;
#X connect 5 1 4 0;
#X connect 5 2 8 0;
#X connect 5 3 9 0;
#X connect 6 0 2 3;
#X connect 7 0 2 2;
#X connect 8 0 7 0;
#X connect 9 0 6 0;
#X connect 10 0 14 0;
#X connect 10 1 3 0;
#X connect 12 0 5 0;
#X connect 14 0 15 0;
#X connect 15 0 13 0;
#X connect 16 0 14 0;
#X coords 0 -1 1 1 140 70 2 100 100;
