#N canvas 612 252 568 392 10;
#X obj 217 273 symbol \$1;
#X obj 100 100 hradio 70 1 0 3 empty empty empty 0 -8 0 10 -262144
-1 -1 0;
#X obj 101 101 cnv 15 208 68 empty empty AJOUTER 30 30 0 35 -245440
-66577 0;
#X obj 322 269 random 300;
#X obj 393 270 random 300;
#X obj 215 331 pack s f f;
#X obj 273 207 t b b b;
#X obj 381 306 + 300;
#X obj 314 308 + 300;
#X msg 221 358 \; pd-main.pd obj \$3 \$2 \$1;
#X obj 281 141 bng 25 250 50 0 empty empty empty 17 7 0 10 -262144
-1 -1;
#X connect 0 0 5 0;
#X connect 1 0 10 0;
#X connect 3 0 8 0;
#X connect 4 0 7 0;
#X connect 5 0 9 0;
#X connect 6 0 0 0;
#X connect 6 1 3 0;
#X connect 6 2 4 0;
#X connect 7 0 5 2;
#X connect 8 0 5 1;
#X connect 10 0 6 0;
#X coords 0 -1 1 1 210 70 1 100 100;
