#N canvas 461 203 589 375 10;
#X obj 80 41 route 0;
#X obj 70 220 outlet;
#X obj 342 116 s \$0-out;
#X obj 40 97 bng 15 250 50 0 empty empty empty 17 7 0 10 -262144 -1
-1;
#X obj 73 6 r analog-in;
#X obj 342 92 ../save/save-int-separate analreceiv-\$1;
#X msg 240 275 label \$1;
#X obj 239 244 symbol \$1;
#X obj 239 215 makefilename %d;
#X obj 236 313 s areceive_cnv_\$1;
#X obj 100 101 nbx 3 14 0 30 0 0 \$0-in \$0-out empty 0 -8 0 10 -262144
-1 -1 1 256;
#X obj 212 179 sel 0;
#X msg 212 215 -;
#X obj 101 101 cnv 12 33 14 empty empty -> 2 6 1 12 -86735 -262144
0;
#X obj 121 101 cnv 12 15 14 empty areceive_cnv_\$1 - 2 6 1 12 -86735
-262144 0;
#X obj 275 -47 r \$0-in;
#X obj 275 -24 / 5;
#X obj 275 1 i 0;
#X obj 360 -59 r init_affectation;
#X msg 360 -31 0;
#X connect 0 0 1 0;
#X connect 0 0 3 0;
#X connect 4 0 0 0;
#X connect 5 0 2 0;
#X connect 6 0 9 0;
#X connect 7 0 6 0;
#X connect 8 0 7 0;
#X connect 11 0 12 0;
#X connect 11 1 8 0;
#X connect 12 0 7 0;
#X connect 15 0 16 0;
#X connect 15 0 5 0;
#X connect 16 0 17 0;
#X connect 17 0 11 0;
#X connect 17 0 0 1;
#X connect 18 0 19 0;
#X connect 19 0 17 0;
#X connect 19 0 5 0;
#X coords 0 -1 1 1 37 16 2 100 100;
