#N canvas 588 227 499 343 10;
#X obj 274 113 ../save/save-int-separate digreceiv-\$1;
#X obj 73 6 r digital-in;
#X obj 80 41 route 0;
#X obj 70 220 outlet;
#X obj 273 147 s \$0-out;
#X obj 275 3 r \$0-in;
#X obj 101 101 cnv 12 80 14 empty empty ->digitale 2 6 1 12 -14109
-262144 0;
#X floatatom 155 100 4 0 8 0 - #0-out #0-in;
#X obj 32 116 bng 15 250 50 0 empty empty empty 17 7 0 10 -262144 -1
-1;
#X connect 0 0 4 0;
#X connect 1 0 2 0;
#X connect 2 0 3 0;
#X connect 2 0 8 0;
#X connect 5 0 0 0;
#X connect 5 0 2 1;
#X coords 0 -1 1 1 82 16 2 100 100;
