#N canvas 646 273 550 394 10;
#X obj 101 102 hradio 35 1 0 5 empty open_sub_isopen-\$1 empty 0 -8
0 10 -262144 -1 -1 2;
#X obj 100 100 cnv 15 177 37 empty open_sub-\$1 entree 90 18 0 14 -233017
-66577 0;
#X obj 101 146 bng 15 250 50 0 empty empty empty 17 7 0 10 -262144
-1 -1;
#X msg 338 197 label \$1;
#X obj 338 102 loadbang;
#X obj 338 227 s open_sub-\$1;
#X obj 338 167 symbol \$1;
#X obj 370 124 bng 15 250 50 0 empty empty empty 17 7 0 10 -262144
-1 -1;
#X text 116 115 librairie;
#X text 108 101 Ouvrir une;
#X obj 101 201 symbol;
#X msg 101 239 \; pd-\$1 vis 1;
#X connect 0 0 2 0;
#X connect 2 0 10 0;
#X connect 3 0 5 0;
#X connect 4 0 6 0;
#X connect 6 0 3 0;
#X connect 6 0 10 1;
#X connect 7 0 6 0;
#X connect 10 0 11 0;
#X coords 0 -1 1 1 177 37 1 100 100;
