#N canvas 24 220 794 474 10;
#X obj 422 22 cnv 15 100 60 empty empty empty 20 12 0 14 -233017 -66577
0;
#X obj 102 152 cnv 15 200 67 empty empty ARDUINO 120 12 0 14 -210924
-1 0;
#X obj 424 187 cnv 15 100 60 empty empty empty 20 12 0 14 -233017 -66577
0;
#X obj 428 276 cnv 15 100 60 empty empty empty 20 12 0 14 -233017 -66577
0;
#N canvas 701 307 705 460 read_serial 0;
#X obj 187 122 list prepend;
#X obj 290 122 t l;
#X obj 100 93 t f f;
#X obj 38 215 bng 15 250 50 0 empty empty empty 17 7 0 10 -262144 -1
-1;
#X obj 39 186 sel 1;
#X obj 130 269 list prepend;
#X obj 342 182 bng 15 250 50 0 empty empty empty 17 7 0 10 -262144
-1 -1;
#X obj 17 312 print fromArduino;
#X obj 101 34 inlet;
#X text -12 9 read String from arduino and print it to console;
#X text -52 52 This is used for debug ONLY;
#X text 345 201 clear list;
#X text -45 155 end of msg;
#X obj 24 155 == 14;
#X obj 161 315 outlet;
#X connect 0 0 1 0;
#X connect 0 0 5 1;
#X connect 1 0 0 1;
#X connect 2 0 13 0;
#X connect 2 1 0 0;
#X connect 3 0 5 0;
#X connect 4 0 3 0;
#X connect 5 0 6 0;
#X connect 5 0 14 0;
#X connect 6 0 0 1;
#X connect 8 0 2 0;
#X connect 13 0 4 0;
#X restore 61 75 pd read_serial;
#X obj 101 154 vsl 15 60 0 255 0 0 empty empty A0 2 30 0 10 -261234
-1 -1 0 1;
#X obj 180 154 vsl 15 60 0 255 0 0 empty empty A4 2 30 0 10 -204800
-1 -1 0 1;
#X obj 140 154 vsl 15 60 0 255 0 0 empty empty A2 2 30 0 10 -262130
-1 -1 5900 1;
#X obj 160 154 vsl 15 60 0 255 0 0 empty empty A3 2 30 0 10 -204786
-1 -1 0 1;
#X obj 120 154 vsl 15 60 0 255 0 0 empty empty A1 2 30 0 10 -261682
-1 -1 0 1;
#X obj 61 113 route 0 1 2 3 4 5;
#X obj 207 113 route 20 21 22 23 24 25 26;
#X obj 202 202 tgl 15 0 empty empty D2 2 7 0 10 -261234 -1 -1 0 255
;
#X obj 37 22 r arduinoOUT;
#X obj 223 202 tgl 15 0 empty empty D3 2 7 0 10 -261682 -1 -1 255 255
;
#X obj 244 202 tgl 15 0 empty empty D4 2 7 0 10 -262130 -1 -1 0 255
;
#X obj 264 202 tgl 15 0 empty empty D5 2 7 0 10 -204786 -1 -1 255 255
;
#X obj 286 202 tgl 15 0 empty empty D6 2 7 0 10 -204800 -1 -1 0 1;
#X obj -10 375 outlet;
#X obj -62 375 outlet;
#X obj 41 375 outlet;
#X obj 92 375 outlet;
#X obj 142 375 outlet;
#X obj 295 376 outlet;
#X obj 243 376 outlet;
#X obj 346 376 outlet;
#X obj 397 376 outlet;
#X obj 447 376 outlet;
#X connect 4 0 10 0;
#X connect 4 0 11 0;
#X connect 5 0 19 0;
#X connect 6 0 22 0;
#X connect 7 0 20 0;
#X connect 8 0 21 0;
#X connect 9 0 18 0;
#X connect 10 0 5 0;
#X connect 10 1 9 0;
#X connect 10 2 7 0;
#X connect 10 3 8 0;
#X connect 10 4 6 0;
#X connect 11 0 12 0;
#X connect 11 1 14 0;
#X connect 11 2 15 0;
#X connect 11 3 16 0;
#X connect 11 4 17 0;
#X connect 12 0 24 0;
#X connect 13 0 4 0;
#X connect 14 0 23 0;
#X connect 15 0 25 0;
#X connect 16 0 26 0;
#X connect 17 0 27 0;
#X coords 0 -1 1 1 203 75 2 100 150;
