#N canvas 202 269 794 474 10;
#X obj 102 152 cnv 15 200 67 empty empty LUCIBOX 120 12 0 14 -210924
-1 0;
#N canvas 660 283 705 460 read_serial 0;
#X obj 188 127 list prepend;
#X obj 309 126 t l;
#X obj 139 93 t f f;
#X obj 119 187 bng 15 250 50 0 empty empty empty 17 7 0 10 -262144
-1 -1;
#X obj 119 158 sel 1;
#X obj 119 269 list prepend;
#X obj 323 199 bng 15 250 50 0 empty empty empty 17 7 0 10 -262144
-1 -1;
#X obj -36 315 print fromArduino;
#X obj 140 34 inlet;
#X text -12 9 read String from arduino and print it to console;
#X text 345 201 clear list;
#X text 50 127 end of msg;
#X obj 119 127 == 14;
#X obj 119 315 outlet;
#X connect 0 0 1 0;
#X connect 0 0 5 1;
#X connect 1 0 0 1;
#X connect 2 0 12 0;
#X connect 2 1 0 0;
#X connect 3 0 5 0;
#X connect 4 0 3 0;
#X connect 5 0 6 0;
#X connect 5 0 13 0;
#X connect 6 0 0 1;
#X connect 8 0 2 0;
#X connect 12 0 4 0;
#X restore 61 75 pd read_serial;
#X obj 101 154 vsl 15 60 0 255 0 0 empty empty A0 2 30 0 10 -249508
-1 -1 1900 1;
#X obj 180 154 vsl 15 60 0 255 0 0 empty empty A4 2 30 0 10 -249508
-1 -1 5000 1;
#X obj 140 154 vsl 15 60 0 255 0 0 empty empty A2 2 30 0 10 -241442
-1 -1 5100 1;
#X obj 160 154 vsl 15 60 0 255 0 0 empty empty A3 2 30 0 10 -241444
-1 -1 1600 1;
#X obj 120 154 vsl 15 60 0 255 0 0 empty empty A1 2 30 0 10 -241442
-1 -1 4500 1;
#X obj 61 113 route 0 1 2 3 4 5;
#X obj 207 113 route 20 21 22 23 24 25 26;
#X obj 202 202 tgl 15 0 empty empty D2 2 7 0 10 -204786 -1 -1 255 255
;
#X obj 37 22 r arduinoOUT;
#X obj 223 202 tgl 15 0 empty empty D3 2 7 0 10 -204786 -1 -1 0 255
;
#X obj 244 202 tgl 15 0 empty empty D4 2 7 0 10 -204786 -1 -1 0 255
;
#X obj 264 202 tgl 15 0 empty empty D5 2 7 0 10 -204786 -1 -1 0 255
;
#X obj 286 202 tgl 15 0 empty empty D6 2 7 0 10 -204786 -1 -1 0 1;
#X obj -10 375 outlet;
#X obj -62 375 outlet;
#X obj 41 375 outlet;
#X obj 92 375 outlet;
#X obj 142 375 outlet;
#X obj 281 375 outlet;
#X obj 229 375 outlet;
#X obj 332 375 outlet;
#X obj 383 375 outlet;
#X obj 433 375 outlet;
#X connect 1 0 7 0;
#X connect 1 0 8 0;
#X connect 2 0 16 0;
#X connect 3 0 19 0;
#X connect 4 0 17 0;
#X connect 5 0 18 0;
#X connect 6 0 15 0;
#X connect 7 0 2 0;
#X connect 7 1 6 0;
#X connect 7 2 4 0;
#X connect 7 3 5 0;
#X connect 7 4 3 0;
#X connect 8 0 9 0;
#X connect 8 1 11 0;
#X connect 8 2 12 0;
#X connect 8 3 13 0;
#X connect 8 4 14 0;
#X connect 9 0 21 0;
#X connect 10 0 1 0;
#X connect 11 0 20 0;
#X connect 12 0 22 0;
#X connect 13 0 23 0;
#X connect 14 0 24 0;
#X coords 0 -1 1 1 203 75 2 100 150;
