#N canvas 1513 401 629 392 10;
#X floatatom 100 215 5 0 0 0 - - -;
#X obj 29 232 *~;
#X obj 30 80 adc~;
#X obj 28 341 outlet~;
#X obj 104 269 env~ 8162;
#X obj 101 101 cnv 15 130 60 empty empty AUDIO 10 9 0 14 -210924 -1
0;
#X obj 195 117 vsl 15 40 0 100 0 0 empty empty volume 0 -9 0 8 -262144
-1 -1 1757 1;
#X obj 165 117 vsl 15 40 0 1.5 0 0 empty empty gain 0 -9 0 8 -262144
-1 -1 2950 1;
#X obj 107 22 loadbang;
#X msg 50 173 \; pd dsp \$1;
#X obj 107 122 tgl 10 0 empty empty DSP 11 5 0 8 -262144 -1 -1 1 1
;
#X msg 107 61 1;
#X obj 102 149 cnv 12 40 12 empty empty empty 20 12 0 14 -4160 -66577
0;
#X text 108 145 son;
#X obj 412 122 ../save/save-int-separate audio_in;
#X obj 412 209 s save_audio_in;
#X obj 412 176 / 100;
#X obj 165 59 r save_audio_in;
#X obj 165 213 s save_audio_in_in;
#X obj 412 70 r save_audio_in_in;
#X obj 412 95 * 100;
#X floatatom 211 115 3 0 0 0 - - -;
#X obj 412 151 f 0;
#X connect 0 0 1 1;
#X connect 1 0 3 0;
#X connect 1 0 4 0;
#X connect 2 0 1 0;
#X connect 4 0 6 0;
#X connect 4 0 21 0;
#X connect 7 0 0 0;
#X connect 7 0 18 0;
#X connect 8 0 11 0;
#X connect 10 0 9 0;
#X connect 11 0 10 0;
#X connect 14 0 22 0;
#X connect 16 0 15 0;
#X connect 17 0 7 0;
#X connect 19 0 20 0;
#X connect 20 0 14 0;
#X connect 22 0 16 0;
#X coords 0 -1 1 1 132 65 2 100 100;
