#N canvas 153 269 754 363 10;
#X obj 102 102 cnv 15 161 60 empty empty CLAVIER 20 12 0 14 -210924
-1 0;
#X obj 289 96 cnv 15 100 60 empty empty empty 20 12 0 14 -233017 -66577
0;
#X obj 113 230 outlet;
#X obj 71 230 outlet;
#X obj 155 230 outlet;
#X obj 239 230 outlet;
#X obj 197 230 outlet;
#X obj 281 230 outlet;
#X obj 323 230 outlet;
#X obj 365 230 outlet;
#X obj 107 36 i 0;
#X obj 132 36 i 0;
#X obj 157 36 i 0;
#X obj 182 36 i 0;
#X obj 207 36 i 0;
#X obj 232 36 i 0;
#X obj 257 36 i 0;
#X obj 282 36 i 0;
#X obj 101 143 tgl 15 0 empty empty a 4 7 0 10 -228856 -1 -1 1 1;
#X obj 121 143 tgl 15 0 empty empty z 4 7 0 10 -228856 -1 -1 1 1;
#X obj 143 143 tgl 15 0 empty empty e 4 7 0 10 -228856 -1 -1 1 1;
#X obj 165 143 tgl 15 0 empty empty r 4 7 0 10 -228856 -1 -1 0 1;
#X obj 187 143 tgl 15 0 empty empty t 4 7 0 10 -228856 -1 -1 0 1;
#X obj 208 143 tgl 15 0 empty empty y 4 7 0 10 -228856 -1 -1 0 1;
#X obj 229 143 tgl 15 0 empty empty u 4 7 0 10 -228856 -1 -1 0 1;
#X obj 250 143 tgl 15 0 empty empty i 4 7 0 10 -228856 -1 -1 0 1;
#X obj 99 -147 keyname;
#X obj 163 -112 symbol;
#X obj 90 -52 i 0;
#X obj 99 -109 t b f;
#X obj 127 -51 b;
#X obj 151 -51 b;
#X obj 176 -51 b;
#X obj 200 -51 b;
#X obj 224 -51 b;
#X obj 248 -51 b;
#X obj 273 -51 b;
#X obj 297 -51 b;
#X obj 175 -79 sel a z e r t y u i;
#X connect 10 0 18 0;
#X connect 11 0 19 0;
#X connect 12 0 20 0;
#X connect 13 0 21 0;
#X connect 14 0 22 0;
#X connect 15 0 23 0;
#X connect 16 0 24 0;
#X connect 17 0 25 0;
#X connect 18 0 3 0;
#X connect 19 0 2 0;
#X connect 20 0 4 0;
#X connect 21 0 6 0;
#X connect 22 0 5 0;
#X connect 23 0 7 0;
#X connect 24 0 8 0;
#X connect 25 0 9 0;
#X connect 26 0 29 0;
#X connect 26 1 27 1;
#X connect 27 0 38 0;
#X connect 28 0 10 1;
#X connect 28 0 11 1;
#X connect 28 0 12 1;
#X connect 28 0 13 1;
#X connect 28 0 14 1;
#X connect 28 0 15 1;
#X connect 28 0 16 1;
#X connect 28 0 17 1;
#X connect 29 0 27 0;
#X connect 29 1 28 0;
#X connect 30 0 10 0;
#X connect 31 0 11 0;
#X connect 32 0 12 0;
#X connect 33 0 13 0;
#X connect 34 0 14 0;
#X connect 35 0 15 0;
#X connect 36 0 16 0;
#X connect 37 0 17 0;
#X connect 38 0 30 0;
#X connect 38 1 31 0;
#X connect 38 2 32 0;
#X connect 38 3 33 0;
#X connect 38 4 34 0;
#X connect 38 5 35 0;
#X connect 38 6 36 0;
#X connect 38 7 37 0;
#X coords 0 -1 1 1 165 65 1 100 100;
