#N canvas 234 388 800 363 10;
#X obj 101 101 cnv 15 135 55 empty empty CLAVIER 20 12 0 14 -210924
-1 0;
#X obj 113 230 outlet;
#X obj 71 230 outlet;
#X obj 155 230 outlet;
#X obj 239 230 outlet;
#X obj 197 230 outlet;
#X obj 281 230 outlet;
#X obj 323 230 outlet;
#X obj 87 -44 i 0;
#X obj 112 -44 i 0;
#X obj 137 -44 i 0;
#X obj 162 -44 i 0;
#X obj 187 -44 i 0;
#X obj 212 -44 i 0;
#X obj 237 -44 i 0;
#X obj 261 -44 i 0;
#X obj 101 142 tgl 15 0 empty empty a 4 7 0 10 -204786 -1 -1 0 1;
#X obj 118 142 tgl 15 0 empty empty z 4 7 0 10 -204786 -1 -1 0 1;
#X obj 135 142 tgl 15 0 empty empty e 4 7 0 10 -204786 -1 -1 0 1;
#X obj 152 142 tgl 15 0 empty empty r 4 7 0 10 -204786 -1 -1 0 1;
#X obj 169 142 tgl 15 0 empty empty t 4 7 0 10 -204786 -1 -1 0 1;
#X obj 186 142 tgl 15 0 empty empty y 4 7 0 10 -204786 -1 -1 0 1;
#X obj 204 142 tgl 15 0 empty empty u 4 7 0 10 -204786 -1 -1 0 1;
#X obj 222 142 tgl 15 0 empty empty i 4 7 0 10 -204786 -1 -1 0 1;
#X obj 371 231 outlet;
#X obj 258 -287 keyname;
#X obj 254 -194 pack s f;
#X obj 257 -223 symbol;
#X obj 258 -245 t b f;
#X obj 253 -138 route a z e r t y u i;
#X msg 249 -167 \$1 \$2;
#X obj 291 183 sel 1;
#X obj 248 183 sel 1;
#X obj 127 181 sel 1;
#X obj 168 181 sel 1;
#X obj 207 183 sel 1;
#X obj 87 181 sel 1;
#X obj 47 181 sel 1;
#X obj 0 180 sel 1;
#X connect 8 0 16 0;
#X connect 9 0 17 0;
#X connect 10 0 18 0;
#X connect 11 0 19 0;
#X connect 12 0 20 0;
#X connect 13 0 21 0;
#X connect 14 0 22 0;
#X connect 15 0 23 0;
#X connect 16 0 38 0;
#X connect 17 0 37 0;
#X connect 18 0 36 0;
#X connect 19 0 33 0;
#X connect 20 0 34 0;
#X connect 21 0 35 0;
#X connect 22 0 32 0;
#X connect 23 0 31 0;
#X connect 25 0 28 0;
#X connect 25 1 27 1;
#X connect 26 0 30 0;
#X connect 27 0 26 0;
#X connect 28 0 27 0;
#X connect 28 1 26 1;
#X connect 29 0 8 0;
#X connect 29 1 9 0;
#X connect 29 2 10 0;
#X connect 29 3 11 0;
#X connect 29 4 12 0;
#X connect 29 5 13 0;
#X connect 29 6 14 0;
#X connect 29 7 15 0;
#X connect 30 0 29 0;
#X connect 31 0 24 0;
#X connect 32 0 7 0;
#X connect 33 0 5 0;
#X connect 34 0 4 0;
#X connect 35 0 6 0;
#X connect 36 0 3 0;
#X connect 37 0 1 0;
#X connect 38 0 2 0;
#X coords 0 -1 1 1 137 60 1 100 100;
