#N canvas 244 209 963 365 10;
#X obj 101 101 cnv 15 118 55 empty empty CLAVIER_MIDI 20 12 0 14 -210924
-1 0;
#X obj 87 -44 i 0;
#X obj 112 -44 i 0;
#X obj 137 -44 i 0;
#X obj 162 -44 i 0;
#X obj 187 -44 i 0;
#X obj 212 -44 i 0;
#X obj 237 -44 i 0;
#X obj 261 -44 i 0;
#X obj 122 126 tgl 12 0 empty empty f 4 7 0 10 -228856 -1 -1 0 1;
#X obj 134 126 tgl 12 0 empty empty g 4 7 0 10 -228856 -1 -1 0 1;
#X obj 146 126 tgl 12 0 empty empty h 4 7 0 10 -228856 -1 -1 0 1;
#X obj 158 126 tgl 12 0 empty empty i 4 7 0 10 -228856 -1 -1 0 1;
#X obj 170 126 tgl 12 0 empty empty c 4 7 0 10 -228856 -1 -1 0 1;
#X obj 181 126 tgl 12 0 empty empty v 4 7 0 10 -228856 -1 -1 0 1;
#X obj 193 126 tgl 12 0 empty empty b 4 7 0 10 -228856 -1 -1 0 1;
#X obj 205 126 tgl 12 0 empty empty n 4 7 0 10 -228856 -1 -1 0 1;
#X obj 6 -289 keyname;
#X obj 2 -196 pack s f;
#X obj 5 -225 symbol;
#X obj 6 -247 t b f;
#X msg -3 -169 \$1 \$2;
#X obj -192 65 pack f f 0;
#X obj -202 -43 t b f;
#X obj -240 -43 t b f;
#X obj -127 -43 t b f;
#X obj -165 -43 t b f;
#X obj -52 -43 t b f;
#X obj -90 -43 t b f;
#X obj 23 -43 t b f;
#X obj -15 -43 t b f;
#X obj -212 223 outlet;
#X msg -237 -1 60;
#X msg -200 0 63;
#X msg -163 0 65;
#X msg -126 0 66;
#X msg -89 0 67;
#X msg -49 0 70;
#X msg -12 0 72;
#X msg 25 0 75;
#X obj 100 124 bng 15 250 50 0 empty empty empty 17 7 0 10 -204799
-1 -1;
#X obj 101 144 cnv 12 40 12 empty empty midi 4 6 0 12 -204799 -1 0
;
#X obj 1 -140 route f g h j c v b n;
#X connect 1 0 9 0;
#X connect 2 0 10 0;
#X connect 3 0 11 0;
#X connect 4 0 12 0;
#X connect 5 0 13 0;
#X connect 6 0 14 0;
#X connect 7 0 15 0;
#X connect 8 0 16 0;
#X connect 17 0 20 0;
#X connect 17 1 19 1;
#X connect 18 0 21 0;
#X connect 19 0 18 0;
#X connect 20 0 19 0;
#X connect 20 1 18 1;
#X connect 21 0 42 0;
#X connect 22 0 31 0;
#X connect 22 0 40 0;
#X connect 23 0 33 0;
#X connect 23 1 22 1;
#X connect 24 0 32 0;
#X connect 24 1 22 1;
#X connect 25 0 35 0;
#X connect 25 1 22 1;
#X connect 26 0 34 0;
#X connect 26 1 22 1;
#X connect 27 0 37 0;
#X connect 27 1 22 1;
#X connect 28 0 36 0;
#X connect 28 1 22 1;
#X connect 29 0 39 0;
#X connect 29 1 22 1;
#X connect 30 0 38 0;
#X connect 30 1 22 1;
#X connect 32 0 22 0;
#X connect 33 0 22 0;
#X connect 34 0 22 0;
#X connect 35 0 22 0;
#X connect 36 0 22 0;
#X connect 37 0 22 0;
#X connect 38 0 22 0;
#X connect 39 0 22 0;
#X connect 42 0 1 0;
#X connect 42 0 24 0;
#X connect 42 1 2 0;
#X connect 42 1 23 0;
#X connect 42 2 3 0;
#X connect 42 2 26 0;
#X connect 42 3 4 0;
#X connect 42 3 25 0;
#X connect 42 4 5 0;
#X connect 42 4 28 0;
#X connect 42 5 6 0;
#X connect 42 5 27 0;
#X connect 42 6 7 0;
#X connect 42 6 30 0;
#X connect 42 7 8 0;
#X connect 42 7 29 0;
#X coords 0 -1 1 1 120 60 2 100 100;
