#N canvas 455 232 800 363 10;
#X obj 102 102 cnv 15 191 60 empty empty CLAVIER 20 12 0 14 -210924
-1 0;
#X obj 113 230 outlet;
#X obj 71 230 outlet;
#X obj 155 230 outlet;
#X obj 239 230 outlet;
#X obj 197 230 outlet;
#X obj 281 230 outlet;
#X obj 323 230 outlet;
#X obj 87 -44 i 0;
#X obj 112 -44 i 0;
#X obj 137 -44 i 0;
#X obj 162 -44 i 0;
#X obj 187 -44 i 0;
#X obj 212 -44 i 0;
#X obj 237 -44 i 0;
#X obj 261 -44 i 0;
#X obj 101 143 tgl 15 0 empty empty a 4 7 0 10 -228856 -1 -1 0 1;
#X obj 123 143 tgl 15 0 empty empty z 4 7 0 10 -228856 -1 -1 0 1;
#X obj 146 143 tgl 15 0 empty empty e 4 7 0 10 -228856 -1 -1 0 1;
#X obj 170 143 tgl 15 0 empty empty r 4 7 0 10 -228856 -1 -1 0 1;
#X obj 192 143 tgl 15 0 empty empty t 4 7 0 10 -228856 -1 -1 0 1;
#X obj 214 143 tgl 15 0 empty empty y 4 7 0 10 -228856 -1 -1 0 1;
#X obj 235 143 tgl 15 0 empty empty u 4 7 0 10 -228856 -1 -1 0 1;
#X obj 257 143 tgl 15 0 empty empty i 4 7 0 10 -228856 -1 -1 0 1;
#X obj 368 230 outlet;
#X obj 258 -287 keyname;
#X obj 254 -194 pack s f;
#X obj 257 -223 symbol;
#X obj 258 -245 t b f;
#X obj 253 -138 route a z e r t y u i;
#X msg 249 -167 \$1 \$2;
#X obj 445 71 pack f f 0;
#X obj 435 -37 t b f;
#X obj 397 -37 t b f;
#X obj 510 -37 t b f;
#X obj 472 -37 t b f;
#X obj 585 -37 t b f;
#X obj 547 -37 t b f;
#X obj 660 -37 t b f;
#X obj 622 -37 t b f;
#X obj 425 229 outlet;
#X text 267 120 midi;
#X msg 400 5 60;
#X msg 437 6 63;
#X msg 474 6 65;
#X msg 511 6 66;
#X msg 548 6 67;
#X msg 588 6 70;
#X msg 625 6 72;
#X msg 662 6 75;
#X obj 277 143 bng 15 250 50 0 empty empty empty 17 7 0 10 -262144
-1 -1;
#X connect 8 0 16 0;
#X connect 9 0 17 0;
#X connect 10 0 18 0;
#X connect 11 0 19 0;
#X connect 12 0 20 0;
#X connect 13 0 21 0;
#X connect 14 0 22 0;
#X connect 15 0 23 0;
#X connect 16 0 2 0;
#X connect 17 0 1 0;
#X connect 18 0 3 0;
#X connect 19 0 5 0;
#X connect 20 0 4 0;
#X connect 21 0 6 0;
#X connect 22 0 7 0;
#X connect 23 0 24 0;
#X connect 25 0 28 0;
#X connect 25 1 27 1;
#X connect 26 0 30 0;
#X connect 27 0 26 0;
#X connect 28 0 27 0;
#X connect 28 1 26 1;
#X connect 29 0 8 0;
#X connect 29 0 33 0;
#X connect 29 1 9 0;
#X connect 29 1 32 0;
#X connect 29 2 10 0;
#X connect 29 2 35 0;
#X connect 29 3 11 0;
#X connect 29 3 34 0;
#X connect 29 4 12 0;
#X connect 29 4 37 0;
#X connect 29 5 13 0;
#X connect 29 5 36 0;
#X connect 29 6 14 0;
#X connect 29 6 39 0;
#X connect 29 7 15 0;
#X connect 29 7 38 0;
#X connect 30 0 29 0;
#X connect 31 0 40 0;
#X connect 31 0 50 0;
#X connect 32 0 43 0;
#X connect 32 1 31 1;
#X connect 33 0 42 0;
#X connect 33 1 31 1;
#X connect 34 0 45 0;
#X connect 34 1 31 1;
#X connect 35 0 44 0;
#X connect 35 1 31 1;
#X connect 36 0 47 0;
#X connect 36 1 31 1;
#X connect 37 0 46 0;
#X connect 37 1 31 1;
#X connect 38 0 49 0;
#X connect 38 1 31 1;
#X connect 39 0 48 0;
#X connect 39 1 31 1;
#X connect 42 0 31 0;
#X connect 43 0 31 0;
#X connect 44 0 31 0;
#X connect 45 0 31 0;
#X connect 46 0 31 0;
#X connect 47 0 31 0;
#X connect 48 0 31 0;
#X connect 49 0 31 0;
#X coords 0 -1 1 1 195 64 1 100 100;
