#N canvas 150 139 703 509 10;
#X obj 161 -56 clavier_midi 862;
#X obj 349 -55 clavier;
#X obj 513 -54 arduino_in;
#N canvas 452 325 450 300 to-analog-in 0;
#X obj 11 90 t b f;
#X obj 68 90 t b f;
#X obj 125 90 t b f;
#X obj 180 90 t b f;
#X obj 234 90 t b f;
#X obj 292 90 t b f;
#X obj 350 90 t b f;
#X obj 406 90 t b f;
#X obj 10 114 pack 1 f;
#X obj 67 114 pack 2 f;
#X obj 124 114 pack 3 f;
#X obj 179 114 pack 4 f;
#X obj 233 114 pack 5 f;
#X obj 291 114 pack 6 f;
#X obj 349 114 pack 7 f;
#X obj 405 114 pack 8 f;
#X obj 13 44 inlet;
#X obj 66 43 inlet;
#X obj 123 43 inlet;
#X obj 178 42 inlet;
#X obj 233 43 inlet;
#X obj 291 42 inlet;
#X obj 346 43 inlet;
#X obj 402 42 inlet;
#X obj 125 239 s analog-in;
#X connect 0 0 8 0;
#X connect 0 1 8 1;
#X connect 1 0 9 0;
#X connect 1 1 9 1;
#X connect 2 0 10 0;
#X connect 2 1 10 1;
#X connect 3 0 11 0;
#X connect 3 1 11 1;
#X connect 4 0 12 0;
#X connect 4 1 12 1;
#X connect 5 0 13 0;
#X connect 5 1 13 1;
#X connect 6 0 14 0;
#X connect 6 1 14 1;
#X connect 7 0 15 0;
#X connect 7 1 15 1;
#X connect 8 0 24 0;
#X connect 9 0 24 0;
#X connect 10 0 24 0;
#X connect 11 0 24 0;
#X connect 12 0 24 0;
#X connect 13 0 24 0;
#X connect 14 0 24 0;
#X connect 15 0 24 0;
#X connect 16 0 0 0;
#X connect 17 0 1 0;
#X connect 18 0 2 0;
#X connect 19 0 3 0;
#X connect 20 0 4 0;
#X connect 21 0 5 0;
#X connect 22 0 6 0;
#X connect 23 0 7 0;
#X restore 786 247 pd to-analog-in;
#N canvas 648 454 450 300 to-digital-in 0;
#X obj 11 90 t b f;
#X obj 68 90 t b f;
#X obj 125 90 t b f;
#X obj 180 90 t b f;
#X obj 234 90 t b f;
#X obj 292 90 t b f;
#X obj 350 90 t b f;
#X obj 406 90 t b f;
#X obj 10 114 pack 1 f;
#X obj 67 114 pack 2 f;
#X obj 124 114 pack 3 f;
#X obj 179 114 pack 4 f;
#X obj 233 114 pack 5 f;
#X obj 291 114 pack 6 f;
#X obj 349 114 pack 7 f;
#X obj 405 114 pack 8 f;
#X obj 125 239 s digital-in;
#X obj 13 44 inlet;
#X obj 66 43 inlet;
#X obj 123 43 inlet;
#X obj 178 42 inlet;
#X obj 233 43 inlet;
#X obj 291 42 inlet;
#X obj 346 43 inlet;
#X obj 402 42 inlet;
#X connect 0 0 8 0;
#X connect 0 1 8 1;
#X connect 1 0 9 0;
#X connect 1 1 9 1;
#X connect 2 0 10 0;
#X connect 2 1 10 1;
#X connect 3 0 11 0;
#X connect 3 1 11 1;
#X connect 4 0 12 0;
#X connect 4 1 12 1;
#X connect 5 0 13 0;
#X connect 5 1 13 1;
#X connect 6 0 14 0;
#X connect 6 1 14 1;
#X connect 7 0 15 0;
#X connect 7 1 15 1;
#X connect 8 0 16 0;
#X connect 9 0 16 0;
#X connect 10 0 16 0;
#X connect 11 0 16 0;
#X connect 12 0 16 0;
#X connect 13 0 16 0;
#X connect 14 0 16 0;
#X connect 15 0 16 0;
#X connect 17 0 0 0;
#X connect 18 0 1 0;
#X connect 19 0 2 0;
#X connect 20 0 3 0;
#X connect 21 0 4 0;
#X connect 22 0 5 0;
#X connect 23 0 6 0;
#X connect 24 0 7 0;
#X restore 522 239 pd to-digital-in;
#X obj 14 -55 ../input/audio_in 1040;
#X obj 511 -106 ../arduino/arduino_main;
#X obj 101 101 cnv 15 853 98 empty empty ENTREES 20 15 0 30 -99865
-262144 0;
#X obj 421 162 tgl 35 0 empty empty 1 10 15 0 26 -14109 -262144 -262144
0 1;
#X obj 458 162 tgl 35 0 empty empty 2 10 15 0 26 -14109 -262144 -262144
0 1;
#X obj 495 162 tgl 35 0 empty empty 3 10 15 0 26 -14109 -262144 -262144
0 1;
#X obj 532 162 tgl 35 0 empty empty 4 10 15 0 26 -14109 -262144 -262144
0 1;
#X obj 569 162 tgl 35 0 empty empty 5 10 15 0 26 -14109 -262144 -262144
0 1;
#X obj 606 162 tgl 35 0 empty empty 6 10 15 0 26 -14109 -262144 -262144
0 1;
#X obj 643 162 tgl 35 0 empty empty 7 10 15 0 26 -14109 -262144 -262144
0 1;
#X obj 680 162 tgl 35 0 empty empty 8 10 15 0 26 -14109 -262144 -262144
0 1;
#X obj 723 141 vsl 34 55 0 255 0 0 empty empty 1 11 24 0 25 -86735
-262144 -262144 0 1;
#X obj 796 141 vsl 34 55 0 255 0 0 empty empty 3 11 24 0 25 -86735
-262144 -262144 0 1;
#X obj 832 141 vsl 34 55 0 255 0 0 empty empty 4 11 24 0 25 -86735
-262144 -262144 0 1;
#X obj 760 141 vsl 34 55 0 255 0 0 empty empty 2 11 24 0 25 -86735
-262144 -262144 0 1;
#X obj 868 141 vsl 34 55 0 255 0 0 empty empty 5 11 24 0 25 -86735
-262144 -262144 0 1;
#X obj 904 141 vsl 34 55 0 255 0 0 empty empty 6 11 24 0 25 -86735
-262144 -262144 0 1;
#X obj 523 107 cnv 15 100 14 empty empty digitale 0 6 0 14 -14109 -262144
0;
#X obj 422 142 cnv 15 32 14 empty empty a 10 6 0 14 -66577 -262144
0;
#X obj 459 142 cnv 15 32 14 empty empty z 10 6 0 14 -66577 -262144
0;
#X obj 496 142 cnv 15 32 14 empty empty e 10 6 0 14 -66577 -262144
0;
#X obj 536 142 cnv 15 32 14 empty empty r 10 6 0 14 -66577 -262144
0;
#X obj 573 142 cnv 15 32 14 empty empty t 10 6 0 14 -66577 -262144
0;
#X obj 610 142 cnv 15 32 14 empty empty y 10 6 0 14 -66577 -262144
0;
#X obj 646 142 cnv 15 32 14 empty empty u 10 6 0 14 -66577 -262144
0;
#X obj 682 142 cnv 15 32 14 empty empty i 10 6 0 14 -66577 -262144
0;
#X obj 785 108 cnv 15 100 14 empty empty analogique 0 6 0 14 -74640
-262144 0;
#N canvas 553 50 450 300 midi-input 0;
#X obj 101 37 route 60 63 65 66 67 70 72 75;
#X obj 99 -21 inlet;
#X obj 101 101 tgl 25 0 empty empty s 10 11 0 12 -1375 -262144 -262144
0 1;
#X obj 13 76 s to_midi1;
#X obj 126 101 tgl 25 0 empty empty d 10 11 0 12 -1375 -262144 -262144
0 1;
#X obj 151 101 tgl 25 0 empty empty f 10 11 0 12 -1375 -262144 -262144
0 1;
#X obj 176 101 tgl 25 0 empty empty g 10 11 0 12 -1375 -262144 -262144
0 1;
#X obj 101 126 tgl 25 0 empty empty h 10 11 0 12 -1375 -262144 -262144
0 1;
#X obj 126 126 tgl 25 0 empty empty j 10 11 0 12 -1375 -262144 -262144
0 1;
#X obj 151 126 tgl 25 0 empty empty k 10 11 0 12 -1375 -262144 -262144
0 1;
#X obj 176 126 tgl 25 0 empty empty l 10 11 0 12 -1375 -262144 -262144
0 1;
#X connect 0 0 2 0;
#X connect 0 1 4 0;
#X connect 0 2 5 0;
#X connect 0 3 6 0;
#X connect 0 4 7 0;
#X connect 0 5 8 0;
#X connect 0 6 9 0;
#X connect 0 7 10 0;
#X connect 1 0 0 0;
#X connect 1 0 3 0;
#X coords 0 -1 1 1 102 52 2 100 100;
#X restore 274 147 pd midi-input;
#X obj 276 107 cnv 15 60 15 empty empty midi 7 6 0 14 -1375 -262144
0;
#X obj 322 107 cnv 15 20 15 empty empty 1 0 6 0 14 -1375 -262144 0
;
#X obj 105 117 vu 15 80 empty empty -1 -8 0 10 -66577 -1 0 0;
#X floatatom 96 76 5 0 0 0 - - -;
#X obj 24 52 - 100;
#X obj 15 27 env~ 4096;
#X text 268 226 todo : any input can become midi;
#X obj 13 225 s~ input_audio1;
#X connect 0 0 32 0;
#X connect 1 0 8 0;
#X connect 1 1 9 0;
#X connect 1 2 10 0;
#X connect 1 3 11 0;
#X connect 1 4 12 0;
#X connect 1 5 13 0;
#X connect 1 6 14 0;
#X connect 1 7 15 0;
#X connect 2 0 16 0;
#X connect 2 1 19 0;
#X connect 2 2 17 0;
#X connect 2 3 18 0;
#X connect 2 4 20 0;
#X connect 2 5 8 0;
#X connect 2 6 9 0;
#X connect 2 7 10 0;
#X connect 2 8 11 0;
#X connect 2 9 12 0;
#X connect 5 0 38 0;
#X connect 5 0 40 0;
#X connect 8 0 4 0;
#X connect 9 0 4 1;
#X connect 10 0 4 2;
#X connect 11 0 4 3;
#X connect 12 0 4 4;
#X connect 13 0 4 5;
#X connect 14 0 4 6;
#X connect 15 0 4 7;
#X connect 16 0 3 0;
#X connect 17 0 3 2;
#X connect 18 0 3 3;
#X connect 19 0 3 1;
#X connect 20 0 3 4;
#X connect 21 0 3 5;
#X connect 37 0 35 0;
#X connect 38 0 37 0;
#X coords 0 -1 1 1 855 100 2 100 100;
