#N canvas 527 325 998 474 10;
#X obj 48 297 s arduinoIN;
#X obj 29 113 bng 15 250 50 0 empty empty empty 17 7 0 10 -262144 -1
-1;
#X obj 17 221 pack 13 255;
#X obj 281 -34 vsl 15 40 0 255 0 0 empty empty empty 0 -9 0 10 -262144
-1 -1 0 1;
#X obj 263 -34 vsl 15 40 0 255 0 0 empty empty empty 0 -9 0 10 -262144
-1 -1 0 1;
#X obj 317 -34 vsl 15 40 0 255 0 0 empty empty empty 0 -9 0 10 -262144
-1 -1 0 1;
#X obj 299 -34 vsl 15 40 0 255 0 0 empty empty empty 0 -9 0 10 -262144
-1 -1 0 1;
#X obj 353 -34 vsl 15 40 0 255 0 0 empty empty empty 0 -9 0 10 -258113
-1 -1 2325 1;
#X obj 335 -34 vsl 15 40 0 255 0 0 empty empty empty 0 -9 0 10 -262144
-1 -1 0 1;
#X obj 212 111 t b f;
#X obj 212 177 i 0;
#X obj 266 111 t b f;
#X obj 321 111 t b f;
#X obj 375 111 t b f;
#X obj 425 111 t b f;
#X obj 478 112 t b f;
#X obj 286 173 i 1;
#X obj 326 173 i 2;
#X obj 387 173 i 3;
#X obj 448 172 i 4;
#X obj 523 173 i 5;
#X obj 201 212 pack 0 0;
#X obj 265 212 pack 0 0;
#X obj 328 212 pack 0 0;
#X obj 392 212 pack 0 0;
#X obj 455 212 pack 0 0;
#X obj 517 212 pack 0 0;
#X obj 229 -110 inlet;
#X obj 270 -110 inlet;
#X obj 312 -110 inlet;
#X obj 353 -110 inlet;
#X obj 394 -110 inlet;
#X obj 435 -110 inlet;
#X obj 260 9 cnv 15 109 60 empty empty empty 20 12 0 14 -4032 -66577
0;
#X text 266 47 Leds \, moteurs;
#X text 264 28 Sortie Arduino;
#X connect 1 0 2 0;
#X connect 2 0 0 0;
#X connect 3 0 11 0;
#X connect 4 0 9 0;
#X connect 5 0 13 0;
#X connect 6 0 12 0;
#X connect 7 0 15 0;
#X connect 8 0 14 0;
#X connect 9 0 10 0;
#X connect 9 1 21 1;
#X connect 10 0 21 0;
#X connect 11 0 16 0;
#X connect 11 1 22 1;
#X connect 12 0 17 0;
#X connect 12 1 23 1;
#X connect 13 0 18 0;
#X connect 13 1 24 1;
#X connect 14 0 19 0;
#X connect 14 1 25 1;
#X connect 15 0 20 0;
#X connect 15 1 26 1;
#X connect 16 0 22 0;
#X connect 17 0 23 0;
#X connect 18 0 24 0;
#X connect 19 0 25 0;
#X connect 20 0 26 0;
#X connect 21 0 0 0;
#X connect 22 0 0 0;
#X connect 23 0 0 0;
#X connect 24 0 0 0;
#X connect 25 0 0 0;
#X connect 26 0 0 0;
#X connect 27 0 4 0;
#X connect 28 0 3 0;
#X connect 29 0 6 0;
#X connect 30 0 5 0;
#X connect 31 0 8 0;
#X connect 32 0 7 0;
#X coords 0 -1 1 1 110 120 2 260 -50;
